<?xml version="1.0" encoding="UTF-8" standalone="no"?>
<svg
   xmlns:dc="http://purl.org/dc/elements/1.1/"
   xmlns:cc="http://creativecommons.org/ns#"
   xmlns:rdf="http://www.w3.org/1999/02/22-rdf-syntax-ns#"
   xmlns:svg="http://www.w3.org/2000/svg"
   xmlns="http://www.w3.org/2000/svg"
   xmlns:sodipodi="http://sodipodi.sourceforge.net/DTD/sodipodi-0.dtd"
   xmlns:inkscape="http://www.inkscape.org/namespaces/inkscape"
   width="1024.0px"
   height="1024.0px"
   viewBox="0 0 1024.0 1024.0"
   version="1.1"
   id="SVGRoot"
   sodipodi:docname="mic_muted_icon.svg"
   inkscape:version="1.0.1 (3bc2e813f5, 2020-09-07)">
  <defs
     id="defs833" />
  <sodipodi:namedview
     id="base"
     pagecolor="#ffffff"
     bordercolor="#666666"
     borderopacity="1.0"
     inkscape:pageopacity="0.0"
     inkscape:pageshadow="2"
     inkscape:zoom="0.7"
     inkscape:cx="376.48933"
     inkscape:cy="533.82139"
     inkscape:document-units="px"
     inkscape:current-layer="layer1"
     inkscape:document-rotation="0"
     showgrid="true"
     inkscape:window-width="1920"
     inkscape:window-height="1017"
     inkscape:window-x="-8"
     inkscape:window-y="-8"
     inkscape:window-maximized="1"
     inkscape:snap-grids="true"
     objecttolerance="10000"
     inkscape:snap-to-guides="true">
    <inkscape:grid
       type="xygrid"
       id="grid1403" />
  </sodipodi:namedview>
  <metadata
     id="metadata836">
    <rdf:RDF>
      <cc:Work
         rdf:about="">
        <dc:format>image/svg+xml</dc:format>
        <dc:type
           rdf:resource="http://purl.org/dc/dcmitype/StillImage" />
        <dc:title></dc:title>
      </cc:Work>
    </rdf:RDF>
  </metadata>
  <g
     inkscape:label="Layer 1"
     inkscape:groupmode="layer"
     id="layer1">
    <path
       id="path1410"
       style="fill:#00a3e8;fill-opacity:1;stroke:none;stroke-width:2.2891;stroke-linejoin:round"
       d="m 578.93069,798.21466 v 56.73536 c 0,17.04662 -13.48454,30.77009 -30.2344,30.77009 H 427.75876 c -16.74985,0 -30.23437,-13.72347 -30.23437,-30.77009 v -54.7386 A 279.66807,107.6953 0 0 0 216.11807,901.04055 279.66807,107.6953 0 0 0 495.78613,1008.7359 279.66807,107.6953 0 0 0 775.45419,901.04055 279.66807,107.6953 0 0 0 578.93069,798.21466 Z" />
    <path
       id="rect1412-8"
       style="fill:#00a3e8;fill-opacity:1;stroke:none;stroke-width:22.8786;stroke-linejoin:round"
       d="m 408.35221,648.73585 v 196.07211 c 0,16.08542 16.45733,29.03478 36.90032,29.03478 h 86.19936 c 20.44299,0 36.90032,-12.94936 36.90032,-29.03478 V 648.73585 Z" />
    <path
       id="path1453"
       style="fill:#00a3e8;fill-opacity:1;stroke:none;stroke-width:2.28451;stroke-linejoin:round"
       d="m 248.35221,468.73585 c -30.33019,21.25198 -59.9997,54.62528 -60,80 2e-5,72.22386 141.60083,121.52903 299.59664,121.52903 157.99582,0 303.2196,-49.97757 303.21963,-122.20143 1.5e-4,-25.09197 -33.11712,-58.22564 -62.81627,-79.3276 -7.9856,60.87223 -113.03601,99.9998 -240,100 -127.52476,-2.8e-4 -232.74853,-38.83674 -240,-100 z"
       sodipodi:nodetypes="ccssccc" />
    <path
       id="rect834"
       style="fill:#00a3e8;fill-opacity:1;stroke:none;stroke-width:3.43908;stroke-linejoin:round"
       d="m 397.08805,19.23274 c -38.07965,0 -68.73584,30.656186 -68.73584,68.735847 V 110.88053 H 420 v 68.73585 h -91.64779 v 45.8239 H 420 v 68.73583 H 328.35221 V 340 H 420 v 68.73585 h -91.64779 v 68.73583 c 0,38.07966 30.65619,68.73585 68.73584,68.73585 h 183.29558 c 38.07965,0 68.73584,-30.65619 68.73584,-68.73585 V 87.968587 c 0,-38.079661 -30.65619,-68.735847 -68.73584,-68.735847 z" />
    <rect
       style="fill:#de703f;fill-opacity:1;stroke:none;stroke-width:3.002;stroke-linejoin:round"
       id="rect890"
       width="880"
       height="120"
       x="-488.6557"
       y="612.57623"
       ry="60"
       transform="rotate(-49.520364)" />
  </g>
</svg>
