<?xml version="1.0" encoding="UTF-8" standalone="no"?>
<svg
   xmlns:dc="http://purl.org/dc/elements/1.1/"
   xmlns:cc="http://creativecommons.org/ns#"
   xmlns:rdf="http://www.w3.org/1999/02/22-rdf-syntax-ns#"
   xmlns:svg="http://www.w3.org/2000/svg"
   xmlns="http://www.w3.org/2000/svg"
   xmlns:sodipodi="http://sodipodi.sourceforge.net/DTD/sodipodi-0.dtd"
   xmlns:inkscape="http://www.inkscape.org/namespaces/inkscape"
   width="512"
   height="1024"
   viewBox="0 0 512 1024"
   version="1.1"
   id="SVGRoot"
   sodipodi:docname="playfight_load_svg_1.svg"
   inkscape:version="1.0.1 (3bc2e813f5, 2020-09-07)">
  <defs
     id="defs1448">
    <inkscape:path-effect
       effect="bspline"
       id="path-effect2041"
       is_visible="true"
       lpeversion="1"
       weight="33.333333"
       steps="2"
       helper_size="0"
       apply_no_weight="true"
       apply_with_weight="true"
       only_selected="false" />
  </defs>
  <sodipodi:namedview
     id="base"
     pagecolor="#ffffff"
     bordercolor="#666666"
     borderopacity="1.0"
     inkscape:pageopacity="0.0"
     inkscape:pageshadow="2"
     inkscape:zoom="0.35"
     inkscape:cx="40.773664"
     inkscape:cy="392.06096"
     inkscape:document-units="px"
     inkscape:current-layer="layer1"
     inkscape:document-rotation="0"
     showgrid="true"
     inkscape:window-width="1920"
     inkscape:window-height="1017"
     inkscape:window-x="-8"
     inkscape:window-y="-8"
     inkscape:window-maximized="1"
     inkscape:snap-grids="false"
     showguides="false">
    <inkscape:grid
       type="xygrid"
       id="grid2018" />
  </sodipodi:namedview>
  <metadata
     id="metadata1451">
    <rdf:RDF>
      <cc:Work
         rdf:about="">
        <dc:format>image/svg+xml</dc:format>
        <dc:type
           rdf:resource="http://purl.org/dc/dcmitype/StillImage" />
        <dc:title></dc:title>
      </cc:Work>
    </rdf:RDF>
  </metadata>
  <g
     inkscape:label="Layer 1"
     inkscape:groupmode="layer"
     id="layer1">
    <path
       style="fill:#00a2e8;fill-opacity:1;stroke:none;stroke-width:1px;stroke-linecap:butt;stroke-linejoin:miter;stroke-opacity:1"
       d="m 229.16736,995.00012 c -6.30903,2.38118 -10.59475,1.19069 -14.28564,-3.92801 -3.69089,-5.11871 -6.78607,-14.16614 -4.64344,-25.59527 2.14263,-11.42913 9.52344,-25.23838 11.66658,-36.30947 2.14315,-11.07109 -0.95203,-19.40426 -5.23767,-28.21388 -4.28565,-8.80963 -9.76173,-18.09516 -19.76172,-29.88111 C 186.90548,859.28642 172.38196,845.001 155.71521,833.57212 139.04846,822.14324 120.2393,813.57198 102.02479,802.50057 83.810278,791.42916 66.191589,777.858 52.976912,760.59607 39.762235,743.33413 30.952887,722.38217 27.143019,710.35799 c -3.809868,-12.02417 -2.619415,-15.11935 3.928325,-34.28634 6.54774,-19.167 18.452261,-54.40439 29.047613,-79.16661 10.595352,-24.76222 19.880879,-39.04764 29.881036,-52.38119 10.000157,-13.33355 20.714227,-25.71425 26.071397,-40.35681 5.35718,-14.64257 5.35718,-31.54699 5.35718,-46.07092 0,-14.52393 0,-26.66655 4.04761,-48.09558 4.04761,-21.42903 12.14269,-52.1427 15.47636,-69.16629 3.33367,-17.02358 1.90512,-20.35685 -1.428,-22.14315 -3.33313,-1.78629 -8.57112,-2.02439 -12.85726,-1.07209 -4.28614,0.9523 -7.61941,3.09512 -10.95286,5.59519 -3.33345,2.50008 -6.66672,5.35716 -10.1186,5.59565 -3.45188,0.23849 -7.023239,-2.14241 -9.880508,-4.52325 -2.85727,-2.38083 -5.000084,-4.76174 -5.952955,-8.57136 -0.952872,-3.80963 -0.71478,-9.04762 0.356604,-13.21465 1.071384,-4.16704 2.976103,-7.26221 3.80954,-11.90475 0.833438,-4.64254 0.595349,-10.83289 0.714283,-14.40465 0.118933,-3.57176 0.595113,-4.52412 2.976278,-6.66726 2.381168,-2.14315 6.666798,-5.47642 12.261928,-14.16677 5.59514,-8.69036 12.49977,-22.7377 14.6433,-30.35669 2.14354,-7.61899 -0.47546,-8.80944 -5.35663,-9.16689 -4.88116,-0.35744 -12.02387,0.11874 -17.85772,2.61881 -5.833843,2.50008 -10.357563,7.0238 -13.571314,9.16673 -3.213752,2.14292 -5.118472,1.90483 -6.428471,-0.59472 -1.31,-2.49956 -2.024272,-7.26136 -0.952652,-10.23824 1.071621,-2.97687 3.928709,-4.16732 5.476047,-6.30965 1.547338,-2.14232 1.785429,-5.23749 7.261879,-10.35715 5.476449,-5.11965 16.190521,-12.26237 22.261741,-17.97632 6.07123,-5.71395 7.49978,-9.99958 14.16712,-12.61897 6.66734,-2.6194 18.57186,-3.57176 29.51893,-8.97828 10.94707,-5.40652 20.93677,-15.26665 24.50844,-25.02816 3.57167,-9.7615 0.72449,-19.42459 -0.34222,-26.16123 -1.06672,-6.73664 -0.35244,-10.546089 1.79051,-14.356028 2.14295,-3.809938 5.71431,-7.619386 7.38106,-10.476011 1.66675,-2.856624 1.42866,-4.761348 1.90469,-6.785563 0.47604,-2.024215 1.66649,-4.167028 3.4529,-5.000412 1.78641,-0.833384 4.16732,-0.357202 5.71431,-0.595343 1.54699,-0.238141 2.26126,-1.190504 2.61846,-3.332973 0.3572,-2.14247 0.3572,-5.475737 1.90512,-7.738256 1.54792,-2.26252 4.6431,-3.452973 10.23816,-7.857723 5.59507,-4.40475 13.69015,-12.023648 18.57143,-16.07135 4.88128,-4.047702 6.54792,-4.523884 9.04815,-4.642796 2.50024,-0.118912 5.83351,0.119179 11.30974,0.238189 5.47623,0.119009 13.09513,0.119009 21.30953,4.167187 8.21439,4.048178 17.02373,12.143251 23.57124,19.643429 6.54751,7.500177 10.83313,14.404802 12.6184,19.523673 1.78526,5.118871 1.07099,8.452137 0.35672,12.976059 -0.71427,4.523923 -1.42853,10.238097 -4.88089,15.832928 -3.45236,5.59483 -9.64271,11.07092 -15.714,15.11849 -6.07128,4.04756 -12.02354,6.66656 -16.30954,9.40481 -4.286,2.73826 -6.90499,5.59534 -7.97636,10.35782 -1.07136,4.76249 -0.59518,11.42902 0.95297,15.83371 1.54815,4.4047 4.16715,6.54751 7.02432,8.9285 2.85717,2.38099 5.95234,4.99998 8.62886,9.48067 2.67652,4.48069 4.93483,10.82235 7.31597,16.06054 2.38114,5.23818 4.88459,9.37238 6.37411,16.7967 1.48952,7.42432 1.96569,18.13818 2.20377,23.49491 0.23808,5.35673 0.23808,5.35673 -6e-5,8.57154 -0.23813,3.21481 -0.71431,9.64325 -0.95238,12.85708 -0.23806,3.21382 4.76194,8.21382 4.40478,20.83361 -0.35717,12.61978 -1.07143,37.85737 -2.50009,52.14276 -1.42866,14.28539 -3.57148,17.61866 -4.40467,21.5477 -0.83319,3.92903 -0.357,8.45275 0.11917,14.16709 0.47617,5.71434 0.95235,12.61896 -0.59544,21.30931 -1.54779,8.69034 -5.11915,19.16632 -7.26194,30.23804 -2.14279,11.07172 -2.85706,22.73816 -4.64284,38.57164 -1.78577,15.83348 -4.64286,35.83308 -7.61909,55.35707 -2.97622,19.52399 -6.0714,38.57123 -6.666,48.80935 -0.59459,10.23812 1.31014,11.66667 4.64355,13.09501 3.33342,1.42835 8.09523,2.85689 11.90424,2.38045 3.809,-0.47643 6.66608,-2.85734 12.02316,-12.38106 5.35707,-9.52372 13.21405,-26.19005 21.07136,-38.80938 7.8573,-12.61932 15.71429,-21.19058 22.38161,-24.88094 6.66732,-3.69036 12.1434,-2.4999 14.99994,-4.28532 2.85654,-1.78541 3.09464,-6.54722 4.04698,-12.85692 0.95234,-6.30971 2.61897,-14.16669 4.04814,-18.09564 1.42916,-3.92895 2.61961,-3.92895 9.52445,-4.52424 6.90484,-0.5953 19.52363,-1.78575 29.76177,-2.97626 10.23814,-1.1905 18.09512,-2.38095 31.7859,-2.61896 13.69078,-0.238 33.2142,0.47626 43.09468,2.26253 9.88048,1.78626 10.11857,4.64335 9.64222,7.26208 -0.47635,2.61873 -1.6668,4.99964 -2.73824,7.73788 -1.07143,2.73824 -2.0238,5.83342 -8.33292,8.21401 -6.30912,2.38059 -17.97555,4.04722 -24.99986,6.42834 -7.02431,2.38112 -9.40522,5.4763 -10.47653,8.09584 -1.07131,2.61955 -0.83322,4.76236 -0.95241,6.90506 -0.11919,2.1427 -0.59537,4.28551 -6.54788,15.47599 -5.95251,11.19047 -17.38085,31.42816 -27.97618,49.52354 -10.59533,18.09537 -20.35704,34.04743 -27.26186,47.26195 -6.90482,13.21451 -10.95236,23.69049 -15.71432,36.07159 -4.76196,12.3811 -10.23804,26.66653 -17.14282,38.80926 -6.90478,12.14274 -15.23795,22.14254 -20.83325,29.28551 -5.5953,7.14296 -8.45239,11.42859 -12.14249,14.1665 -3.6901,2.7379 -8.21382,3.92835 -12.38044,4.76173 -4.16662,0.83337 -7.97607,1.30955 -12.97596,0.11938 -4.99989,-1.19017 -11.19024,-4.04726 -17.0237,-7.85665 -5.83345,-3.80939 -11.30953,-8.5712 -14.04816,-10.95261 -2.73863,-2.38142 -34.1672,-33.80999 -39.04779,-39.40481 -4.88058,-5.59482 -14.64229,-16.78507 -20.35674,-23.92789 -5.71445,-7.14283 -7.38108,-10.238 -10.47634,-11.19105 -3.09526,-0.95306 -7.61897,0.23739 -11.66688,2.14221 -4.04792,1.90481 -7.61927,4.5238 -13.21475,11.19074 -5.59547,6.66693 -13.21436,17.381 -19.76195,25.35714 -6.5476,7.97614 -12.02368,13.21413 -15.23806,18.33362 -3.21438,5.1195 -4.16675,10.1194 -4.04716,13.33385 0.11958,3.21445 1.31004,4.643 7.38173,7.73801 6.07169,3.095 17.02385,7.85681 26.66678,12.38071 9.64294,4.5239 17.97611,8.80953 26.07133,14.76217 8.09523,5.95264 15.95221,13.57154 28.09527,24.16687 12.14306,10.59532 28.57131,24.16648 38.57125,33.09519 9.99994,8.9287 13.57129,13.21433 17.85685,21.4288 4.28557,8.21448 9.28547,20.35709 12.7378,29.64286 3.45232,9.28577 5.35705,15.71421 9.28597,22.26183 3.92893,6.54761 9.88119,13.21415 12.38062,17.38047 2.49943,4.16631 1.54706,5.83295 -0.83393,10.47592 -2.381,4.64297 -6.19045,12.26187 -12.85716,22.02376 -6.66671,9.76188 -16.19033,21.6664 -22.73801,30.35699 -6.54769,8.69059 -10.11905,14.16667 -12.38099,18.09541 -2.26194,3.92873 -3.2143,6.30964 -7.85704,10.47604 -4.64274,4.1664 -12.9759,10.11867 -19.28493,12.49986 z"
       id="path2039"
       inkscape:path-effect="#path-effect2041"
       inkscape:original-d="m 227.14286,998.57146 c -4.28471,-1.1895 -8.57043,-2.37998 -12.85714,-3.57146 -3.0943,-9.0468 -6.18948,-18.09423 -9.28572,-27.14285 7.3821,-13.8088 14.76291,-27.61805 22.14286,-41.42857 -3.0943,-8.3325 -6.18948,-16.66567 -9.28571,-25 -5.4753,-9.2849 -10.95138,-18.57043 -16.42858,-27.85715 -14.5231,-14.285 -29.04661,-28.57043 -43.57142,-42.85714 C 139.04825,822.14369 120.2391,813.57243 101.42857,805 83.810167,791.4293 66.191477,777.85815 48.571427,764.28572 c -8.8087,-20.9518 -17.61805,-41.90376 -26.42857,-62.85714 1.1915,-3.0943 2.38195,-6.18948 3.57143,-9.28572 11.906,-35.2378 23.81052,-70.47519 35.71428,-105.71429 9.2869,-14.285 18.57243,-28.57042 27.85715,-42.85714 10.715503,-12.3802 21.429573,-24.7609 32.142853,-37.14286 0.001,-16.9041 0.001,-33.80852 0,-50.71428 0.001,-12.1421 0.001,-24.28472 0,-36.42857 8.0964,-30.7139 16.19148,-61.42757 24.28572,-92.14286 -1.4276,-3.3324 -2.85614,-6.66567 -4.28572,-10 -5.2372,-0.2371 -10.47519,-0.47519 -15.71428,-0.71429 -3.3324,2.1439 -6.66567,4.28672 -10,6.42858 -3.3324,2.8582 -6.66567,5.71528 -10,8.57142 -3.5705,-2.38 -7.141863,-4.7609 -10.714293,-7.14285 -2.1419,-2.38 -4.28471,-4.76091 -6.42857,-7.14286 0.2391,-5.2372 0.47719,-10.47519 0.71429,-15.71429 1.9058,-3.0943 3.81052,-6.18947 5.71428,-9.28571 -0.2371,-6.1896 -0.47519,-12.37995 -0.71428,-18.57143 0.4772,-0.9514 0.95338,-1.90376 1.42857,-2.85714 4.286803,-3.3324 8.572433,-6.66567 12.857143,-10 6.9059,-14.0469 13.81053,-28.09424 20.71429,-42.14286 -2.6181,-1.1895 -5.2371,-2.37995 -7.85715,-3.57143 -7.142,0.4772 -14.28471,0.95338 -21.428573,1.42857 -4.5229,4.5249 -9.04662,9.04862 -13.57143,13.57143 -1.9038,-0.2371 -3.80852,-0.47519 -5.71428,-0.71428 -0.7133,-4.761 -1.42757,-9.52281 -2.14286,-14.28572 2.8582,-1.1895 5.71529,-2.37995 8.57143,-3.57143 0.2391,-3.0943 0.47719,-6.18947 0.71429,-9.28571 10.7155,-7.142 21.429573,-14.28471 32.142853,-21.42857 1.4296,-4.2848 2.85815,-8.57043 4.28572,-12.85714 11.906,-0.9514 23.81052,-1.90377 35.71428,-2.85715 9.99129,-9.85972 19.98098,-19.71986 29.97027,-29.58158 -2.84629,-9.66248 -5.69347,-19.32557 -8.5417,-28.98985 0.7153,-3.8086 1.42958,-7.618043 2.14286,-11.42857 3.5725,-3.8086 7.14386,-7.618048 10.71429,-11.428571 -0.2371,-1.9038 -0.47519,-3.808524 -0.71429,-5.714286 1.1915,-2.1419 2.38195,-4.284714 3.57143,-6.428572 2.382,0.4772 4.76291,0.953381 7.14286,1.428572 0.7153,-0.9514 1.42957,-1.903762 2.14285,-2.857143 0.001,-3.3324 0.001,-6.665667 0,-10 3.0963,-1.1895 6.19148,-2.379952 9.28572,-3.571429 8.0964,-7.6182 16.19148,-15.237095 24.28571,-22.857143 1.6677,-0.4752 3.33434,-0.95138 5,-1.428571 3.3344,0.2391 6.66767,0.477191 10,0.714286 7.6202,10e-4 15.2391,10e-4 22.85715,0 8.8107,8.0964 17.62004,16.191476 26.42857,24.285714 4.2868,6.9059 8.57243,13.810524 12.85714,20.714286 -0.7133,3.3344 -1.42757,6.667666 -2.14286,10 -0.7133,5.7154 -1.42757,11.429574 -2.14285,17.142857 -6.1896,5.4773 -12.37996,10.95338 -18.57143,16.42857 -5.9515,2.6201 -11.90376,5.2391 -17.85715,7.85715 -2.6181,2.8582 -5.23709,5.71528 -7.85714,8.57143 0.4772,6.6678 0.95338,13.33433 1.42857,20 2.6201,2.1439 5.2391,4.28671 7.85715,6.42857 3.0963,2.6201 6.19147,5.23909 9.28571,7.85714 2.25945,6.34304 4.51776,12.6847 6.77521,19.02574 2.50455,4.13536 5.008,8.26956 7.5105,12.40283 0.4772,10.7155 0.95338,21.42936 1.42858,32.14286 0.001,0.001 0.001,0.001 0,0 -0.4752,6.4297 -0.95138,12.85814 -1.42858,19.28571 l 5,5 c -0.7133,25.2396 -1.42757,50.47719 -2.14285,75.71429 -2.1419,3.3344 -4.28472,6.66767 -6.42857,10 0.4772,4.5249 0.95338,9.04862 1.42857,13.57143 0.4772,6.9059 0.95338,13.81052 1.42857,20.71428 -3.5705,10.4774 -7.14186,20.95338 -10.71429,31.42857 -0.7133,11.6679 -1.42757,23.33434 -2.14285,35 -2.8562,20.0014 -5.71329,40.001 -8.57143,60 -3.0943,19.049 -6.18948,38.09624 -9.28572,57.14286 1.9058,1.4296 3.81053,2.85814 5.71429,4.28572 4.763,1.4296 9.52481,2.85814 14.28571,4.28571 2.8582,-2.38 5.71529,-4.7609 8.57143,-7.14286 7.8583,-16.666 15.71529,-33.33233 23.57143,-50 7.8583,-8.5706 15.71529,-17.14185 23.57143,-25.71428 5.4773,1.1915 10.95338,2.38195 16.42857,3.57143 0.2391,-4.761 0.47719,-9.52281 0.71429,-14.28572 1.6677,-7.8563 3.33433,-15.71328 5,-23.57143 1.1915,10e-4 2.38195,10e-4 3.57142,0 12.62031,-1.1895 25.2391,-2.37995 37.85715,-3.57143 7.8583,-1.1895 15.71528,-2.37995 23.57143,-3.57142 19.5252,0.7153 39.04862,1.42957 58.57143,2.14285 0.2391,2.8582 0.47719,5.71529 0.71428,8.57143 -1.1895,2.382 -2.37995,4.76291 -3.57143,7.14286 -0.9514,3.0963 -1.90376,6.19148 -2.85714,9.28571 -11.6659,1.6677 -23.33233,3.33434 -35,5 -2.38,3.0963 -4.76091,6.19148 -7.14286,9.28572 0.2391,2.1439 0.47719,4.28671 0.71429,6.42857 -0.4752,2.1439 -0.95138,4.28671 -1.42857,6.42857 -11.4278,20.2395 -22.85615,40.47719 -34.28572,60.71429 -9.7611,15.9537 -19.52281,31.90576 -29.28571,47.85714 -4.0467,10.4774 -8.09424,20.95338 -12.14286,31.42857 -5.4753,14.287 -10.95138,28.57243 -16.42857,42.85714 -8.3325,10.0012 -16.66567,20.001 -25,30 -2.8562,4.2868 -5.71329,8.57243 -8.57143,12.85715 -4.5229,1.1915 -9.04662,2.38195 -13.57143,3.57143 -3.8086,0.4772 -7.61805,0.95338 -11.42857,1.42857 -6.1896,-2.8562 -12.37995,-5.71329 -18.57143,-8.57143 -5.4753,-4.761 -10.95138,-9.52281 -16.42857,-14.28572 L 225.71429,678.57143 C 215.95319,667.38173 206.19148,656.19148 196.42857,645 c -1.6657,-3.0943 -3.33233,-6.18947 -5,-9.28571 -4.5229,1.1915 -9.04661,2.38195 -13.57142,3.57143 -3.5705,2.6201 -7.14186,5.23909 -10.71429,7.85714 -7.6182,10.7155 -15.23709,21.42957 -22.85714,32.14286 -5.4753,5.2392 -10.95138,10.47719 -16.42857,15.71428 -0.9514,5.0011 -1.90377,10.001 -2.85715,15 1.1915,1.4296 2.38196,2.85815 3.57143,4.28572 10.9536,4.763 21.90576,9.52481 32.85714,14.28571 8.3345,4.2868 16.66767,8.57243 25,12.85715 7.8583,7.6202 15.71529,15.23909 23.57143,22.85714 16.4299,13.5727 32.85815,27.14386 49.28572,40.71428 3.5725,4.2868 7.14385,8.57243 10.71428,12.85715 5.0011,12.1441 10.001,24.28671 15,36.42857 1.9058,6.4297 3.81053,12.85814 5.71429,19.28571 5.9535,6.6678 11.90576,13.33434 17.85714,20 -0.9514,1.6677 -1.90376,3.33434 -2.85714,5 -3.8086,7.6202 -7.61805,15.2391 -11.42857,22.85715 -9.523,11.906 -19.04662,23.81052 -28.57143,35.71428 -3.5705,5.4773 -7.14186,10.95338 -10.71429,16.42857 -0.9514,2.382 -1.90376,4.76291 -2.85714,7.14286 -8.3325,5.9535 -16.66567,11.90576 -25,17.85717 z"
       sodipodi:nodetypes="ccccccccccccccccccccccccccccccccccccccccccccccccccccccccccccccccccccccccccccccccccccccccccccccccccccccccccccccccccccccccccccccccc" />
  </g>
</svg>
