<?xml version="1.0" encoding="utf-8"?>
<!-- Generator: Adobe Illustrator 25.1.0, SVG Export Plug-In . SVG Version: 6.00 Build 0)  -->
<svg version="1.1" id="Layer_1" xmlns="http://www.w3.org/2000/svg" xmlns:xlink="http://www.w3.org/1999/xlink" x="0px" y="0px"
	 viewBox="0 0 40 40" style="enable-background:new 0 0 40 40;" xml:space="preserve">
<style type="text/css">
	.st0{fill-rule:evenodd;clip-rule:evenodd;fill:#191717;}
	.st1{fill:#191717;}
</style>
<g>
	<path class="st0" d="M20.1,0.6c-11,0-19.9,8.9-19.9,19.9c0,8.8,5.7,16.3,13.6,18.9c1,0.2,1.4-0.4,1.4-1c0-0.5,0-2,0-3.7
		c-5.5,1.2-6.7-2.3-6.7-2.3c-0.9-2.3-2.2-2.9-2.2-2.9c-1.8-1.2,0.1-1.2,0.1-1.2c2,0.1,3.1,2.1,3.1,2.1c1.8,3,4.7,2.2,5.8,1.7
		c0.2-1.3,0.7-2.2,1.3-2.7c-4.4-0.5-9.1-2.2-9.1-9.8c0-2.2,0.8-4,2.1-5.3c-0.2-0.5-0.9-2.5,0.2-5.3c0,0,1.7-0.5,5.5,2
		c1.6-0.4,3.3-0.7,5-0.7c1.7,0,3.4,0.2,5,0.7c3.8-2.6,5.5-2,5.5-2c1.1,2.7,0.4,4.8,0.2,5.3c1.3,1.4,2,3.2,2,5.3
		c0,7.6-4.7,9.3-9.1,9.8c0.7,0.6,1.4,1.8,1.4,3.7c0,2.7,0,4.8,0,5.5c0,0.5,0.4,1.2,1.4,1C34.3,36.7,40,29.3,40,20.5
		C40,9.5,31.1,0.6,20.1,0.6z"/>
	<path class="st1" d="M7.7,29.2c0,0.1-0.2,0.1-0.3,0.1c-0.1-0.1-0.2-0.2-0.2-0.3c0-0.1,0.2-0.1,0.3-0.1C7.7,28.9,7.8,29.1,7.7,29.2
		L7.7,29.2z M7.5,29"/>
	<path class="st1" d="M8.5,30.1c-0.1,0.1-0.3,0-0.4-0.1C8,29.8,8,29.7,8.1,29.6c0.1-0.1,0.3,0,0.4,0.1C8.6,29.8,8.6,30,8.5,30.1
		L8.5,30.1z M8.3,29.9"/>
	<path class="st1" d="M9.3,31.2c-0.1,0.1-0.3,0-0.4-0.2c-0.1-0.2-0.1-0.4,0-0.5c0.1-0.1,0.3,0,0.4,0.2C9.4,30.9,9.4,31.1,9.3,31.2
		L9.3,31.2z M9.3,31.2"/>
	<path class="st1" d="M10.4,32.3c-0.1,0.1-0.3,0.1-0.5-0.1c-0.2-0.2-0.2-0.4-0.1-0.5c0.1-0.1,0.3-0.1,0.5,0.1
		C10.4,32,10.5,32.2,10.4,32.3L10.4,32.3z M10.4,32.3"/>
	<path class="st1" d="M11.9,33c0,0.2-0.3,0.2-0.5,0.2c-0.2-0.1-0.4-0.3-0.3-0.4c0-0.2,0.3-0.2,0.5-0.2C11.8,32.6,11.9,32.8,11.9,33
		L11.9,33z M11.9,33"/>
	<path class="st1" d="M13.5,33.1c0,0.2-0.2,0.3-0.4,0.3c-0.2,0-0.4-0.1-0.4-0.3c0-0.2,0.2-0.3,0.4-0.3
		C13.3,32.8,13.5,32.9,13.5,33.1L13.5,33.1z M13.5,33.1"/>
	<path class="st1" d="M15,32.8c0,0.2-0.1,0.3-0.4,0.4c-0.2,0-0.4-0.1-0.5-0.2c0-0.2,0.1-0.3,0.4-0.4C14.8,32.6,15,32.7,15,32.8
		L15,32.8z M15,32.8"/>
</g>
</svg>
