<?xml version="1.0" encoding="UTF-8" standalone="no"?>
<svg
   xmlns:dc="http://purl.org/dc/elements/1.1/"
   xmlns:cc="http://creativecommons.org/ns#"
   xmlns:rdf="http://www.w3.org/1999/02/22-rdf-syntax-ns#"
   xmlns:svg="http://www.w3.org/2000/svg"
   xmlns="http://www.w3.org/2000/svg"
   xmlns:sodipodi="http://sodipodi.sourceforge.net/DTD/sodipodi-0.dtd"
   xmlns:inkscape="http://www.inkscape.org/namespaces/inkscape"
   width="800"
   height="1024"
   viewBox="0 0 800 1024"
   version="1.1"
   id="SVGRoot"
   sodipodi:docname="pf team 1.svg"
   inkscape:version="1.0.1 (3bc2e813f5, 2020-09-07)">
  <defs
     id="defs1473">
    <inkscape:path-effect
       effect="bspline"
       id="path-effect2088"
       is_visible="true"
       lpeversion="1"
       weight="33.333333"
       steps="2"
       helper_size="0"
       apply_no_weight="true"
       apply_with_weight="true"
       only_selected="false" />
    <inkscape:path-effect
       effect="bspline"
       id="path-effect1523"
       is_visible="true"
       lpeversion="1"
       weight="33.333333"
       steps="2"
       helper_size="0"
       apply_no_weight="true"
       apply_with_weight="true"
       only_selected="false" />
    <inkscape:path-effect
       effect="bspline"
       id="path-effect1519"
       is_visible="true"
       lpeversion="1"
       weight="33.333333"
       steps="2"
       helper_size="0"
       apply_no_weight="true"
       apply_with_weight="true"
       only_selected="false" />
  </defs>
  <sodipodi:namedview
     id="base"
     pagecolor="#ffffff"
     bordercolor="#666666"
     borderopacity="1.0"
     inkscape:pageopacity="0.0"
     inkscape:pageshadow="2"
     inkscape:zoom="0.7"
     inkscape:cx="224.55086"
     inkscape:cy="508.17881"
     inkscape:document-units="px"
     inkscape:current-layer="layer1"
     inkscape:document-rotation="0"
     showgrid="true"
     inkscape:window-width="1920"
     inkscape:window-height="1017"
     inkscape:window-x="-8"
     inkscape:window-y="-8"
     inkscape:window-maximized="1"
     inkscape:snap-grids="false">
    <inkscape:grid
       type="xygrid"
       id="grid1482" />
  </sodipodi:namedview>
  <metadata
     id="metadata1476">
    <rdf:RDF>
      <cc:Work
         rdf:about="">
        <dc:format>image/svg+xml</dc:format>
        <dc:type
           rdf:resource="http://purl.org/dc/dcmitype/StillImage" />
        <dc:title></dc:title>
      </cc:Work>
    </rdf:RDF>
  </metadata>
  <g
     inkscape:label="Layer 1"
     inkscape:groupmode="layer"
     id="layer1">
    <path
       id="path1521"
       style="fill:#e8ae66;fill-opacity:1;stroke:none;stroke-width:1px;stroke-linecap:butt;stroke-linejoin:miter;stroke-opacity:1"
       d="m 513.65069,405.64804 c 0,0 0,0 3.1153,1.51555 3.1153,1.51555 9.34445,4.54595 17.34159,8.08148 7.99715,3.53553 17.76176,7.57606 28.20011,11.36411 10.43835,3.78805 21.54981,7.32351 31.31469,11.53268 9.76488,4.20917 18.18265,9.09148 26.09559,13.38462 7.91295,4.29314 15.32059,7.99696 19.10818,10.27009 3.78759,2.27313 3.95594,3.1149 8.92301,3.53523 4.96706,0.42032 14.73168,0.42032 21.5501,-0.0849 6.8184,-0.50517 10.6906,-1.51532 15.1524,-0.67308 4.4618,0.84224 9.5125,3.53594 14.9,6.81903 5.3875,3.28309 11.1116,7.15527 15.3203,11.61704 4.2087,4.46177 6.9024,9.51244 8.0805,12.87941 1.1781,3.36697 0.8414,5.05053 1.6837,7.66032 0.8422,2.6098 2.8625,6.14528 3.5355,9.34388 0.673,3.19861 -4e-4,6.06067 -1.7677,7.49136 -1.7672,1.43068 -4.6292,1.43068 -5.8081,2.94651 -1.1789,1.51583 -0.6739,4.54624 -1.5155,6.39752 -0.8416,1.85128 -3.0302,2.52469 -4.63,4.62963 -1.5998,2.10495 -2.61,5.64044 -4.1246,7.2396 -1.5146,1.59916 -3.5348,1.26246 -4.4613,-0.50496 -0.9266,-1.76742 -0.7583,-4.96618 -2.1047,-8.3333 -1.3464,-3.36712 -4.2085,-6.90262 -7.8281,-9.09172 -3.6196,-2.18911 -7.9969,-3.03089 -14.1422,-3.19938 -6.1453,-0.16849 -14.058,0.33658 -20.20304,0.50498 -6.14506,0.16841 -10.5223,5e-5 -15.65775,2.18868 -5.13545,2.18864 -11.02789,6.73423 -16.16248,9.17546 -5.1346,2.44122 -9.51184,2.77793 -13.88911,2.60969 -4.37726,-0.16824 -8.7545,-0.84166 -14.22619,-2.69345 -5.47169,-1.85179 -12.03755,-4.88219 -19.9505,-8.41777 -7.91295,-3.53559 -17.1725,-7.57612 -27.02159,-12.03766 -9.8491,-4.46154 -20.28714,-9.34385 -30.13622,-13.72124 -9.84907,-4.37739 -19.10861,-8.24956 -28.1159,-12.29018 -9.00729,-4.04062 -17.76177,-8.2495 -24.6646,-12.62669 -6.90284,-4.3772 -11.9535,-8.92279 -16.2468,-13.63679 -4.2933,-4.714 -7.82876,-9.59631 -10.77527,-15.4889 -2.9465,-5.89259 -5.30348,-12.79516 -7.32409,-12.45859 -2.02061,0.33656 -3.70416,7.91255 -5.80865,13.46815 -2.1045,5.5556 -4.62983,9.09106 -7.74454,15.57313 -3.11471,6.48208 -6.81853,15.90999 -10.43824,23.06511 -3.61971,7.15512 -7.15517,12.03742 -9.84896,17.76193 -2.69379,5.7245 -4.5457,12.29036 -6.98694,18.68793 -2.44124,6.39757 -5.47163,12.62672 -8.24958,19.61379 -2.77794,6.98706 -5.30327,14.73141 -7.7445,21.97089 -2.44122,7.23948 -4.7982,13.97369 -8.16542,21.80238 -3.36722,7.82869 -7.74445,16.75152 -10.69075,22.98087 -2.9463,6.22934 -4.4615,9.76481 -3.70354,15.82617 0.75796,6.06136 3.78836,14.64749 9.59709,23.57051 5.80873,8.92302 14.39486,18.18257 22.9813,26.43216 8.58644,8.24958 17.17257,15.48887 22.13904,20.03468 4.96646,4.54582 6.3133,6.39773 6.14458,7.99653 -0.16873,1.59881 -1.85228,2.94565 -3.36758,4.29259 -1.51531,1.34693 -2.86215,2.69377 -0.84148,8.50285 2.02067,5.80908 7.40805,16.07876 12.03784,26.85383 4.6298,10.77508 8.50198,22.05489 11.95327,35.10282 3.4513,13.04792 6.4817,27.86321 9.84892,43.43656 3.36723,15.57335 7.07105,31.90383 10.10157,44.10993 3.03052,12.2061 5.3875,20.28716 5.38723,31.48297 -2.6e-4,11.19581 -2.35723,25.50602 -6.14539,37.88029 -3.78816,12.37426 -9.00718,22.8123 -13.55291,33.08235 -4.54572,10.27006 -8.41789,20.37138 -16.24663,32.24058 -7.82873,11.8693 -19.61363,25.5061 -45.03569,33.8398 -25.42206,8.3337 -64.48052,11.3641 -87.62977,10.7752 -23.14926,-0.589 -30.38854,-4.7978 -33.84029,-6.987 -3.45174,-2.1891 -3.11505,-2.3574 0.84116,-10.186 3.95621,-7.8285 11.5322,-23.3173 18.35079,-37.71203 6.81859,-14.39479 12.87938,-27.69487 25.25405,-43.43683 12.37466,-15.74196 31.06211,-33.92434 40.4901,-43.18386 9.42798,-9.25953 9.59634,-9.59624 4.63011,-18.01396 -4.96622,-8.41772 -15.06755,-24.91654 -25.33754,-41.66841 -10.26998,-16.75187 -20.70802,-33.75576 -29.54685,-46.88787 -8.83883,-13.13211 -16.07812,-22.39165 -23.82258,-30.30469 -7.74447,-7.91305 -15.99389,-14.47891 -20.11923,-16.92004 -4.12534,-2.44112 -4.12534,-0.75756 -7.57686,10.85922 -3.45152,11.61678 -10.35409,33.16627 -15.32071,48.23444 -4.96661,15.06818 -7.99701,23.6543 -12.62694,37.03901 -4.62993,13.38471 -10.85908,31.56709 -15.23643,44.78336 -4.37734,13.21626 -6.90267,21.46567 -18.94054,45.28869 -12.03786,23.82302 -33.58735,63.21818 -48.65538,86.11487 -15.06803,22.8966 -23.65415,29.2942 -44.446303,30.136 -20.79215,0.8419 -53.78981,-3.872 -71.21509,-7.3229 -17.42527003,-3.451 -19.27717,-5.6396 -17.50987003,-11.7852 1.76730003,-6.1455 7.15466003,-16.2468 11.61619003,-25.17 4.46153,-8.923 7.99699,-16.66735 11.3642,-25.67455 3.36722,-9.00721 6.56597,-19.27689 9.93317,-29.21019 3.36721,-9.9333 6.90267,-19.52955 9.68061,-27.2741 2.77794,-7.74455 4.79821,-13.63699 10.52251,-24.15972 5.72431,-10.52273 15.15222,-25.67472 20.03462,-33.83993 4.88239,-8.16522 5.2191,-9.34371 5.38756,-16.5831 0.16845,-7.23939 0.16845,-20.53946 1.26274,-34.34511 1.09429,-13.80565 3.28291,-28.11585 5.30323,-40.49034 2.02031,-12.37449 3.87222,-22.81252 6.39762,-34.51363 2.52539,-11.70111 5.72415,-24.66448 4.5462,-31.31497 -1.17795,-6.6505 -6.73368,-6.98721 -10.43756,-7.82864 -3.70387,-0.84142 -5.55578,-2.18827 -4.54625,-8.92284 1.00952,-6.73458 4.8817,-18.85616 8.86365,-28.46069 3.98195,-9.60452 8.07341,-16.69115 8.41073,-20.39515 0.33731,-3.70401 -3.08074,-4.02502 -6.49993,-4.34613 m 0,4e-5 c -3.87115,-3.02959 -7.7434,-6.06005 -11.44737,-9.25885 -3.70397,-3.19879 -7.23942,-6.5659 -9.76516,-7.82916 -2.52574,-1.26327 -4.04094,-0.42149 -7.49192,-1.01045 -3.45097,-0.58895 -8.83835,-2.60922 -13.88925,-5.89199 -5.0509,-3.28278 -9.76486,-7.82837 -13.63728,-12.54237 -3.87243,-4.714 -6.90283,-9.59631 -7.74506,-14.81572 -0.84222,-5.2194 0.50462,-10.77512 3.87184,-18.01485 3.36723,-7.23973 8.75461,-16.16257 13.13197,-23.31788 4.37736,-7.15531 7.74447,-12.54268 10.35406,-20.11867 2.60959,-7.57599 4.4615,-17.3406 7.23943,-26.26386 2.77793,-8.92326 6.48174,-17.00432 10.18567,-25.00145 3.70393,-7.99712 7.40775,-15.90982 11.86933,-24.07539 4.46158,-8.16557 9.68059,-16.58333 12.96359,-22.72831 3.282993,-6.14499 4.629843,-10.01716 8.502173,-17.00431 3.87233,-6.98715 10.26983,-17.08847 17.93023,-35.35549 7.66039,-18.26703 16.58323,-44.69882 24.07526,-63.89194 7.49202,-19.19312 13.55282,-31.14636 19.1087,-43.26825 5.55589,-12.1219 10.60655,-24.41185 17.59378,-33.1669 6.98724,-8.75504 15.91008,-13.97406 26.51704,-17.76214 10.60696,-3.78808 22.8969,-6.14506 32.82996,-9.17558 9.93306,-3.03052 17.50905,-6.73434 21.46578,-8.41732 3.95673,-1.68298 4.29344,-1.34627 4.29307,-1.93546 -3.8e-4,-0.58919 -0.33709,-2.10439 1.51474,-5.13544 1.85183,-3.03106 5.89235,-7.57665 7.99687,-9.93371 2.10452,-2.35705 2.27287,-2.52541 4.20961,-2.27276 1.93673,0.25265 5.64055,0.92607 8.58619,-0.58915 2.94564,-1.51522 5.13426,-5.21904 7.15512,-7.15536 2.02086,-1.93631 3.87277,-2.10467 5.47165,-4.3772 1.59887,-2.27253 2.94571,-6.64977 3.03026,-10.10086 0.0846,-3.4511 -1.09394,-5.97643 -2.77747,-9.00694 -1.68353,-3.03051 -3.87215,-6.56597 -5.64007,-10.1857 -1.76793,-3.61973 -3.11477,-7.32356 -4.79816,-10.43827 -1.68339,-3.11472 -3.70365,-5.64005 -6.22917,-9.59649 -2.52551,-3.95644 -5.55591,-9.34382 -7.91297,-13.63699 -2.35706,-4.293179 -4.04061,-7.491929 -3.28338,-13.46907 0.75723,-5.977141 3.95598,-14.731623 7.82834,-21.802979 3.87236,-7.071356 8.41795,-12.458725 13.3847,-17.257092 4.96674,-4.798366 10.35412,-9.00725 14.81567,-12.458637 4.46155,-3.451388 7.99701,-6.145072 14.98431,-8.586318 6.9873,-2.441246 17.42533,-4.629865 28.87407,-3.030063 11.44875,1.599803 23.90705,6.987175 33.33515,12.206521 9.4281,5.219346 15.8256,10.270005 21.12881,15.657672 5.30321,5.387667 9.51209,11.111749 12.37391,17.50947 2.86183,6.397722 4.37703,13.468649 5.72411,18.098552 1.34707,4.629902 2.52556,6.818524 5.21962,8.5859 2.69407,1.767374 6.90295,3.114214 9.09104,5.387424 2.1881,2.27321 2.35646,5.47197 0.84106,11.28018 -1.51539,5.8082 -4.71414,14.22597 -7.66003,18.85548 -2.94589,4.62951 -5.63957,5.47128 -6.31308,7.66068 -0.67351,2.18939 0.67334,5.72487 0.84136,9.09178 0.16802,3.36691 -0.84211,6.56566 -2.18864,8.50138 -1.34653,1.93572 -3.03009,2.60914 -3.87214,5.38772 -0.84205,2.77857 -0.84205,7.66087 -1.09464,12.29072 -0.2526,4.62984 -0.75766,9.00708 -0.42054,12.20608 0.33712,3.19899 1.51561,5.21925 1.01012,7.57577 -0.50549,2.35651 -2.69411,5.0502 -5.72424,6.98619 -3.03013,1.93598 -6.9023,3.11446 -12.45798,3.19881 -5.55567,0.0843 -12.79495,-0.92579 -15.99415,0.0849 -3.1992,1.0107 -2.35742,4.04109 -1.76827,7.07154 0.58916,3.03044 0.92587,6.06084 3.95692,8.5017 3.03105,2.44087 8.75513,4.29278 16.07883,7.23918 7.3237,2.9464 16.24654,6.98693 22.98093,10.1858 6.73439,3.19888 11.27999,5.55585 14.73123,8.08148 3.45124,2.52563 5.80821,5.21932 8.08085,9.34424 2.27264,4.12492 4.46126,9.68064 7.07077,18.18286 2.60951,8.50222 5.63991,19.95038 11.02755,35.52378 5.38764,15.57339 13.13199,35.27097 20.20318,51.51772 7.0712,16.24674 13.4687,29.04175 19.86573,41.83582" />
    <path
       style="fill:none;stroke:#000000;stroke-width:1px;stroke-linecap:butt;stroke-linejoin:miter;stroke-opacity:1"
       d="m 425.27422,630.33519 c 0,0 0,0 0,0 0,0 0,0 0,0 z"
       id="path2086"
       inkscape:path-effect="#path-effect2088"
       inkscape:original-d="m 425.27422,630.33519 c 10e-4,10e-4 10e-4,10e-4 0,0 0,0 10e-4,10e-4 0,0 z" />
  </g>
</svg>
