<?xml version="1.0" encoding="UTF-8" standalone="no"?>
<svg
   xmlns:dc="http://purl.org/dc/elements/1.1/"
   xmlns:cc="http://creativecommons.org/ns#"
   xmlns:rdf="http://www.w3.org/1999/02/22-rdf-syntax-ns#"
   xmlns:svg="http://www.w3.org/2000/svg"
   xmlns="http://www.w3.org/2000/svg"
   xmlns:sodipodi="http://sodipodi.sourceforge.net/DTD/sodipodi-0.dtd"
   xmlns:inkscape="http://www.inkscape.org/namespaces/inkscape"
   width="800"
   height="1024"
   viewBox="0 0 800 1024"
   version="1.1"
   id="SVGRoot"
   sodipodi:docname="team_2.svg"
   inkscape:version="1.0.1 (3bc2e813f5, 2020-09-07)">
  <defs
     id="defs10">
    <inkscape:path-effect
       effect="bspline"
       id="path-effect1469"
       is_visible="true"
       lpeversion="1"
       weight="33.333333"
       steps="2"
       helper_size="0"
       apply_no_weight="true"
       apply_with_weight="true"
       only_selected="false" />
    <inkscape:path-effect
       effect="bspline"
       id="path-effect1465"
       is_visible="true"
       lpeversion="1"
       weight="33.333333"
       steps="2"
       helper_size="0"
       apply_no_weight="true"
       apply_with_weight="true"
       only_selected="false" />
    <inkscape:path-effect
       effect="bspline"
       id="path-effect1461"
       is_visible="true"
       lpeversion="1"
       weight="33.333333"
       steps="2"
       helper_size="0"
       apply_no_weight="true"
       apply_with_weight="true"
       only_selected="false" />
    <inkscape:path-effect
       effect="bspline"
       id="path-effect56"
       is_visible="true"
       lpeversion="1"
       weight="33.333333"
       steps="2"
       helper_size="0"
       apply_no_weight="true"
       apply_with_weight="true"
       only_selected="false" />
  </defs>
  <sodipodi:namedview
     id="base"
     pagecolor="#ffffff"
     bordercolor="#666666"
     borderopacity="1.0"
     inkscape:pageopacity="0.0"
     inkscape:pageshadow="2"
     inkscape:zoom="0.7"
     inkscape:cx="334.78374"
     inkscape:cy="474.99639"
     inkscape:document-units="px"
     inkscape:current-layer="layer2"
     inkscape:document-rotation="0"
     showgrid="true"
     inkscape:window-width="1920"
     inkscape:window-height="1017"
     inkscape:window-x="-8"
     inkscape:window-y="-8"
     inkscape:window-maximized="1"
     inkscape:snap-grids="false">
    <inkscape:grid
       type="xygrid"
       id="grid19" />
  </sodipodi:namedview>
  <metadata
     id="metadata13">
    <rdf:RDF>
      <cc:Work
         rdf:about="">
        <dc:format>image/svg+xml</dc:format>
        <dc:type
           rdf:resource="http://purl.org/dc/dcmitype/StillImage" />
        <dc:title></dc:title>
      </cc:Work>
    </rdf:RDF>
  </metadata>
  <g
     inkscape:label="Layer 1"
     inkscape:groupmode="layer"
     id="layer1">
    <path
       style="fill:#00a3e8;fill-opacity:1;stroke:none;stroke-width:1px;stroke-linecap:butt;stroke-linejoin:miter;stroke-opacity:1"
       d="m 194.78579,502.07124 c -14.43677,1.68359 -32.67556,3.81612 -61.49312,-4.54532 C 104.4751,489.16448 65.07915,470.3083 45.464656,460.71175 25.850162,451.11521 26.01852,450.7785 26.018631,447.66412 c 1.12e-4,-3.11438 -0.168245,-9.00682 0.08449,-12.12207 0.252731,-3.11526 0.926151,-3.45197 1.010427,-4.12471 0.08428,-0.67275 -0.420792,-1.68288 -0.673629,-3.70332 -0.252838,-2.02043 -0.252838,-5.05083 -0.168658,-6.65074 0.08418,-1.59991 0.25253,-1.76826 30.305596,-5.80901 30.053067,-4.04074 89.987577,-11.95345 120.123577,-15.99411 30.136,-4.04065 30.47271,-4.20901 39.05956,1.01069 8.58684,5.2197 25.42238,15.82609 33.83974,21.04534 8.41735,5.21925 8.41735,5.05089 10.69041,3.7034 2.27306,-1.34748 6.81865,-3.87281 15.48957,-5.30379 8.67092,-1.43097 21.46593,-1.76768 27.94716,-2.18827 6.48123,-0.42059 6.64958,-0.92565 6.73386,-2.69325 0.0843,-1.7676 0.0843,-4.798 1.09486,-6.48216 1.01058,-1.68415 3.03084,-2.02086 13.89022,-3.11519 10.85939,-1.09433 30.55697,-2.94623 50.59174,-6.81859 20.03478,-3.87237 40.40578,-9.7648 54.21122,-14.05799 13.80543,-4.29318 21.04472,-6.98687 27.77936,-8.33363 6.73463,-1.34677 12.96378,-1.34677 16.96182,-2.23068 3.99804,-0.8839 5.76577,-2.65163 14.77307,-14.01599 9.0073,-11.36435 25.25359,-32.3246 36.74414,-47.26652 11.49055,-14.94192 18.22477,-23.86475 23.69643,-33.12442 5.47165,-9.25967 9.68054,-18.85593 13.63704,-26.26391 3.9565,-7.40798 7.66032,-12.62699 13.38465,-19.27733 5.72434,-6.65034 13.46869,-14.7314 19.6143,-18.94042 6.14561,-4.20901 10.6912,-4.54572 14.47883,-6.31347 3.78763,-1.76775 6.81802,-4.9665 9.6803,-7.40782 2.86228,-2.44132 5.55596,-4.12487 6.98687,-5.05076 1.43092,-0.92589 1.59928,-1.09425 1.59931,-2.44061 4e-5,-1.34637 -0.16832,-3.8717 -1.34633,-5.9763 -1.17802,-2.10461 -3.36664,-3.78816 -5.21889,-6.3134 -1.85224,-2.52524 -3.36744,-5.89234 -3.70451,-8.92312 -0.33708,-3.03077 0.5047,-5.72446 1.43068,-8.83912 0.92599,-3.11465 1.93612,-6.65012 2.77792,-9.51225 0.8418,-2.86214 1.51522,-5.05076 2.9463,-8.0814 1.43107,-3.03065 3.61969,-6.90283 5.13497,-12.45847 1.51528,-5.55564 2.35705,-12.79492 2.61014,-16.41507 0.25309,-3.62015 -0.0836,-3.62015 1.43105,-6.39798 1.51468,-2.77783 4.88179,-8.33357 6.64962,-13.215679 1.76784,-4.882109 1.93619,-9.090993 2.35702,-11.785062 0.42084,-2.69407 1.09426,-3.872556 4.71408,-8.586783 3.61982,-4.714228 10.18568,-12.963642 15.4049,-18.940489 5.21922,-5.976847 9.09139,-9.680665 12.0376,-13.131909 2.9462,-3.451245 4.96647,-6.649994 5.89257,-9.174986 0.92611,-2.524991 0.75775,-4.3769 4.04121,-5.640184 3.28346,-1.263283 10.01767,-1.936704 16.4155,-1.599799 6.39783,0.336905 12.45862,1.683747 17.50945,3.283321 5.05083,1.599574 9.09136,3.451483 14.64727,5.724307 5.55591,2.272824 12.62684,4.966512 18.01426,8.081443 5.38742,3.11493 9.09124,6.650394 12.79511,10.606914 3.70386,3.95652 7.4077,8.333806 10.26966,12.542863 2.86196,4.209057 4.88225,8.249589 5.21857,13.131803 0.33631,4.882214 -1.01056,10.606304 -3.87273,18.1824 -2.86217,7.5761 -7.23939,17.004 -11.36414,23.90657 -4.12474,6.90257 -7.99692,11.27981 -9.68037,14.90008 -1.68345,3.62028 -1.17839,6.48233 -2.02034,9.17556 -0.84195,2.69324 -3.03057,5.21856 -6.65023,8.41732 -3.61965,3.19877 -8.67031,7.07094 -13.80519,10.35392 -5.13488,3.28298 -10.3539,5.97666 -14.39473,8.75471 -4.04082,2.77805 -6.90287,5.64009 -6.31297,8.08162 0.5899,2.44152 4.63043,4.46178 7.2397,6.65077 2.60927,2.18899 3.78776,4.54596 4.29303,5.64019 0.50528,1.09423 0.33692,0.92588 1.51549,0.92541 1.17857,-4.6e-4 3.7039,0.16789 5.30283,4.04073 1.59893,3.87283 2.27235,11.44882 2.27225,15.65732 -1.1e-4,4.2085 -0.67352,5.05028 -0.42053,6.31349 0.253,1.26322 1.43149,2.94677 8.41864,9.3444 6.98715,6.39764 19.78217,17.50909 27.69488,25.67468 7.9127,8.16558 10.94308,13.38462 13.21566,21.55009 2.27258,8.16547 3.78778,19.27692 1.93563,29.29395 -1.85216,10.01704 -7.07115,18.93987 -10.10158,26.34799 -3.03043,7.40811 -3.87221,13.30054 -5.72423,20.79249 -1.85202,7.49195 -4.71407,16.58314 -9.84907,26.51621 -5.13499,9.93306 -12.54263,20.70781 -17.25643,26.60017 -4.71379,5.89236 -6.73405,6.90249 -9.76486,11.95367 -3.0308,5.05119 -7.07133,14.14238 -12.87973,23.48622 -5.80839,9.34384 -13.38439,18.9401 -18.68777,26.85317 -5.30338,7.91307 -8.33378,14.14221 -10.60658,24.41247 -2.2728,10.27026 -3.788,24.58047 -5.72416,42.08999 -1.93615,17.50951 -4.29313,38.21722 -6.3135,50.92821 -2.02037,12.71098 -3.70393,17.42493 -4.46143,24.32795 -0.7575,6.90303 -0.58914,15.99422 -0.33601,20.62387 0.25313,4.62966 0.58984,4.79802 2.02091,5.55567 1.43107,0.75764 3.9564,2.10449 5.97623,7.07141 2.01982,4.96692 3.53502,13.55304 4.20829,18.35111 0.67326,4.79807 0.5049,5.8082 -2.3571,8.33315 -2.862,2.52496 -8.41771,6.56548 -11.36415,9.59643 -2.94644,3.03095 -3.28315,5.05121 -2.77781,8.16608 0.50535,3.11488 1.8522,7.32377 2.35707,17.34116 0.50487,10.0174 0.16816,25.8428 0.84165,49.49755 0.67349,23.65476 2.35705,55.13722 3.28303,72.05731 0.92599,16.92009 1.09434,19.27706 3.70411,28.03193 2.60978,8.75488 7.66044,23.90686 11.02753,36.2813 3.36709,12.37443 5.05064,21.97069 9.76489,37.2074 4.71424,15.23671 12.45859,36.11278 18.51951,53.7906 6.06092,17.67784 10.43814,32.15634 12.54244,39.47934 2.1043,7.3231 1.93598,7.4914 -18.51952,7.4914 -20.45551,0 -61.19751,-0.1683 -81.73761,-0.8412 -20.5401,-0.6728 -20.87681,-1.8513 -23.23389,-10.1853 -2.35708,-8.3339 -6.7343,-23.82255 -10.69076,-37.45974 -3.95646,-13.63719 -7.49192,-25.42207 -12.03756,-37.37565 -4.54565,-11.95359 -10.10137,-24.07518 -13.46875,-34.26101 -3.36739,-10.18583 -4.54588,-18.43524 -6.73454,-30.6414 -2.18866,-12.20616 -5.38742,-28.36827 -9.42803,-45.54103 -4.04061,-17.17276 -8.92292,-35.35515 -11.36428,-44.36243 -2.44136,-9.00728 -2.44136,-8.83892 -7.32395,-0.2528 -4.8826,8.58613 -14.64721,25.59002 -21.88663,36.87 -7.23942,11.27998 -11.95337,16.8357 -14.14179,20.11926 -2.18843,3.28356 -1.85172,4.2937 2.77833,14.0587 4.63005,9.76499 13.55288,28.28408 24.58042,57.83144 11.02753,29.54737 24.15926,70.12101 30.64086,90.49186 6.48161,20.3708 6.31324,20.5392 -12.62699,20.7075 -18.94022,0.1684 -56.65182,0.3367 -75.67637,0.4209 -19.02454,0.084 -19.36125,0.084 -20.70845,-3.535 -1.34721,-3.6192 -3.70419,-10.8585 -4.37789,-16.4146 -0.67371,-5.5561 0.33643,-9.4283 -2.02026,-16.92013 -2.35668,-7.49183 -8.08076,-18.60328 -15.99377,-36.11283 -7.91302,-17.50954 -18.01434,-41.41601 -23.5704,-58.92549 -5.55605,-17.50949 -6.56619,-28.62095 -6.90299,-36.02886 -0.33681,-7.40791 -9e-5,-11.11173 3.19873,-23.99151 3.19883,-12.87977 9.25962,-34.93434 15.65732,-57.15793 6.39769,-22.2236 13.13191,-44.61487 17.93017,-62.12426 4.79827,-17.50939 7.66031,-30.13603 10.94333,-40.06945 3.28302,-9.93341 6.98684,-17.17269 8.50266,-21.12883 1.51582,-3.95613 0.8424,-4.62955 -1.1358,-6.27114 -1.9782,-1.64159 -5.26113,-4.2511 -5.9352,-7.66062 -0.67406,-3.40951 1.26202,-7.6184 5.3027,-15.48933 4.04068,-7.87093 10.18565,-19.40327 15.11017,-30.05197 4.92453,-10.6487 8.62834,-20.41331 11.40628,-27.98949 2.77794,-7.57617 4.62985,-12.96355 6.73439,-21.76032 2.10453,-8.79677 4.46151,-21.00253 5.8505,-29.29419 1.389,-8.29165 1.80989,-12.6689 2.39909,-15.74167 0.5892,-3.07277 1.3468,-4.8405 3.5776,-9.76509 2.23079,-4.92459 5.9346,-13.00565 8.37585,-20.24497 2.44124,-7.23932 3.61973,-13.63682 5.21913,-19.86625 1.5994,-6.22943 3.61967,-12.29023 4.25165,-15.36302 0.63199,-3.07278 -0.12561,-3.15696 -5.3029,-2.2311 -5.17729,0.92585 -14.77355,2.86194 -31.52543,5.13484 -16.75188,2.2729 -40.65835,4.8824 -61.02993,7.15526 -20.37158,2.27286 -37.20712,4.20895 -50.88637,5.76628 -13.67925,1.55734 -24.20146,2.73582 -29.63118,2.989 -5.42971,0.25318 -5.76642,-0.42024 -7.2395,-2.73524 -1.47309,-2.31499 -4.0826,-6.27134 -6.73449,-7.4926 -2.65189,-1.22126 -5.34558,0.29394 -8.16524,0.92543 -2.81967,0.63148 -5.76589,0.37894 -7.28168,0.96864 -1.5158,0.58969 -1.59998,2.02071 -2.06274,2.94612 -0.46277,0.92541 -1.30455,1.3463 -0.67279,2.14644 0.63176,0.80015 2.73621,1.97864 3.91462,2.69434 1.17842,0.71569 1.43096,0.96823 1.55672,5.97699 0.12577,5.00877 0.12577,14.77339 -0.12647,19.73937 -0.25224,4.96599 -0.75731,5.13434 -13.84732,6.69174 -13.09002,1.5574 -38.76421,4.50362 -56.91886,6.59407 -18.15465,2.09045 -28.78881,3.32502 -43.22557,5.00861 z"
       id="path1463"
       inkscape:original-d="m 198.58731,501.62235 c -18.23816,2.13358 -36.47695,4.26611 -54.71747,6.39773 C 104.4749,489.1649 65.078947,470.30872 25.681997,451.45154 c 0.16936,-0.33573 0.33772,-0.67244 0.50508,-1.01015 -0.16736,-5.89168 -0.33572,-11.78412 -0.50508,-17.67767 0.67445,-0.33573 1.34787,-0.67244 2.02031,-1.01016 -0.50409,-1.00917 -1.00916,-2.0193 -1.51523,-3.03045 0.001,-3.02952 0.001,-6.05992 0,-9.09138 0.16936,-0.16736 0.33771,-0.33571 0.50507,-0.50507 59.93792,-7.91202 119.872433,-15.82473 179.807153,-23.73859 0.33773,-0.16736 0.67444,-0.33571 1.01015,-0.50507 16.83722,10.60781 33.67276,21.2142 50.50763,31.8198 10e-4,-0.16736 10e-4,-0.33572 0,-0.50507 4.54678,-2.52444 9.09237,-5.04977 13.63706,-7.57615 12.79652,-0.33572 25.59153,-0.67243 38.3858,-1.01015 0.16936,-0.50409 0.33771,-1.00915 0.50507,-1.51523 0.001,-3.02952 0.001,-6.05992 0,-9.09137 2.02135,-0.33573 4.04161,-0.67244 6.06092,-1.01016 19.69937,-1.85098 39.39695,-3.70289 59.09392,-5.55583 20.37282,-5.89168 40.74382,-11.78412 61.11423,-17.67767 7.24057,-2.6928 14.47986,-5.38648 21.71828,-8.08122 6.2304,10e-4 12.45955,10e-4 18.68782,0 1.76881,-1.76681 3.53654,-3.53454 5.3033,-5.30331 16.24795,-20.96008 32.49424,-41.92033 48.73986,-62.88199 6.73549,-8.92219 13.46971,-17.84503 20.20306,-26.76904 4.21005,-9.59564 8.41893,-19.1919 12.6269,-28.78935 3.70497,-5.21823 7.40879,-10.43724 11.11168,-15.65737 7.74566,-8.08038 15.49001,-16.16144 23.23351,-24.24366 4.54678,-0.33572 9.09237,-0.67243 13.63706,-1.01015 3.03152,-3.19788 6.06191,-6.39663 9.09137,-9.59645 2.6948,-1.68262 5.38848,-3.36617 8.08122,-5.05076 0.16936,-0.16736 0.33772,-0.33572 0.50508,-0.50508 -0.16736,-2.52443 -0.33572,-5.04976 -0.50508,-7.57614 -2.18771,-1.68262 -4.37633,-3.36618 -6.56599,-5.05076 -1.51426,-3.36625 -3.02946,-6.73335 -4.54569,-10.10153 0.84281,-2.69279 1.68459,-5.38648 2.52539,-8.08122 1.01117,-3.5346 2.0213,-7.07007 3.03045,-10.6066 0.67445,-2.18771 1.34787,-4.37633 2.02031,-6.56599 2.18971,-3.87133 4.37833,-7.74351 6.56599,-11.61676 0.84281,-7.23857 1.68459,-14.47785 2.52538,-21.71828 -0.33572,0.001 -0.67243,0.001 -1.01015,0 3.36824,-5.55495 6.73535,-11.11069 10.10152,-16.667522 0.16937,-4.208054 0.33772,-8.416938 0.50508,-12.626907 0.67445,-1.177535 1.34787,-2.356023 2.02031,-3.535534 6.56712,-8.248744 13.13298,-16.498158 19.69797,-24.748738 3.87333,-3.702966 7.7455,-7.406785 11.61675,-11.111678 2.02135,-3.19788 4.04161,-6.396632 6.06092,-9.596449 -0.16736,-1.850983 -0.33572,-3.702892 -0.50508,-5.555839 6.73549,-0.672448 13.4697,-1.34587 20.20305,-2.020305 6.06204,1.347897 12.12283,2.69474 18.18275,4.04061 4.04169,1.852984 8.08222,3.704893 12.12183,5.555839 7.07221,2.694794 14.14314,5.388481 21.2132,8.081221 3.70497,3.536604 7.40879,7.072068 11.11168,10.606601 3.70494,4.378416 7.40884,8.755656 11.11164,13.131984 2.0214,4.041691 4.0417,8.08222 6.061,12.12183 -1.3459,5.725312 -2.6928,11.449396 -4.0407,17.172594 -4.3764,9.429283 -8.7536,18.857193 -13.13194,28.284283 -3.87133,4.37841 -7.7435,8.75565 -11.61675,13.13198 0.50608,2.86315 1.01115,5.7252 1.51523,8.5863 -2.18771,2.52643 -4.37633,5.05176 -6.566,7.57614 -5.04986,3.87333 -10.10052,7.7455 -15.15228,11.61675 -5.21823,2.6948 -10.43725,5.38848 -15.65737,8.08122 -2.86115,2.86316 -5.7232,5.7252 -8.58629,8.5863 4.04169,2.02135 8.08222,4.04161 12.12183,6.06092 1.17953,2.35807 2.35802,4.71504 3.53553,7.07106 -0.16736,-0.16736 -0.33572,-0.33571 -0.50508,-0.50507 2.52644,0.16936 5.05177,0.33772 7.57615,0.50507 0.67445,7.5773 1.34787,15.15329 2.0203,22.72844 -0.67245,0.84281 -1.34587,1.68458 -2.0203,2.52538 1.17953,1.68462 2.35802,3.36817 3.53553,5.05076 12.79652,11.1129 25.59153,22.22436 38.38584,33.33503 3.0315,5.22023 6.0619,10.43925 9.0913,15.65737 1.5163,11.1129 3.0315,22.22435 4.5457,33.33503 -5.2182,8.9242 -10.4372,17.84703 -15.6573,26.76905 -0.8409,5.89367 -1.6826,11.78611 -2.5254,17.67766 -2.8612,9.09256 -5.72323,18.18375 -8.58632,27.27412 -7.40694,10.77618 -14.81458,21.55092 -22.22336,32.32488 -2.01935,1.01118 -4.03961,2.02131 -6.06092,3.03046 -4.03969,9.09256 -8.08022,18.18375 -12.12183,27.27412 -7.57529,9.59764 -15.15128,19.1939 -22.72843,28.78935 -3.02952,6.2304 -6.05991,12.45955 -9.09137,18.68782 -1.51426,14.31178 -3.02946,28.62199 -4.54569,42.93148 -2.35607,20.70955 -4.71304,41.41726 -7.07107,62.12439 -1.68262,4.71514 -3.36617,9.42909 -5.05076,14.14213 0.16936,9.09256 0.33772,18.18375 0.50508,27.27412 0.33772,0.16936 0.67443,0.33772 1.01015,0.50508 2.52643,1.34789 5.05176,2.69474 7.57614,4.04061 1.51626,8.58747 3.03146,17.17359 4.54569,25.75889 -0.16736,1.01117 -0.33572,2.0213 -0.50508,3.03045 -5.55495,4.0417 -11.11067,8.08222 -16.66751,12.12183 -0.33573,2.02135 -0.67244,4.04161 -1.01016,6.06092 1.3479,4.21005 2.69475,8.41894 4.04062,12.62691 -0.33573,15.82704 -0.67244,31.65244 -1.01016,47.47717 1.68462,31.48471 3.36818,62.96717 5.05077,94.44926 0.16936,2.35807 0.33771,4.71504 0.50507,7.07107 5.05187,15.15359 10.10253,30.30557 15.15229,45.45686 1.68462,9.59764 3.36817,19.1939 5.05076,28.78935 7.74566,20.8779 15.49001,41.75397 23.23351,62.62946 4.37842,14.48018 8.75566,28.95868 13.13198,43.43658 -0.16736,0.1694 -0.33571,0.3377 -0.50507,0.5051 -40.74264,-0.1674 -81.48464,-0.3357 -122.22846,-0.5051 -0.33572,-1.1775 -0.67244,-2.356 -1.01015,-3.5355 -4.37642,-15.4884 -8.75366,-30.97704 -13.13199,-46.46707 -3.5346,-11.78435 -7.07006,-23.56923 -10.6066,-35.35534 -5.55495,-12.12108 -11.11068,-24.24266 -16.66751,-36.36549 -1.17754,-8.24875 -2.35603,-16.49816 -3.53554,-24.74874 -3.19788,-16.16177 -6.39663,-32.32388 -9.59645,-48.48732 -4.8815,-18.18211 -9.76381,-36.3645 -14.64721,-54.54824 10e-4,0.16936 10e-4,0.33772 0,0.50507 -9.764,17.00558 -19.52862,34.00947 -29.29442,51.01271 -4.71314,5.55695 -9.42709,11.11267 -14.14214,16.66751 0.33772,1.01117 0.67444,2.02131 1.01015,3.03046 8.9242,18.52084 17.84703,37.03993 26.76905,55.55839 13.13324,40.57627 26.26496,81.14992 39.39595,121.72336 -0.16737,0.1694 -0.33572,0.3378 -0.50508,0.5051 -37.71212,0.1694 -75.42372,0.3377 -113.13709,0.5051 -0.33572,0 -0.67243,0 -1.01015,0 -2.35607,-7.2386 -4.71304,-14.4779 -7.07107,-21.7183 1.01118,-3.8713 2.02131,-7.7435 3.03046,-11.61674 -5.72331,-11.11092 -11.44739,-22.22237 -17.17259,-33.33505 -10.10073,-23.90642 -20.20205,-47.81289 -30.30458,-71.72083 -1.00917,-11.1109 -2.0193,-22.22236 -3.03046,-33.33504 0.33773,-3.70296 0.67444,-7.40678 1.01016,-11.11167 6.06203,-22.05444 12.12283,-44.109 18.18274,-66.165 6.73549,-22.39116 13.4697,-44.78243 20.20305,-67.17514 2.86316,-12.62616 5.7252,-25.25281 8.5863,-37.88072 3.70497,-7.23857 7.40879,-14.47785 11.11168,-21.71828 -0.67245,-0.67245 -1.34587,-1.34587 -2.02031,-2.02031 -3.28206,-2.60861 -6.56499,-5.21812 -9.84898,-7.82868 1.93716,-4.20805 3.87325,-8.41694 5.80837,-12.6269 6.14622,-11.53181 12.29119,-23.06415 18.43529,-34.59773 3.70496,-9.764 7.40878,-19.52861 11.11167,-29.29442 1.85299,-5.38659 3.7049,-10.77396 5.55584,-16.16244 2.35807,-12.20526 4.71505,-24.41102 7.07107,-36.61803 0.42191,-4.37642 0.8428,-8.75366 1.26269,-13.13199 0.75863,-1.7668 1.51623,-3.53453 2.27285,-5.3033 3.70496,-8.08038 7.40878,-16.16144 11.11167,-24.24366 1.17954,-6.39676 2.35803,-12.79426 3.53554,-19.1929 2.02134,-6.06003 4.04161,-12.12083 6.06091,-18.18274 -0.75663,-0.0832 -1.51423,-0.16736 -2.27284,-0.25254 -9.59564,1.93716 -19.1919,3.87325 -28.78935,5.80838 -23.90642,2.61061 -47.81289,5.22012 -71.72083,7.82868 -16.83521,1.93716 -33.67075,3.87325 -50.50763,5.80838 -10.52163,1.17953 -21.04384,2.35802 -31.56726,3.53553 -0.33573,-0.67245 -0.67244,-1.34587 -1.01016,-2.02031 -2.60861,-3.95551 -5.21812,-7.91186 -7.82868,-11.86929 -2.69279,1.51626 -5.38648,3.03146 -8.08122,4.54569 -2.94534,-0.25154 -5.89156,-0.50408 -8.83883,-0.75762 -0.0832,1.43208 -0.16736,2.8631 -0.25254,4.29315 -0.84081,0.42191 -1.68259,0.8428 -2.52538,1.26269 2.10552,1.17954 4.20997,2.35803 6.31345,3.53554 0.25354,0.25354 0.50608,0.50607 0.75761,0.75761 10e-4,9.766 10e-4,19.53062 0,29.29443 -0.50408,0.16936 -1.00915,0.33771 -1.51522,0.50507 -25.67423,2.94734 -51.34842,5.89356 -77.02414,8.83884 -10.63358,1.23562 -21.26774,2.47019 -31.90311,3.70379 z"
       inkscape:path-effect="#path-effect1465" />
  </g>
  <g
     inkscape:groupmode="layer"
     id="layer2"
     inkscape:label="Layer 2">
    <path
       style="fill:#1e9ad9;fill-opacity:1;stroke:none;stroke-width:1px;stroke-linecap:butt;stroke-linejoin:miter;stroke-opacity:1"
       d="m 547.23888,424.15993 c -4.38174,-2.73135 -63.4527,-44.42922 -63.4527,-44.42922 -2.35702,-2.52538 -4.71308,-5.04973 -15.23559,-11.86854 -10.5225,-6.81881 -29.20995,-17.93026 -39.56403,-24.07537 -10.35408,-6.14511 -12.37435,-7.3236 -13.55295,-7.9132 -1.17861,-0.5896 -1.51532,-0.5896 -2.02081,-2.60938 -0.50549,-2.01978 -1.17891,-6.06031 -3.61969,-9.68019 -2.44078,-3.61989 -6.64967,-6.81865 -10.69028,-9.5125 -4.04061,-2.69385 -7.91279,-4.88247 -12.29022,-6.14546 -4.37744,-1.26299 -9.25975,-1.59971 -12.20631,-2.94604 -2.94656,-1.34633 -3.95669,-3.7033 -3.70433,-5.47173 0.25237,-1.76844 1.76757,-2.94693 3.11488,-3.53613 1.34731,-0.5892 2.5258,-0.5892 2.52552,-2.10386 -2.8e-4,-1.51465 -1.17877,-4.54504 -1.68413,-6.7339 -0.50536,-2.18885 -0.33701,-3.53569 -0.67355,-6.06096 -0.33654,-2.52526 -1.17831,-6.22908 2.8e-4,-8.92352 1.1786,-2.69444 4.37735,-4.37799 6.06126,-5.21968 1.6839,-0.8417 1.85226,-0.8417 1.26293,-1.68296 -0.58933,-0.84126 -1.93618,-2.52482 -2.10505,-4.12468 -0.16886,-1.59985 0.84127,-3.11505 2.44115,-4.12541 1.59987,-1.01036 3.78849,-1.51542 4.9666,-2.86177 1.17811,-1.34635 1.34647,-3.53497 -0.92579,-5.89216 -2.27226,-2.35718 -6.98621,-4.88252 -13.0472,-7.15554 -6.06099,-2.27302 -13.46864,-4.29328 -19.36123,-6.39765 -5.89259,-2.10437 -10.26983,-4.29299 -11.86993,-6.65012 -1.60009,-2.35713 -0.42161,-4.88246 2.02021,-6.22957 2.44182,-1.34711 6.14563,-1.51547 11.1124,-0.67345 4.96677,0.84201 11.19591,2.69392 16.83599,4.79853 5.64007,2.10461 10.69074,4.46158 15.32064,6.39766 4.62991,1.93607 8.8388,3.45128 13.46871,5.64009 4.62991,2.18881 9.68057,5.05085 13.97372,7.74469 4.29316,2.69383 7.82862,5.21916 11.61673,7.99713 3.7881,2.77796 7.82863,5.80836 11.19588,7.82848 3.36725,2.02012 6.06093,3.03025 9.34352,2.44065 3.2826,-0.58959 7.15478,-2.77822 10.10151,-3.4513 2.94674,-0.67308 4.96701,0.1687 10.01783,3.19934 5.05082,3.03063 13.13188,8.24965 24.24368,15.9101 11.1118,7.66045 25.25367,17.76178 32.1561,22.47601 6.90244,4.71423 6.56573,4.04081 11.02756,7.66046 4.46184,3.61966 13.72138,11.53236 23.65465,20.20294 9.93326,8.67058 20.53965,18.09848 27.94747,24.7487 7.40782,6.65022 11.61671,10.52239 13.80477,12.12167 2.18805,1.59928 2.35641,0.92586 4.96603,-3.28343 2.60962,-4.20928 7.66028,-11.95362 13.9739,-19.44579 6.31362,-7.49218 13.88961,-14.73146 20.20318,-20.28738 6.31357,-5.55592 11.36423,-9.42809 15.06798,-13.30018 3.70376,-3.87209 6.06073,-7.74427 9.68063,-11.70093 3.6199,-3.95665 8.50221,-7.99719 12.96374,-11.78528 4.46153,-3.78809 8.50206,-7.32356 12.20612,-10.01738 3.70406,-2.69382 7.07117,-4.54573 15.06836,-8.75477 7.99719,-4.20904 20.62384,-10.7749 30.72585,-12.79488 10.10201,-2.01998 17.67801,0.50535 24.4966,3.19921 6.81859,2.69385 12.87938,5.55589 17.25636,10.52287 4.37697,4.96697 7.07065,12.03791 8.58568,19.52986 1.51502,7.49195 1.85175,15.40466 0.67313,21.29684 -1.17863,5.89218 -3.87231,9.76436 -5.47173,12.96347 -1.59942,3.19912 -2.10451,5.72445 -4.12476,8.58618 -2.02024,2.86173 -5.55566,6.06045 -8.67044,9.76455 -3.11478,3.7041 -5.80846,7.91298 -11.19578,12.29013 -5.38731,4.37715 -13.46837,8.92275 -23.23326,14.05774 -9.76489,5.13499 -21.21305,10.85907 -31.98829,18.26703 -10.77524,7.40795 -20.87656,16.49914 -30.38895,25.59063 -9.51239,9.0915 -18.43522,18.18268 -24.412,24.32782 -5.97677,6.14514 -9.00717,9.34389 -15.65715,12.79517 -6.64997,3.45127 -16.91965,7.15509 -24.49553,7.91306 -7.57587,0.75796 -12.45818,-1.43066 -18.09831,-5.05026 -5.64014,-3.6196 -12.03764,-8.67026 -19.61767,-13.92675 -7.58002,-5.25649 -16.34215,-10.71834 -20.72389,-13.44969 z"
       id="path54"
       inkscape:path-effect="#path-effect56"
       inkscape:original-d="m 542.85714,421.42858 -59.07096,-41.69787 c 0,0 -4.71305,-5.04976 -7.07107,-7.57615 -18.6872,-11.1109 -37.37465,-22.22235 -56.06347,-33.33503 -2.01934,-1.17753 -4.03961,-2.35602 -6.06091,-3.53553 -0.33573,0.001 -0.67244,0.001 -1.01016,0 -0.67245,-4.03969 -1.34587,-8.08022 -2.0203,-12.12183 -4.20805,-3.19788 -8.41694,-6.39664 -12.62691,-9.59645 -3.87133,-2.18771 -7.7435,-4.37633 -11.61675,-6.56599 -4.8815,-0.33573 -9.76381,-0.67244 -14.64721,-1.01016 -1.00918,-2.35607 -2.01931,-4.71304 -3.03046,-7.07107 1.51626,-1.17753 3.03146,-2.35602 4.54568,-3.53553 1.17954,10e-4 2.35803,10e-4 3.53554,0 -1.17754,-3.02952 -2.35602,-6.05991 -3.53554,-9.09137 0.16937,-1.3459 0.33772,-2.69274 0.50508,-4.04061 -0.84081,-3.70297 -1.68259,-7.40679 -2.52538,-11.11168 3.19988,-1.68262 6.39863,-3.36618 9.59645,-5.05076 0.16936,10e-4 0.33772,10e-4 0.50507,0 -1.34589,-1.68262 -2.69274,-3.36618 -4.04061,-5.05077 1.01118,-1.51425 2.02131,-3.02945 3.03046,-4.54568 2.18971,-0.50409 4.37833,-1.00915 6.56599,-1.51523 0.16937,-2.18771 0.33772,-4.37633 0.50508,-6.56599 -4.71314,-2.52443 -9.42709,-5.04977 -14.14214,-7.57615 -7.40693,-2.01934 -14.81457,-4.03961 -22.22335,-6.06091 -4.37642,-2.18771 -8.75366,-4.37633 -13.13199,-6.56599 1.17954,-2.52444 2.35803,-5.04977 3.53554,-7.57615 3.70497,-0.16736 7.40878,-0.33572 11.11168,-0.50507 6.2304,1.85298 12.45954,3.70489 18.68782,5.55584 5.05186,2.35806 10.10252,4.71504 15.15229,7.07106 4.21005,1.51626 8.41894,3.03146 12.6269,4.54569 5.05187,2.86316 10.10253,5.7252 15.15229,8.5863 3.53661,2.52643 7.07207,5.05176 10.6066,7.57614 4.04169,3.03152 8.08222,6.06192 12.12183,9.09137 2.6948,1.01118 5.38848,2.02131 8.08122,3.03046 3.87333,-2.18771 7.74551,-4.37633 11.61676,-6.56599 2.02134,0.84281 4.04161,1.68459 6.06091,2.52538 8.08239,5.22023 16.16345,10.43924 24.24367,15.65737 14.14341,10.10272 28.28527,20.20405 42.4264,30.30457 -0.33572,-0.67245 -0.67243,-1.34587 -1.01015,-2.0203 9.26092,7.91402 18.52046,15.82672 27.77919,23.73858 10.60782,9.42928 21.21421,18.85718 31.81981,28.28427 4.21005,3.87333 8.41894,7.74551 12.62691,11.61676 0.16936,-0.67245 0.33771,-1.34587 0.50507,-2.02031 5.05187,-7.74366 10.10253,-15.488 15.15229,-23.23351 7.5773,-7.23857 15.15329,-14.47785 22.72843,-21.71828 5.05187,-3.87133 10.10253,-7.7435 15.15229,-11.61675 2.35807,-3.87133 4.71505,-7.7435 7.07107,-11.61676 4.8835,-4.03969 9.76581,-8.08022 14.64721,-12.12183 4.04169,-3.5346 8.08222,-7.07006 12.12183,-10.6066 3.36824,-1.85098 6.73535,-3.70289 10.10153,-5.55584 12.62816,-6.56512 25.25481,-13.13098 37.88072,-19.69797 7.57729,2.52643 15.15329,5.05176 22.72843,7.57614 6.06204,2.86316 12.12283,5.7252 18.18273,8.5863 2.6948,7.07221 5.3885,14.14314 8.0812,21.2132 0.3378,7.91402 0.6745,15.82673 1.0102,23.73859 -2.6928,3.87333 -5.3865,7.7455 -8.0812,11.61675 -0.5041,2.52643 -1.0092,5.05176 -1.5153,7.57615 -3.5346,3.19988 -7.07,6.39863 -10.60656,9.59645 -2.6928,4.21005 -5.38648,8.41893 -8.08122,12.6269 -8.08038,4.54678 -16.16144,9.09238 -24.24366,13.63706 -11.44763,5.72531 -22.89579,11.4494 -34.34519,17.17259 -10.10073,9.09256 -20.20205,18.18375 -30.30458,27.27412 -8.92219,9.09256 -17.84502,18.18375 -26.76904,27.27412 -3.02952,3.19988 -6.05991,6.39864 -9.09137,9.59645 -10.26909,3.70497 -20.53877,7.40879 -30.80965,11.11168 -4.88151,-2.18771 -9.76381,-4.37633 -14.64722,-6.56599 -6.39676,-5.04987 -12.79426,-10.10053 -19.19289,-15.15229 -8.76149,-5.46108 -17.52362,-10.92293 -26.28693,-16.3859 z" />
  </g>
</svg>
