<?xml version="1.0" encoding="UTF-8" standalone="no"?>
<svg
   xmlns:dc="http://purl.org/dc/elements/1.1/"
   xmlns:cc="http://creativecommons.org/ns#"
   xmlns:rdf="http://www.w3.org/1999/02/22-rdf-syntax-ns#"
   xmlns:svg="http://www.w3.org/2000/svg"
   xmlns="http://www.w3.org/2000/svg"
   xmlns:sodipodi="http://sodipodi.sourceforge.net/DTD/sodipodi-0.dtd"
   xmlns:inkscape="http://www.inkscape.org/namespaces/inkscape"
   width="1024.0px"
   height="1024.0px"
   viewBox="0 0 1024.0 1024.0"
   version="1.1"
   id="SVGRoot"
   sodipodi:docname="pf ffa.svg"
   inkscape:version="1.0.1 (3bc2e813f5, 2020-09-07)">
  <defs
     id="defs18">
    <inkscape:path-effect
       effect="bspline"
       id="path-effect931"
       is_visible="true"
       lpeversion="1"
       weight="33.333333"
       steps="2"
       helper_size="0"
       apply_no_weight="true"
       apply_with_weight="true"
       only_selected="false" />
    <inkscape:path-effect
       effect="bspline"
       id="path-effect915"
       is_visible="true"
       lpeversion="1"
       weight="33.333333"
       steps="2"
       helper_size="0"
       apply_no_weight="true"
       apply_with_weight="true"
       only_selected="false" />
    <inkscape:path-effect
       effect="bspline"
       id="path-effect911"
       is_visible="true"
       lpeversion="1"
       weight="33.333333"
       steps="2"
       helper_size="0"
       apply_no_weight="true"
       apply_with_weight="true"
       only_selected="false" />
    <pattern
       id="EMFhbasepattern"
       patternUnits="userSpaceOnUse"
       width="6"
       height="6"
       x="0"
       y="0" />
    <pattern
       id="EMFhbasepattern-5"
       patternUnits="userSpaceOnUse"
       width="6"
       height="6"
       x="0"
       y="0" />
  </defs>
  <sodipodi:namedview
     id="base"
     pagecolor="#ffffff"
     bordercolor="#666666"
     borderopacity="1.0"
     inkscape:pageopacity="0.0"
     inkscape:pageshadow="2"
     inkscape:zoom="0.60647144"
     inkscape:cx="342.91382"
     inkscape:cy="576.91456"
     inkscape:document-units="px"
     inkscape:current-layer="layer3"
     inkscape:document-rotation="0"
     showgrid="true"
     inkscape:window-width="1920"
     inkscape:window-height="1017"
     inkscape:window-x="-8"
     inkscape:window-y="-8"
     inkscape:window-maximized="1"
     inkscape:lockguides="false"
     inkscape:snap-grids="false">
    <inkscape:grid
       type="xygrid"
       id="grid27" />
  </sodipodi:namedview>
  <metadata
     id="metadata21">
    <rdf:RDF>
      <cc:Work
         rdf:about="">
        <dc:format>image/svg+xml</dc:format>
        <dc:type
           rdf:resource="http://purl.org/dc/dcmitype/StillImage" />
        <dc:title></dc:title>
      </cc:Work>
    </rdf:RDF>
  </metadata>
  <g
     inkscape:groupmode="layer"
     id="layer3"
     inkscape:label="bg">
    <rect
       style="fill:#ffffff;fill-opacity:1;stroke:none;stroke-opacity:1"
       id="rect939"
       width="1025.7142"
       height="1028.5714"
       x="1.4285715"
       y="1.4285715" />
  </g>
  <g
     inkscape:label="Layer 1"
     inkscape:groupmode="layer"
     id="layer1">
    <path
       style="fill:#00a3e8;stroke:none;stroke-width:1px;stroke-linecap:butt;stroke-linejoin:miter;stroke-opacity:1;fill-opacity:1"
       d="m 892.97552,1027.4941 c -13.13165,1.8513 -40.40577,1.8513 -55.89506,-2.5255 -15.48928,-4.3768 -19.19312,-13.1313 -23.2339,-27.61035 -4.04078,-14.47907 -8.41801,-34.68171 -14.31049,-52.8646 -5.89248,-18.18289 -13.30012,-34.345 -17.34097,-46.46698 -4.04085,-12.12197 -4.71427,-20.20303 -7.57629,-32.83006 -2.86202,-12.62702 -7.91267,-29.79926 -12.62683,-49.66584 -4.71415,-19.86658 -9.09139,-42.42621 -11.11183,-57.24195 -2.02043,-14.81574 -1.68372,-21.88666 -2.69334,-26.43239 -1.00962,-4.54572 -3.3666,-6.56599 -6.061,-4.88264 -2.6944,1.68335 -5.72479,7.07072 -7.74495,5.38743 -2.02016,-1.68329 -3.03029,-10.43777 -9.42765,-21.88631 -6.39737,-11.44855 -18.18224,-25.5904 -27.10528,-35.86038 -8.92304,-10.26998 -14.98384,-16.66748 -20.03501,-29.7996 -5.05117,-13.13212 -9.0917,-32.99805 -13.63735,-50.17077 -4.54564,-17.17271 -9.5963,-31.65127 -12.62689,-42.25798 -3.03059,-10.60671 -4.04073,-17.34093 -7.23945,-19.53023 -3.19872,-2.18931 -8.58609,0.16767 -13.6366,1.17796 -5.05051,1.01029 -9.76446,0.67358 -20.20281,-4.04026 -10.43835,-4.71384 -26.60046,-13.80503 -44.27835,-25.42184 -17.67789,-11.61682 -36.87041,-25.75868 -50.50752,-35.18688 -13.63712,-9.42821 -21.71818,-14.14216 -27.10598,-19.19272 -5.38779,-5.05056 -8.08148,-10.43794 -8.25022,-16.66758 -0.16873,-6.22964 2.18825,-13.30057 3.53517,-18.35123 1.34693,-5.05065 1.68364,-8.08104 2.02038,-12.4584 0.33674,-4.37735 0.67345,-10.10144 5.05089,-17.17306 4.37744,-7.07162 12.79521,-15.48939 17.67813,-19.69836 4.88292,-4.20897 6.22976,-4.20897 7.23959,-3.02984 1.00983,1.17913 1.68325,3.53611 -0.8422,6.39756 -2.52546,2.86144 -8.24955,6.22855 -6.56585,5.3867 1.6837,-0.84185 10.77489,-5.89251 15.15201,-5.8919 4.37712,6.1e-4 4.04041,5.05127 3.53528,9.09182 -0.50513,4.04054 -1.17856,7.07094 -2.02038,10.10136 -0.84182,3.03042 -1.85195,6.06081 -1.51456,8.24963 0.33738,2.18882 2.02093,3.53566 2.18863,5.38735 0.16771,1.85169 -1.17914,4.20867 2.3571,9.09145 3.53624,4.88278 11.95401,12.29042 19.19357,17.6778 7.23955,5.38738 13.30034,8.75448 19.02457,12.29012 5.72424,3.53564 11.11161,7.23946 16.16238,9.25941 5.05077,2.01995 9.76472,2.35666 13.80473,-0.67372 4.04001,-3.03037 7.40712,-9.42788 9.93256,-18.85585 2.52544,-9.42798 4.20899,-21.88627 5.21919,-35.52342 1.0102,-13.63714 1.34692,-28.45241 2.35702,-39.73264 1.0101,-11.28023 2.69365,-19.02458 7.07132,-24.74929 4.37766,-5.7247 11.44859,-9.42852 21.04512,-14.81607 9.59654,-5.38754 21.71813,-12.45847 29.12587,-17.00414 7.40774,-4.54568 10.10142,-6.56594 7.74464,-12.96305 -2.35679,-6.39711 -9.76442,-17.17186 -12.7953,-29.12559 -3.03088,-11.95373 -1.68404,-25.08545 -0.33722,-33.33525 1.34683,-8.24979 2.69367,-11.6169 1.0107,-13.63739 -1.68297,-2.0205 -6.39692,-2.69392 -8.58617,-6.06076 -2.18925,-3.36685 -1.85254,-9.42764 -1.17917,-13.46854 0.67337,-4.0409 1.68351,-6.06117 3.53617,-6.73465 1.85267,-0.67348 4.54635,-6e-5 6.9034,0.67344 2.35706,0.67349 4.37732,1.34691 5.38687,2.86247 1.00956,1.51555 1.00956,3.87252 2.5248,3.36694 1.51523,-0.50558 4.54562,-3.87268 10.10153,-10.2704 5.55591,-6.39772 13.63697,-15.82562 21.38195,-21.3816 7.74498,-5.55598 15.15262,-7.23953 21.38204,-8.24963 6.22942,-1.01011 11.28008,-1.34682 16.49938,4.4e-4 5.21931,1.34726 10.60669,4.37767 15.48912,7.23982 4.88244,2.86215 9.25968,5.55584 12.79504,8.92327 3.53536,3.36743 6.22905,7.40796 8.41756,11.78536 2.18851,4.3774 3.87207,9.09136 5.05044,13.97376 1.17838,4.88241 1.8518,9.93307 2.52526,14.47881 0.67347,4.54574 1.34689,8.58627 -2.86226,14.98341 -4.20914,6.39714 -13.30033,15.15162 -20.37144,21.88601 -7.07112,6.73439 -12.12178,11.44834 -14.14189,15.32124 -2.02011,3.8729 -1.00998,6.9033 3.36783,9.76504 4.3778,2.86173 12.12215,5.55542 17.34106,9.09137 5.2189,3.53596 7.91259,7.91319 11.27994,12.12212 3.36736,4.20892 7.40789,8.24945 12.79554,11.95318 5.38765,3.70373 12.12186,7.07083 18.35119,10.2697 6.22933,3.19886 11.95341,6.22926 16.66718,11.78546 4.71376,5.5562 8.41758,13.63726 10.94281,21.21345 2.52523,7.57619 3.87207,14.64712 5.38728,24.5804 1.51521,9.93327 3.19876,22.72828 4.88242,32.8299 1.68366,10.10163 3.36722,17.50927 4.20888,23.90687 0.84166,6.3976 0.84166,11.78498 0.33652,18.18261 -0.50515,6.39763 -1.51528,13.80527 -3.70402,20.53942 -2.18873,6.73416 -5.55583,12.79495 -10.26944,16.33026 -4.71361,3.53531 -10.7744,4.54544 -13.97365,8.4183 -3.19925,3.87286 -3.53596,10.60708 1.68358,25.08628 5.21955,14.4792 15.99429,36.70211 23.0653,52.86465 7.07101,16.16254 10.43812,26.26387 13.63688,39.56435 3.19875,13.30047 6.22914,29.7993 8.41793,39.9009 2.18879,10.10159 3.53564,13.8054 11.11217,23.40193 7.57653,9.59653 21.38168,25.08523 40.23753,10.60558 18.85585,-14.47964 42.76231,-58.92546 56.56783,-83.33766 13.80552,-24.4122 17.50932,-28.78944 22.72872,-33.3353 5.2193,-4.54585 11.9535,-9.2598 15.8256,-16.66717 3.8721,-7.40736 4.8822,-17.50868 6.3975,-24.07502 1.5152,-6.56635 3.5354,-9.59676 5.7248,-10.94366 2.1893,-1.3469 4.5463,-1.01019 5.7243,40.91239 1.1779,41.92258 1.1779,125.42686 -5.0516,177.61793 -6.2295,52.19107 -18.6878,73.06712 -27.4422,84.68366 -8.7544,11.61653 -13.80506,13.97351 -24.24325,16.16224 -10.43819,2.18873 -26.26359,4.209 -36.36523,5.72421 -10.10163,1.5152 -14.47887,2.52534 -28.28428,-2.69352 -13.80542,-5.21885 -37.03847,-16.66702 -49.16096,-18.51876 -12.1225,-1.85174 -13.13263,5.89261 -12.45897,14.47917 0.67366,8.58655 3.03063,18.01445 6.06114,29.63134 3.03051,11.6169 6.73432,25.42204 10.43824,40.0694 3.70391,14.64736 7.40773,30.13606 12.45857,49.83428 5.05085,19.69822 11.44835,43.60469 15.15225,57.41008 3.70391,13.8055 4.71407,17.5094 -8.41759,19.3607 z"
       id="path913"
       inkscape:path-effect="#path-effect915"
       inkscape:original-d="m 907.11699,1029.3454 c -27.27312,10e-4 -54.54724,10e-4 -81.82236,0 -3.70297,-8.7538 -7.40679,-17.5083 -11.11168,-26.2639 -4.37641,-20.20248 -8.75365,-40.40512 -13.13198,-60.60918 -7.40694,-16.16176 -14.81457,-32.32388 -22.22336,-48.48732 -0.67245,-8.08038 -1.34587,-16.16144 -2.0203,-24.24366 -5.04987,-17.17194 -10.10053,-34.34418 -15.15229,-51.51778 -4.37642,-22.55952 -8.75366,-45.11915 -13.13198,-67.68022 0.33772,-7.07021 0.67443,-14.14113 1.01015,-21.2132 -2.35607,-2.01935 -4.71305,-4.03961 -7.07107,-6.06092 -3.02952,5.38859 -6.05991,10.77596 -9.09137,16.16244 -1.00917,-8.75383 -2.01931,-17.50831 -3.03046,-26.26396 -11.78435,-14.14142 -23.56923,-28.28327 -35.35534,-42.42641 -6.06004,-6.39676 -12.12083,-12.79427 -18.18274,-19.1929 -4.0397,-19.86573 -8.08022,-39.73167 -12.12184,-59.599 -5.04986,-14.47814 -10.10052,-28.9567 -15.15228,-43.43656 -1.00918,-6.73348 -2.01931,-13.4677 -3.03046,-20.20305 -5.38659,2.35807 -10.77396,4.71505 -16.16244,7.07107 -4.71314,-0.33573 -9.42709,-0.67244 -14.14214,-1.01015 -16.16176,-9.09056 -32.32388,-18.18175 -48.48732,-27.27412 -19.19228,-14.14142 -38.3848,-28.28327 -57.57869,-42.42641 -8.08039,-4.71314 -16.16145,-9.42709 -24.24367,-14.14213 -2.69279,-5.38659 -5.38648,-10.77397 -8.08122,-16.16245 2.35807,-7.0702 4.71505,-14.14113 7.07107,-21.2132 0.33773,-3.02952 0.67444,-6.05991 1.01015,-9.09137 0.33773,-5.72331 0.67444,-11.4474 1.01016,-17.1726 8.4191,-8.4171 16.83687,-16.83487 25.25381,-25.25381 1.3479,10e-4 2.69474,10e-4 4.04061,0 0.67445,2.35807 1.34787,4.71505 2.02031,7.07107 -5.72332,3.36824 -11.4474,6.73535 -17.1726,10.10152 9.09256,-5.04986 18.18375,-10.10052 27.27412,-15.15228 -0.33572,5.05186 -0.67243,10.10252 -1.01015,15.15228 -0.67245,3.03152 -1.34587,6.06192 -2.02031,9.09138 -1.00917,3.03152 -2.0193,6.06191 -3.03045,9.09137 1.68462,1.3479 3.36817,2.69474 5.05076,4.04061 -1.3459,2.35807 -2.69274,4.71505 -4.04061,7.07107 8.4191,7.40893 16.83687,14.81657 25.25381,22.22335 6.06204,3.36825 12.12283,6.73535 18.18275,10.10153 5.38859,3.70497 10.77596,7.40879 16.16244,11.11168 4.71514,0.33772 9.42909,0.67443 14.14213,1.01015 3.36825,-6.39676 6.73535,-12.79427 10.10153,-19.1929 1.68462,-12.4578 3.36817,-24.91609 5.05076,-37.37564 0.33773,-14.81487 0.67444,-29.63014 1.01016,-44.44671 1.68462,-7.74366 3.36817,-15.48801 5.05076,-23.23351 7.07221,-3.70297 14.14313,-7.40679 21.2132,-11.11168 12.12307,-7.07021 24.24466,-14.14114 36.36549,-21.2132 2.6948,-2.01935 5.38848,-4.03961 8.08122,-6.06092 -7.40693,-10.77418 -14.81457,-21.54892 -22.22335,-32.32488 1.34789,-13.13125 2.69474,-26.26297 4.04061,-39.39595 1.34789,-3.36624 2.69474,-6.73335 4.04061,-10.10153 -4.71314,-0.67244 -9.42709,-1.34587 -14.14214,-2.0203 0.33773,-6.06004 0.67444,-12.12083 1.01015,-18.18275 1.01118,-2.01934 2.02131,-4.03961 3.03046,-6.06091 2.6948,0.67445 5.38848,1.34787 8.08122,2.0203 2.02135,0.67445 4.04161,1.34787 6.06092,2.02031 10e-4,2.35807 10e-4,4.71504 0,7.07107 3.03152,-3.36625 6.06191,-6.73335 9.09137,-10.10153 8.08238,-9.42728 16.16344,-18.85518 24.24366,-28.28427 7.40894,-1.68262 14.81657,-3.36618 22.22336,-5.05076 5.05186,-0.33573 10.10252,-0.67244 15.15229,-1.01016 5.38858,3.03152 10.77596,6.06192 16.16244,9.09138 4.37841,2.69479 8.75565,5.38848 13.13198,8.08122 2.69479,4.04169 5.38848,8.08222 8.08122,12.12183 1.68462,4.71514 3.36818,9.42909 5.05076,14.14213 0.67445,5.05187 1.34787,10.10253 2.02031,15.15229 0.67445,4.04169 1.34787,8.08222 2.0203,12.12183 -9.09055,8.75583 -18.18174,17.51031 -27.27412,26.26397 -5.04986,4.71514 -10.10052,9.42909 -15.15228,14.14213 1.01117,3.03152 2.0213,6.06192 3.03045,9.09138 7.74566,2.69479 15.49001,5.38848 23.23351,8.08122 2.6948,4.37841 5.38848,8.75565 8.08122,13.13198 4.04169,4.04169 8.08222,8.08222 12.12183,12.12183 6.73549,3.36824 13.4697,6.73535 20.20305,10.10153 5.72532,3.03151 11.4494,6.06191 17.1726,9.09137 3.70496,8.08238 7.40878,16.16344 11.11168,24.24366 1.34789,7.07221 2.69474,14.14314 4.04061,21.2132 1.68462,12.79653 3.36817,25.59154 5.05076,38.3858 1.68462,7.40893 3.36817,14.81657 5.05076,22.22336 10e-4,5.38858 10e-4,10.77596 0,16.16244 -1.00917,7.40893 -2.0193,14.81657 -3.03046,22.22335 -3.36624,6.06204 -6.73335,12.12283 -10.10152,18.18275 -6.06004,1.01117 -12.12083,2.0213 -18.18275,3.03046 -0.33572,6.73548 -0.67243,13.4697 -1.01015,20.20305 10.77618,22.2248 21.55092,44.44771 32.32488,66.67007 3.36824,10.10272 6.73535,20.20405 10.10153,30.30457 3.03151,16.50049 6.06191,32.99932 9.09137,49.49748 1.3479,3.70496 2.69474,7.40878 4.04061,11.11167 13.80669,15.49032 27.61184,30.97902 41.41625,46.46702 23.90843,-44.4466 47.81489,-88.89242 71.72083,-133.34013 3.70497,-4.37642 7.4088,-8.75366 11.1117,-13.13199 6.7355,-4.71314 13.4697,-9.42709 20.203,-14.14213 1.0112,-10.10073 2.0213,-20.20205 3.0305,-30.30458 2.0213,-3.02952 4.0416,-6.05991 6.0609,-9.09137 2.3581,0.33772 4.7151,0.67443 7.0711,1.01015 10e-4,83.50861 10e-4,167.01289 0,250.51783 -12.4578,20.87791 -24.9161,41.75397 -37.3757,62.62946 -5.04983,2.35807 -10.1005,4.71504 -15.15226,7.07107 -15.82504,2.02134 -31.65044,4.04161 -47.47717,6.06091 -4.37641,1.01118 -8.75365,2.02131 -13.13198,3.03046 -23.23297,-11.44762 -46.46602,-22.89579 -69.70053,-34.34519 -1.00917,7.74566 -2.0193,15.49001 -3.03045,23.23351 2.35807,9.42928 4.71504,18.85718 7.07106,28.28427 3.70497,13.8067 7.40879,27.61184 11.11168,41.41626 3.70497,15.49031 7.40879,30.97901 11.11168,46.46701 6.39876,23.90843 12.79627,47.81489 19.1929,71.72087 1.01117,3.7049 2.0213,7.4088 3.03046,11.1116 z" />
    <path
       style="fill:#00a3e8;stroke:none;stroke-width:1px;stroke-linecap:butt;stroke-linejoin:miter;stroke-opacity:1;fill-opacity:1"
       d="m 1.0714286,538.57143 c 5.9534006,0.11907 11.9057814,0.23811 15.5361454,-0.83319 3.630365,-1.0713 4.939864,-3.33316 9.16674,-4.28567 4.226876,-0.95251 11.36959,-0.59537 16.548268,0.41683 5.178679,1.01221 8.392899,2.67884 10.713824,2.97608 2.320925,0.29724 3.749468,-0.77417 10.951858,-9.10755 7.20239,-8.33338 20.178324,-23.92831 29.940343,-34.88081 9.762023,-10.9525 16.309513,-17.2619 19.285983,-21.0113 2.97647,-3.7494 2.38124,-4.93986 6.36924,-8.45249 3.98799,-3.51264 12.55925,-9.34586 18.63051,-15.59567 6.07126,-6.24981 9.64261,-12.91635 11.19048,-17.14214 1.54787,-4.2258 1.07169,-6.01148 1.60716,-9.28562 0.53547,-3.27415 2.08306,-8.03596 3.80987,-10.41721 1.72681,-2.38126 3.63153,-2.38126 5.05952,-3.15495 1.428,-0.77368 2.38037,-2.32127 2.73768,-3.86848 0.35731,-1.54721 0.11922,-3.0948 1.19049,-6.30949 1.07126,-3.2147 3.45217,-8.09555 4.58342,-10.7142 1.13125,-2.61866 1.0122,-2.9758 0.23845,-4.70202 -0.77374,-1.72622 -2.20228,-4.8214 -2.97636,-8.45248 -0.77407,-3.63108 -0.89311,-7.79766 -2.44027,-11.30962 -1.54715,-3.51196 -4.52328,-6.36904 -5.29768,-9.16699 -0.77441,-2.79794 0.65413,-5.53598 1.071,-8.4523 0.41687,-2.91631 -0.17835,-6.01149 -1.24933,-8.09501 -1.07099,-2.08352 -2.61858,-3.15493 -3.21444,-5.00017 -0.59587,-1.84523 -0.23873,-4.46422 -1.25,-6.42862 -1.01128,-1.96439 -3.39219,-3.27389 -6.66606,-5.35719 -3.27387,-2.08329 -7.44046,-4.94038 -10.41687,-7.79736 -2.97642,-2.85698 -4.7621,-5.71407 -5.23868,-7.61939 -0.47657,-1.90532 0.35674,-2.85768 0.0593,-5.71431 -0.29742,-2.85663 -1.72597,-7.61844 -1.42861,-13.03546 0.29736,-5.41703 2.32113,-11.48834 5.35705,-16.13157 3.03592,-4.64324 7.08346,-7.85747 10.41709,-9.8218 3.33364,-1.96434 5.95263,-2.67861 8.15529,-2.6187 2.20266,0.0599 3.98835,0.89322 8.15478,0.23806 4.16643,-0.65517 10.71392,-2.79798 14.5826,-4.76207 3.86868,-1.96409 5.05913,-3.74977 7.14285,-5.17857 2.08373,-1.4288 5.05986,-2.5002 8.03639,-2.32123 2.97654,0.17898 5.95267,1.60752 7.61866,1.48855 1.66599,-0.11898 2.02313,-1.78562 3.09508,-2.73843 1.07195,-0.95282 2.85763,-1.19091 3.57171,-1.7855 0.71408,-0.59459 0.35695,-1.54694 -0.65469,-2.02374 -1.01165,-0.47679 -2.67829,-0.47679 -4.99986,-2.67864 -2.32156,-2.20185 -5.2977,-6.60653 -6.54817,-9.76153 -1.25047,-3.155 -0.77429,-5.05972 -1.25009,-7.38093 -0.47581,-2.32121 -1.90435,-5.05926 -2.20233,-9.99997 -0.29797,-4.94071 0.53534,-12.08342 2.32105,-17.85757 1.78571,-5.77416 4.52375,-10.17883 8.21453,-13.69099 3.69077,-3.51217 8.33353,-6.13116 13.51247,-7.55966 5.17895,-1.4285 10.89312,-1.66659 15.89323,-1.54746 5.00012,0.11913 9.28574,0.59532 12.38093,1.84579 3.0952,1.25048 4.99992,3.27425 6.72576,8.09581 1.72584,4.82157 3.27342,12.44047 4.94021,18.69054 1.66679,6.25007 3.45247,11.13093 4.40464,17.61901 0.95217,6.48807 1.07121,14.58315 1.19027,20.71416 0.11906,6.131 0.2381,10.29758 -0.41674,13.27333 -0.65484,2.97576 -2.08338,4.76144 -1.24951,5.53515 0.83388,0.77371 3.92905,0.53562 6.31004,1.31 2.38099,0.77438 4.04762,2.56005 5.59509,4.82207 1.54746,2.26202 2.97601,5.00006 6.19062,7.7379 3.21462,2.73785 8.21452,5.4759 12.20264,7.20191 3.98811,1.72601 6.96425,2.44029 9.70238,3.45238 2.73814,1.01209 5.23809,2.32158 7.61892,4.28612 2.38084,1.96453 4.6427,4.58352 6.60681,7.73839 1.96411,3.15487 3.63075,6.84527 4.52338,9.40474 0.89263,2.55948 1.01167,3.98802 2.67891,5.71406 1.66724,1.72603 4.88146,3.7498 6.78575,6.30957 1.9043,2.55976 2.49952,5.65494 4.28569,8.512 1.78616,2.85706 4.7623,5.47606 6.72617,9.22621 1.96388,3.75016 2.91625,8.63102 4.22597,12.73822 1.30973,4.1072 2.97636,7.44046 3.15456,9.99949 0.17819,2.55903 -1.13131,4.34471 -0.83346,9.22624 0.29784,4.88153 2.20256,12.85756 2.73807,20.00032 0.53551,7.14276 -0.29781,13.45216 -2.02406,18.80907 -1.72625,5.35691 -4.34524,9.76159 -6.9047,13.21384 -2.55946,3.45226 -5.05941,5.95221 -7.38063,7.67831 -2.32122,1.72609 -4.46403,2.67845 -6.30898,3.09526 -1.84495,0.41681 -3.39254,0.29777 -5.23824,1.01196 -1.84571,0.7142 -3.98852,2.26179 -5.53574,2.55996 -1.54722,0.29818 -2.49958,-0.65419 -3.45194,-1.54709 -0.95236,-0.8929 -1.90472,-1.72621 -2.85726,-2.85707 -0.95254,-1.13086 -1.9049,-2.5594 -0.83393,-7.79786 1.07098,-5.23847 4.16616,-14.28591 5.47586,-20.47616 1.3097,-6.19024 0.83351,-9.5235 -0.47553,-11.4287 -1.30905,-1.9052 -3.45186,-2.38138 -5.83344,-1.19098 -2.38158,1.1904 -5.00057,4.04748 -6.96494,6.60716 -1.96437,2.55969 -3.27387,4.82155 -3.69026,6.72676 -0.41638,1.90521 0.0598,3.4528 -0.29762,5.11901 -0.35741,1.6662 -1.54787,3.45188 -3.1548,4.93978 -1.60693,1.4879 -3.63071,2.67836 -5.77384,5.83349 -2.14314,3.15514 -4.405,8.27409 -5.29761,11.90541 -0.89262,3.63131 -0.41644,5.77413 -0.35709,9.22644 0.0594,3.45231 -0.29778,8.21412 -0.89266,10.71357 -0.59488,2.49944 -1.42819,2.73753 -2.38101,4.52368 -0.95283,1.78616 -2.02423,5.11942 -1.72612,6.60712 0.29811,1.48771 1.96474,1.13057 3.92907,2.61936 1.96432,1.48878 4.22617,4.82204 6.36909,7.79824 2.14292,2.9762 4.16669,5.59519 8.69072,9.22602 4.52403,3.63082 11.5477,8.27359 16.84524,12.61901 5.29754,4.34543 8.8689,8.39297 13.74989,14.22639 4.88099,5.83343 11.07134,13.45233 15.41639,20.53578 4.34505,7.08346 6.845,13.63095 7.9757,19.34515 1.1307,5.71421 0.89261,10.59506 -1.66704,18.15443 -2.55965,7.55937 -7.44051,17.79726 -13.03556,24.76127 -5.59504,6.96402 -11.90444,10.65442 -23.3334,24.46438 -11.42896,13.80996 -27.97625,37.73805 -35.95179,49.76188 -7.97554,12.02382 -7.38031,12.14287 -5.0591,15.95294 2.32121,3.81008 6.36875,11.30993 8.80929,15.71469 2.44053,4.40476 3.27385,5.71427 7.14311,9.58327 3.86927,3.86901 10.77389,10.29745 14.46396,14.8809 3.69006,4.58345 4.16624,7.32149 3.45174,10.35683 -0.7145,3.03534 -2.61922,6.36861 -7.20199,7.67802 -4.58277,1.30941 -11.84453,0.59513 -19.22551,-0.71431 -7.38098,-1.30945 -14.88083,-3.21417 -20.71419,-5.17833 -5.83337,-1.96417 -9.99995,-3.98793 -12.73828,-6.01148 -2.73834,-2.02354 -4.04784,-4.04731 -6.42867,-5.17881 -2.38083,-1.1315 -5.83314,-1.36959 -10.41647,-3.09552 -4.58333,-1.72592 -10.2975,-4.94014 -12.97606,-6.48789 -2.67856,-1.54775 -2.32143,-1.42871 -2.02442,-5.1785 0.29701,-3.74979 0.5351,-11.36869 2.32076,-19.70232 1.78565,-8.33362 5.11892,-17.38106 11.24998,-28.92897 6.13107,-11.54791 15.05946,-25.59525 23.75002,-39.16681 8.69057,-13.57157 17.14278,-26.66654 21.25038,-33.39228 4.10761,-6.72575 3.86952,-7.08288 2.73848,-9.10671 -1.13103,-2.02383 -3.1548,-5.71423 -4.16703,-7.67862 -1.01223,-1.96438 -1.01223,-2.20247 1.24977,-4.22685 2.26199,-2.02439 6.78571,-5.83384 8.86949,-7.91664 2.08379,-2.0828 1.72666,-2.43993 -1.30906,-3.03559 -3.03571,-0.59567 -8.74988,-1.42898 -14.70228,-3.33357 -5.9524,-1.90458 -12.14275,-4.88072 -21.19067,-5.53581 -9.04792,-0.6551 -20.95244,1.01153 -26.96427,1.7859 -6.01183,0.77437 -6.13087,0.65533 -11.24992,-1.96397 -5.11905,-2.61929 -15.23789,-7.73823 -20.29802,-10.23804 -5.06012,-2.4998 -5.06012,-2.38076 -7.97664,-0.89324 -2.91652,1.48753 -8.74974,4.34462 -17.14285,10.17809 -8.39311,5.83347 -19.34528,14.64282 -28.33344,21.84526 -8.98816,7.20243 -16.01183,12.79756 -23.09517,17.91663 -7.083347,5.11906 -14.22606,9.76182 -22.499745,13.33327 -8.273685,3.57144 -17.678258,6.07139 -26.963979,7.91667 -9.285721,1.84529 -18.452205,3.03574 -27.619727,4.22633"
       id="path929"
       inkscape:path-effect="#path-effect931"
       inkscape:original-d="m 1.0714286,538.57143 c 5.9533809,0.12005 11.9057614,0.23909 17.8571424,0.35714 1.31055,-2.26095 2.620048,-4.52281 3.928572,-6.78571 7.144,0.35815 14.286714,0.71528 21.428571,1.07143 3.21535,1.6677 6.429572,3.33433 9.642858,5 1.4296,-1.07045 2.858142,-2.14186 4.285714,-3.21429 12.97745,-15.59455 25.953381,-31.18948 38.928571,-46.78571 6.548753,-6.30865 13.096243,-12.61805 19.642853,-18.92857 -0.59425,-1.1895 -1.18947,-2.37996 -1.78571,-3.57143 8.5726,-5.83245 17.14386,-11.66567 25.71429,-17.5 3.5725,-6.6658 7.14385,-13.33234 10.71428,-20 -0.4752,-1.78475 -0.95138,-3.57043 -1.42857,-5.35715 1.54865,-4.761 3.09624,-9.52281 4.64286,-14.28571 1.9058,10e-4 3.81052,10e-4 5.71428,0 0.9534,-1.54665 1.90577,-3.09424 2.85715,-4.64286 -0.2371,-1.54665 -0.47519,-3.09424 -0.71429,-4.64286 2.382,-4.88005 4.76291,-9.7609 7.14286,-14.64285 -0.11805,-0.35615 -0.2371,-0.71329 -0.35715,-1.07143 -1.4276,-3.0943 -2.85614,-6.18948 -4.28571,-9.28572 -0.11805,-4.16575 -0.23709,-8.33233 -0.35714,-12.5 -2.97525,-2.8562 -5.95138,-5.71328 -8.92857,-8.57142 1.4296,-2.73715 2.85814,-5.47519 4.28571,-8.21429 -0.59425,-3.0943 -1.18948,-6.18948 -1.78571,-9.28571 -1.54665,-1.07045 -3.09424,-2.14186 -4.64286,-3.21429 0.35815,-2.6181 0.71528,-5.23709 1.07143,-7.85714 -2.38,-1.30855 -4.76091,-2.61805 -7.14286,-3.92857 -4.16575,-2.8562 -8.33233,-5.71329 -12.5,-8.57143 -1.78475,-2.8562 -3.57043,-5.71329 -5.35714,-8.57143 0.83435,-0.9514 1.66766,-1.90376 2.5,-2.85714 -1.4276,-4.761 -2.85615,-9.52281 -4.28572,-14.28572 2.02485,-6.07055 4.04862,-12.14186 6.07143,-18.21428 4.0487,-3.21335 8.09624,-6.42758 12.14286,-9.64286 2.6201,-0.7133 5.23909,-1.42757 7.85714,-2.14286 1.78675,0.83435 3.57243,1.66767 5.35714,2.5 6.54875,-2.1419 13.09624,-4.28471 19.64286,-6.42857 1.1915,-1.78475 2.38195,-3.57043 3.57143,-5.35714 2.97725,-1.07045 5.95338,-2.14186 8.92857,-3.21429 2.97725,1.4296 5.95338,2.85814 8.92857,4.28572 0.35815,-1.6657 0.71529,-3.33234 1.07143,-5 1.78675,-0.2371 3.57243,-0.47519 5.35714,-0.71429 -0.35615,-0.9514 -0.71328,-1.90376 -1.07142,-2.85714 -1.6657,10e-4 -3.33234,10e-4 -5,0 -2.97525,-4.40385 -5.95138,-8.80853 -8.92858,-13.21429 0.4772,-1.9038 0.95339,-3.80852 1.42858,-5.71428 -1.4276,-2.73715 -2.85615,-5.47519 -4.28572,-8.21429 0.83435,-7.142 1.66767,-14.28471 2.5,-21.42857 2.73915,-4.40385 5.47719,-8.80852 8.21429,-13.21429 4.64395,-2.6181 9.28671,-5.23709 13.92857,-7.85714 5.7154,-0.2371 11.42957,-0.47519 17.14286,-0.71429 4.2868,0.4772 8.57242,0.95339 12.85714,1.42858 1.9058,2.02485 3.81052,4.04862 5.71428,6.07142 1.54865,7.6202 3.09624,15.2391 4.64286,22.85715 1.78675,4.88205 3.57243,9.7629 5.35714,14.64285 0.12005,8.0964 0.2391,16.19148 0.35715,24.28572 0.12005,4.16775 0.23909,8.33433 0.35714,12.5 -1.4276,1.78675 -2.85614,3.57243 -4.28571,5.35714 3.0963,-0.2371 6.19147,-0.47519 9.28571,-0.71428 1.6677,1.78675 3.33433,3.57242 5,5.35714 1.4296,2.73915 2.85814,5.47719 4.28571,8.21428 5.0011,2.73915 10.001,5.4772 15,8.21429 2.97725,0.7153 5.95339,1.42957 8.92858,2.14286 2.50105,1.31055 5.001,2.62005 7.5,3.92857 2.26295,2.6201 4.52481,5.23909 6.78571,7.85714 1.6677,3.69155 3.33433,7.38195 5,11.07143 0.12005,1.4296 0.2391,2.85814 0.35714,4.28571 3.21535,2.02485 6.42957,4.04862 9.64286,6.07143 0.59625,3.0963 1.19148,6.19148 1.78571,9.28572 2.97725,2.6201 5.95339,5.23909 8.92858,7.85714 0.9534,4.88205 1.90576,9.76291 2.85714,14.64286 1.6677,3.3344 3.33433,6.66766 5,10 -1.30855,1.78675 -2.61805,3.57243 -3.92857,5.35714 1.9058,7.97735 3.81052,15.95338 5.71428,23.92857 -0.83235,6.31065 -1.66566,12.62005 -2.5,18.92857 -2.6181,4.40585 -5.23709,8.81053 -7.85714,13.21429 -2.49905,2.50105 -4.999,5.001 -7.5,7.5 -2.1419,0.9534 -4.28471,1.90576 -6.42857,2.85714 -1.54665,-0.11805 -3.09424,-0.23709 -4.64286,-0.35714 -2.1419,1.54865 -4.28471,3.09624 -6.42857,4.64286 -0.9514,-0.9514 -1.90376,-1.90377 -2.85714,-2.85715 -0.9514,-0.83235 -1.90376,-1.66566 -2.85715,-2.5 -0.9514,-1.4276 -1.90376,-2.85614 -2.85714,-4.28571 3.0963,-9.0468 6.19148,-18.09424 9.28572,-27.14286 -0.4752,-3.3324 -0.95138,-6.66566 -1.42858,-10 -2.1419,-0.4752 -4.28471,-0.95138 -6.42857,-1.42857 -2.6181,2.8582 -5.23709,5.71529 -7.85714,8.57143 -1.30855,2.26295 -2.61805,4.52481 -3.92857,6.78571 0.4772,1.54865 0.95338,3.09624 1.42857,4.64286 -1.1895,1.78675 -2.37995,3.57243 -3.57143,5.35714 -2.02285,1.1915 -4.04662,2.38196 -6.07143,3.57143 -2.26095,5.12015 -4.52281,10.2391 -6.78571,15.35714 0.4772,2.1439 0.95338,4.28672 1.42857,6.42858 -0.35615,4.763 -0.71329,9.52481 -1.07143,14.28571 -0.83235,0.2391 -1.66566,0.47719 -2.5,0.71429 -1.07045,3.3344 -2.14186,6.66766 -3.21428,10 1.6677,-0.35615 3.33433,-0.71329 5,-1.07143 2.26295,3.3344 4.52481,6.66766 6.78571,10 2.02485,2.6201 4.04862,5.23909 6.07143,7.85714 7.02495,4.64395 14.04862,9.28672 21.07143,13.92857 3.5725,4.0487 7.14385,8.09624 10.71428,12.14286 6.1916,7.6202 12.38196,15.23909 18.57143,22.85714 2.50105,6.54875 5.001,13.09624 7.5,19.64286 -0.2371,4.88205 -0.47519,9.7629 -0.71428,14.64286 -4.88005,10.2393 -9.76091,20.47719 -14.64286,30.71428 -6.30865,3.69155 -12.61805,7.38195 -18.92857,11.07143 -16.54695,23.93005 -33.09424,47.85814 -49.64286,71.78572 0.59625,0.12005 1.19148,0.23909 1.78571,0.35714 4.0487,7.50115 8.09624,15.001 12.14286,22.5 0.83435,1.31055 1.66767,2.62005 2.5,3.92857 6.9059,6.4297 13.81053,12.85814 20.71429,19.28571 0.4772,2.73915 0.95338,5.47719 1.42857,8.21429 -1.9038,3.3344 -3.80852,6.66767 -5.71429,10 -7.26105,-0.7133 -14.52281,-1.42757 -21.78571,-2.14286 -7.49915,-1.9038 -14.999,-3.80852 -22.5,-5.71428 -4.16575,-2.02285 -8.33233,-4.04662 -12.5,-6.07143 -1.30855,-2.02285 -2.61805,-4.04662 -3.92857,-6.07143 -3.45145,-0.2371 -6.90376,-0.47519 -10.35715,-0.71429 -5.7134,-3.21335 -11.42757,-6.42757 -17.14285,-9.64285 0.35815,0.12005 0.71528,0.23909 1.07143,0.35714 0.2391,-7.6182 0.47719,-15.2371 0.71428,-22.85714 3.3344,-9.0468 6.66767,-18.09424 10,-27.14286 8.92975,-14.0469 17.85814,-28.09424 26.78572,-42.14286 8.45355,-13.0945 16.90576,-26.18947 25.35714,-39.28571 -0.2371,-0.35615 -0.47519,-0.71329 -0.71429,-1.07143 -2.02285,-3.68955 -4.04662,-7.37995 -6.07143,-11.07143 0.001,-0.2371 0.001,-0.47519 0,-0.71428 4.5249,-3.8086 9.04862,-7.61805 13.57143,-11.42858 -0.35615,-0.35615 -0.71328,-0.71328 -1.07143,-1.07142 -5.7134,-0.83235 -11.42757,-1.66567 -17.14285,-2.5 -6.1896,-2.97525 -12.37995,-5.95139 -18.57143,-8.92858 -11.904,1.6677 -23.80852,3.33434 -35.71429,5 -0.11805,-0.11805 -0.23709,-0.23709 -0.35714,-0.35714 -10.11825,-5.11815 -20.23709,-10.23709 -30.35714,-15.35714 10e-4,0.12005 10e-4,0.23909 0,0.35714 -5.83245,2.8582 -11.66567,5.71529 -17.5,8.57143 -10.9516,8.8107 -21.90376,17.62005 -32.85715,26.42857 -7.02295,5.59635 -14.04661,11.19148 -21.07142,16.78572 -7.142004,4.64395 -14.284718,9.28671 -21.428576,13.92857 -9.40395,2.50105 -18.808523,5.001 -28.214285,7.5 -9.16585,1.1915 -18.332334,2.38195 -27.5,3.57143" />
    <path
       style="fill:#00a3e8;stroke:none;stroke-width:1px;stroke-linecap:butt;stroke-linejoin:miter;stroke-opacity:1;fill-opacity:1"
       d="M 28.571429,604.28572 17.142857,591.42857 0.35714286,587.14286 1.0714286,538.57143 Z"
       id="path935" />
    <path
       style="fill:#00a3e8;stroke:none;stroke-width:1px;stroke-linecap:butt;stroke-linejoin:miter;stroke-opacity:1;fill-opacity:1"
       d="M 1.0714286,538.57143 26.428571,575.71429 28.571429,604.28572 17.142857,591.42857 0.35714286,587.14286 1.0714286,538.57143"
       id="path937" />
  </g>
</svg>
