<?xml version="1.0" encoding="UTF-8" standalone="no"?>
<svg
   xmlns:dc="http://purl.org/dc/elements/1.1/"
   xmlns:cc="http://creativecommons.org/ns#"
   xmlns:rdf="http://www.w3.org/1999/02/22-rdf-syntax-ns#"
   xmlns:svg="http://www.w3.org/2000/svg"
   xmlns="http://www.w3.org/2000/svg"
   xmlns:sodipodi="http://sodipodi.sourceforge.net/DTD/sodipodi-0.dtd"
   xmlns:inkscape="http://www.inkscape.org/namespaces/inkscape"
   width="1024.0px"
   height="1024.0px"
   viewBox="0 0 1024.0 1024.0"
   version="1.1"
   id="SVGRoot"
   sodipodi:docname="pf_team.svg"
   inkscape:version="1.0.1 (3bc2e813f5, 2020-09-07)">
  <defs
     id="defs944">
    <inkscape:path-effect
       effect="bspline"
       id="path-effect1544"
       is_visible="true"
       lpeversion="1"
       weight="33.333333"
       steps="2"
       helper_size="0"
       apply_no_weight="true"
       apply_with_weight="true"
       only_selected="false" />
    <inkscape:path-effect
       effect="bspline"
       id="path-effect1540"
       is_visible="true"
       lpeversion="1"
       weight="33.333333"
       steps="2"
       helper_size="0"
       apply_no_weight="true"
       apply_with_weight="true"
       only_selected="false" />
    <inkscape:path-effect
       effect="bspline"
       id="path-effect975"
       is_visible="true"
       lpeversion="1"
       weight="33.333333"
       steps="2"
       helper_size="0"
       apply_no_weight="true"
       apply_with_weight="true"
       only_selected="false" />
    <pattern
       id="EMFhbasepattern"
       patternUnits="userSpaceOnUse"
       width="6"
       height="6"
       x="0"
       y="0" />
  </defs>
  <sodipodi:namedview
     id="base"
     pagecolor="#ffffff"
     bordercolor="#666666"
     borderopacity="1.0"
     inkscape:pageopacity="0.0"
     inkscape:pageshadow="2"
     inkscape:zoom="0.49497475"
     inkscape:cx="-196.18862"
     inkscape:cy="459.33796"
     inkscape:document-units="px"
     inkscape:current-layer="layer2"
     inkscape:document-rotation="0"
     showgrid="true"
     inkscape:window-width="1920"
     inkscape:window-height="1017"
     inkscape:window-x="-8"
     inkscape:window-y="-8"
     inkscape:window-maximized="1"
     inkscape:snap-grids="false"
     inkscape:snap-to-guides="true">
    <inkscape:grid
       type="xygrid"
       id="grid953" />
  </sodipodi:namedview>
  <metadata
     id="metadata947">
    <rdf:RDF>
      <cc:Work
         rdf:about="">
        <dc:format>image/svg+xml</dc:format>
        <dc:type
           rdf:resource="http://purl.org/dc/dcmitype/StillImage" />
        <dc:title></dc:title>
      </cc:Work>
    </rdf:RDF>
  </metadata>
  <g
     inkscape:groupmode="layer"
     id="layer2"
     inkscape:label="bg">
    <rect
       style="fill:#ffffff;fill-rule:evenodd;fill-opacity:1"
       id="rect24"
       width="1056.1527"
       height="1050.1016"
       x="-16.162441"
       y="-10.101525" />
  </g>
  <g
     inkscape:label="Layer 1"
     inkscape:groupmode="layer"
     id="layer1">
    <path
       style="fill:#e8ad67;stroke:none;stroke-width:1px;stroke-linecap:butt;stroke-linejoin:miter;stroke-opacity:1;fill-opacity:1"
       d="m 61.109844,405.50201 c -2.351638,-0.93592 -5.213736,-0.93592 -10.26481,0.49506 -5.051075,1.43097 -12.290355,4.29301 -17.593662,6.31333 -5.303308,2.02032 -8.670412,3.19881 -12.037309,3.03081 -3.366896,-0.168 -6.734004,-1.6832 -9.644587,-3.24419 -2.9105821,-1.56099 -5.3644236,-3.16789 -7.1867616,-4.71526 -1.8223381,-1.54736 -3.0127871,-3.03542 -3.66796744,-5.14858 -0.65518033,-2.11315 -0.77422563,-4.85119 0.1185547,-7.61948 0.89278034,-2.7683 2.79750224,-5.56586 3.86920764,-7.02441 1.0717054,-1.45854 1.3097942,-1.57758 2.9470811,-1.45837 1.6372869,0.11922 4.6729406,0.47636 7.0241436,0.74421 2.351203,0.26785 4.017837,0.44642 5.476135,0.53564 1.458299,0.0892 2.708274,0.0892 3.332774,0.47665 0.6245,0.38741 0.6245,1.1612 0.148435,1.84515 -0.476066,0.68394 -1.42843,1.27917 -1.368504,1.60666 0.05993,0.3275 1.131335,0.38702 9.196624,-3.51199 8.065289,-3.89902 23.124512,-11.756 30.684341,-15.65422 7.559828,-3.89822 7.619363,-3.83869 11.131278,-4.19638 3.511916,-0.3577 10.476061,-1.1315 15.148366,-2.35177 4.672304,-1.22028 7.053208,-2.88691 8.779715,-3.80953 1.726507,-0.92262 2.797912,-1.10118 3.422442,-1.72572 0.62453,-0.62454 0.80309,-1.69595 1.4284,-2.47027 0.62531,-0.77433 1.69672,-1.25051 2.2175,-1.48115 0.52078,-0.23065 0.49106,-0.21581 0.31234,-1.62144 -0.17871,-1.40564 -0.50608,-4.23296 -0.53598,-6.39087 -0.0299,-2.15791 0.23796,-3.64597 0.19399,-4.45715 -0.044,-0.81119 -0.4011,-0.94511 -0.55054,-1.64428 -0.14944,-0.69917 -0.0899,-1.96403 0.0737,-2.81258 0.16363,-0.84856 0.43149,-1.2801 0.57293,-2.32886 0.14145,-1.04877 0.15631,-2.7154 0.31991,-4.11438 0.1636,-1.39898 0.47609,-2.52991 0.81897,-2.92411 0.34288,-0.3942 0.7149,-0.0519 1.0491,-0.31255 0.3342,-0.26062 0.63182,-1.12369 0.83324,-2.28158 0.20143,-1.15789 0.30653,-2.61085 1.02198,-4.20059 0.71545,-1.58973 2.04125,-3.31537 3.46198,-4.65189 1.42073,-1.33651 2.93593,-2.28352 5.12493,-2.92536 2.18899,-0.64184 5.05103,-0.97855 7.32404,-0.93625 2.27302,0.0423 3.95657,0.46318 5.76645,1.22099 1.80989,0.75782 3.74597,1.85213 5.66095,3.45175 1.91498,1.59962 3.80898,3.70406 5.15566,5.61923 1.34669,1.91518 2.14638,3.64082 2.48278,5.59788 0.33641,1.95706 0.21015,4.14568 -0.46336,6.20776 -0.6735,2.06207 -1.89408,3.99816 -2.90394,5.1554 -1.00986,1.15723 -1.80955,1.53603 -1.93544,1.89426 -0.1259,0.35823 0.42126,0.69494 0.42061,1.22078 -6.5e-4,0.52585 -0.5478,1.24136 -1.41065,2.3778 -0.86285,1.13644 -2.04134,2.69373 -3.24081,3.9984 -1.19947,1.30468 -2.42005,2.3569 -3.32456,2.90407 -0.90452,0.54717 -1.49376,0.58925 -2.18866,0.94702 -0.69491,0.35776 -1.49459,1.03119 -1.8313,1.99984 -0.33671,0.96866 -0.21044,2.23133 0.0635,3.13627 0.27396,0.90495 0.69485,1.4521 0.92593,2.46223 0.23108,1.01013 0.27317,2.48324 1.55746,4.25095 1.28429,1.76772 3.80962,3.83007 6.60862,6.06084 2.799,2.23077 5.87149,4.62983 8.18649,6.20806 2.31499,1.57823 3.87228,2.33583 6.27081,1.03073 2.39854,-1.30509 5.63938,-4.6722 10.31151,-8.50248 4.67212,-3.83029 10.77501,-8.12335 16.09936,-12.10084 5.32435,-3.97749 9.86994,-7.63922 12.1852,-9.40636 2.31527,-1.76714 2.39944,-1.64088 3.19872,-7.49161 0.79928,-5.85073 2.31448,-17.6777 3.40881,-25.82212 1.09433,-8.14441 1.76775,-12.60583 2.10453,-14.85755 0.33678,-2.25171 0.33678,-2.29381 -0.84117,-3.05156 -1.17795,-0.75776 -3.53492,-2.23087 -4.65096,-3.2831 -1.11604,-1.05223 -0.98977,-1.68356 -0.35797,-2.12597 0.6318,-0.44242 1.7682,-0.69495 2.93353,-0.67436 1.16534,0.0206 2.3591,0.31382 3.62514,-0.0309 1.26605,-0.34467 2.60531,-1.3268 3.52774,-2.41281 0.92244,-1.08601 1.42838,-2.27646 1.26538,-2.99083 -0.163,-0.71436 -0.99632,-0.95245 -1.41358,-1.56225 -0.41726,-0.6098 -0.41726,-1.59192 0.23793,-2.18772 0.65518,-0.59581 1.96468,-0.80414 3.00655,-0.74429 1.04187,0.0598 1.81566,0.38722 2.99127,0.83361 1.1756,0.4464 2.75295,1.01186 4.64285,1.87507 1.88991,0.86321 4.09224,2.0239 5.43137,2.90211 1.33913,0.87822 1.81532,1.47345 2.02319,2.57458 0.20788,1.10114 0.14835,2.70825 0.61021,3.95826 0.46186,1.25001 1.44398,2.14284 1.78564,3.27371 0.34166,1.13086 0.044,2.49988 -0.78931,5.92253 -0.83335,3.42266 -2.20238,8.89874 -3.33332,14.19645 -1.13094,5.29772 -2.02378,10.41667 -2.48503,15.10431 -0.46124,4.68763 -0.49101,8.9435 -0.95242,12.90173 -0.4614,3.95823 -1.35424,7.61887 -2.51496,10.47578 -1.16071,2.85691 -2.58925,4.91044 -4.15155,6.443 -1.56229,1.53255 -3.25869,2.54444 -6.39872,4.985 -3.14003,2.44057 -7.72327,6.30954 -11.25014,9.55367 -3.52687,3.24413 -5.99706,5.86312 -8.40777,8.3036 -2.41072,2.44047 -4.76186,4.70233 -8.03177,7.82615 -3.26992,3.12382 -7.45839,7.10942 -11.82554,11.12258 -4.36715,4.01316 -8.91275,8.05369 -11.81707,11.16854 -2.90432,3.11484 -4.16699,5.30346 -5.30343,7.60798 -1.13645,2.30453 -2.14658,4.72463 -3.55659,9.65983 -1.41001,4.9352 -3.21983,12.38493 -4.67192,19.18252 -1.45208,6.79759 -2.54639,12.94256 -5.19811,19.80302 -2.65171,6.86047 -6.8606,14.43647 -8.88077,19.44553 -2.02017,5.00905 -1.85182,7.4502 0.25316,10.81741 2.10497,3.3672 6.1455,7.66026 8.6709,10.31191 2.52541,2.65164 3.53554,3.66178 4.16651,4.79828 0.63096,1.13651 0.88349,2.39918 0.54683,3.2824 -0.33667,0.88322 -1.26263,1.38828 -1.26259,3.0305 3e-5,1.64222 0.92599,4.42009 2.18865,8.75538 1.26267,4.33528 2.86204,10.22773 3.85882,17.22418 0.99679,6.99646 1.39119,15.09662 1.73728,20.09922 0.34608,5.00261 0.6437,6.90733 -0.87438,11.13322 -1.51808,4.22589 -4.85134,10.77337 -11.369,16.48741 -6.51765,5.71404 -16.21984,10.5949 -22.02347,13.57111 -5.80362,2.9762 -7.70835,4.04762 -10.80377,6.54773 -3.095423,2.50011 -7.381052,6.4286 -10.416881,9.70256 -3.035829,3.27397 -4.821505,5.89296 -5.654264,7.20237 -0.832759,1.30942 -0.713714,1.30942 1.13151,3.45286 1.845224,2.14344 5.416581,6.42907 7.380468,10.59578 1.963887,4.16671 2.321022,8.21424 1.666291,10.83269 -0.654732,2.61846 -2.321363,3.80891 -4.344696,4.04724 -2.023332,0.23834 -4.404236,-0.47594 -11.130585,-5.9519 -6.726349,-5.47597 -17.797552,-15.71386 -23.571745,-21.84473 -5.774192,-6.13087 -6.250373,-8.15464 -4.345806,-13.45273 1.904566,-5.29809 6.190196,-13.86935 8.274128,-18.21429 2.083932,-4.34494 1.964888,-4.46398 7.797945,-8.57178 5.833057,-4.1078 17.618538,-12.20287 25.952123,-17.02434 8.333584,-4.82147 13.214442,-6.36906 15.536062,-7.14277 2.32161,-0.77371 2.08352,-0.77371 -1.30959,-7.08276 -3.39312,-6.30905 -9.940608,-18.92785 -13.810017,-24.52362 -3.86941,-5.59577 -5.059862,-4.16723 -8.809282,-4.58375 -3.749421,-0.41653 -10.058818,-2.67839 -13.154156,-3.74953 -3.095338,-1.07114 -2.976295,-0.9521 -11.36969,4.46409 -8.393394,5.4162 -25.297817,16.13027 -35.714278,21.90409 -10.41646,5.77382 -14.3449517,6.60714 -16.9637879,6.786 -2.6188363,0.17887 -3.92833377,-0.29731 -4.58369786,-7.1424 -0.6553641,-6.84509 -0.6553641,-20.05912 0.1785784,-26.19022 0.83394246,-6.1311 2.50057546,-5.17874 8.33340776,-9.88156 5.8328326,-4.70281 15.8326286,-15.05975 20.4164646,-20.6545 4.583835,-5.59476 3.750522,-6.42807 6.547753,-9.52391 2.79723,-3.09583 9.22567,-8.45287 15.237501,-15.53612 6.011831,-7.08325 11.606954,-15.89259 15.535535,-22.4402 3.92858,-6.54761 6.190441,-10.83324 7.32149,-14.4639 C 75,435.59618 75,432.62005 74.107467,429.5844 c -0.892534,-3.03566 -2.678213,-6.13084 -3.987942,-9.37492 -1.309728,-3.24409 -2.143045,-6.63688 -3.47997,-9.26882 -1.336925,-2.63194 -3.178072,-4.50273 -5.529711,-5.43865 z"
       id="path973"
       inkscape:path-effect="#path-effect975"
       inkscape:original-d="m 61.619305,404.56609 c -2.861099,0.001 -5.723197,0.001 -8.586296,0 -7.238572,2.86316 -14.477853,5.7252 -21.71828,8.5863 -3.366243,1.17954 -6.73335,2.35802 -10.101526,3.53554 -3.366242,-1.51426 -6.73335,-3.02946 -10.101525,-4.54569 C 8.6587363,410.53627 6.2048927,408.92937 3.75,407.32143 2.5605,405.8343 1.3700476,404.34624 0.17857143,402.85714 c -0.11805,-2.73715 -0.23709524,-5.47519 -0.35714286,-8.21428 1.90580003,-2.79668 3.81052383,-5.59424 5.71428573,-8.39286 0.2391,-0.11805 0.4771905,-0.23709 0.7142857,-0.35714 3.036775,0.35815 6.072429,0.71528 9.107143,1.07143 1.6677,0.17957 3.334333,0.35814 5,0.53571 1.251025,10e-4 2.501,10e-4 3.75,0 10e-4,0.77483 10e-4,1.54862 0,2.32143 -0.9514,0.59625 -1.903762,1.19148 -2.857143,1.78571 1.07245,0.0605 2.143857,0.12005 3.214286,0.17858 15.060825,-7.8563 30.120047,-15.71329 45.178571,-23.57143 0.06052,0.0605 0.120048,0.12004 0.178572,0.17857 6.965425,-0.77283 13.929571,-1.54662 20.892857,-2.32143 2.382,-1.6657 4.762905,-3.33233 7.142857,-5 1.07245,-0.17758 2.143857,-0.35614 3.214287,-0.53571 0.17957,-1.07045 0.35814,-2.14186 0.53571,-3.21429 1.07245,-0.4752 2.14386,-0.95138 3.21429,-1.42857 -0.0288,0.0159 -0.0585,0.0308 -0.0893,0.0446 -0.32638,-2.82644 -0.65376,-5.65376 -0.98214,-8.48214 0.26886,-1.48713 0.53671,-2.97519 0.80357,-4.46429 -0.35615,-0.13293 -0.71328,-0.26685 -1.07143,-0.40178 0.0605,-1.26391 0.12005,-2.52877 0.17857,-3.79465 0.26887,-0.43055 0.53672,-0.86209 0.80358,-1.29464 0.0159,-1.6657 0.0308,-3.33233 0.0446,-5 0.31351,-1.12997 0.626,-2.2609 0.9375,-3.39286 0.37303,0.34327 0.74505,0.68553 1.11607,1.02679 0.29863,-0.86211 0.59624,-1.72519 0.89286,-2.58929 0.1061,-1.45201 0.21119,-2.90497 0.31529,-4.35896 1.32685,-1.72471 2.65265,-3.45035 3.97748,-5.17703 1.51625,-0.94604 3.03145,-1.89304 4.54568,-2.84106 2.86316,-0.33572 5.7252,-0.67243 8.5863,-1.01015 1.68462,0.42191 3.36817,0.8428 5.05076,1.26269 1.93717,1.09536 3.87325,2.18967 5.80838,3.283 1.89507,2.10553 3.78907,4.20997 5.68211,6.31345 0.80072,1.72671 1.6004,3.45236 2.39911,5.17703 -0.12527,2.18971 -0.25154,4.37833 -0.37881,6.566 -1.21962,1.93716 -2.4402,3.87325 -3.6618,5.80837 -0.79872,0.37982 -1.59841,0.75862 -2.39911,1.13642 0.54817,0.33773 1.09533,0.67444 1.64149,1.01016 -0.54617,0.71654 -1.09333,1.43205 -1.64149,2.14657 -1.17754,1.55835 -2.35603,3.11564 -3.53554,4.67196 -1.21962,1.05326 -2.4402,2.10548 -3.6618,3.15672 -0.58827,0.0431 -1.17751,0.0852 -1.76777,0.12627 -0.79872,0.67445 -1.59841,1.34787 -2.39911,2.02031 0.12727,1.26371 0.25354,2.52638 0.37881,3.78807 0.4219,0.54818 0.84279,1.09533 1.26269,1.6415 0.0431,1.47417 0.0852,2.94728 0.12627,4.41941 2.52643,2.06344 5.05176,4.12579 7.57614,6.18719 3.07361,2.40016 6.1461,4.79922 9.21764,7.19734 1.55835,0.75863 3.11564,1.51622 4.67196,2.27284 3.24197,-3.36624 6.48281,-6.73335 9.72272,-10.10153 6.10412,-4.29223 12.20701,-8.58529 18.30901,-12.87944 4.54678,-3.66088 9.09237,-7.32261 13.63706,-10.98541 0.0852,0.12727 0.16936,0.25354 0.25254,0.37881 1.51626,-11.82644 3.03146,-23.65341 4.54569,-35.48161 0.67444,-4.4606 1.34787,-8.92202 2.0203,-13.38452 0.001,-0.0411 0.001,-0.0832 0,-0.12627 -2.35607,-1.47217 -4.71304,-2.94528 -7.07107,-4.41942 0.12727,-0.63036 0.25354,-1.26169 0.37881,-1.89404 1.13744,-0.25154 2.27384,-0.50407 3.40927,-0.75761 1.1948,0.29425 2.38856,0.58749 3.58134,0.87973 1.34032,-0.98116 2.67958,-1.96329 4.01786,-2.94643 0.50696,-1.1895 1.01291,-2.37995 1.51786,-3.57143 -0.83235,-0.2371 -1.66567,-0.47519 -2.5,-0.71428 0.001,-0.98117 0.001,-1.96329 0,-2.94643 1.31055,-0.20734 2.62005,-0.41567 3.92857,-0.625 0.77483,0.32839 1.54862,0.65576 2.32143,0.98214 1.57841,0.56649 3.15576,1.13195 4.73214,1.69643 2.20343,1.16174 4.40576,2.32243 6.60714,3.48214 0.4772,0.59625 0.95339,1.19148 1.42858,1.78572 -0.0585,1.60817 -0.11805,3.21528 -0.17858,4.82143 0.98317,0.89387 1.96529,1.78671 2.94643,2.67857 -0.29662,1.37007 -0.59423,2.73909 -0.89285,4.10714 -1.36808,5.4773 -2.7371,10.95338 -4.10715,16.42857 -0.89187,5.12015 -1.78471,10.2391 -2.67857,15.35714 -0.0288,4.25704 -0.0585,8.51291 -0.0893,12.76786 -0.89188,3.66179 -1.78472,7.32243 -2.67858,10.98214 -1.4276,2.05462 -2.85614,4.10815 -4.28571,6.16072 -1.69546,1.01292 -3.39186,2.02481 -5.08929,3.03571 -4.58242,3.87013 -9.16566,7.7391 -13.75,11.60715 -2.46928,2.6201 -4.93947,5.23909 -7.41071,7.85714 -2.35024,2.26295 -4.70138,4.52481 -7.05357,6.78571 -4.18764,3.98675 -8.37612,7.97234 -12.56568,11.95701 -4.54477,4.04169 -9.09037,8.08222 -13.63706,12.12183 -1.26171,2.1897 -2.52438,4.37832 -3.78807,6.56599 -1.00917,2.4212 -2.0193,4.84131 -3.03046,7.26047 -1.80889,7.45102 -3.61871,14.90075 -5.42957,22.34962 -1.09335,6.14622 -2.18766,12.29119 -3.28299,18.43529 -4.20806,7.57729 -8.41694,15.15329 -12.62691,22.72843 0.16936,2.44225 0.33772,4.8834 0.50508,7.32361 4.04169,4.29423 8.08222,8.58729 12.12183,12.87944 1.01117,1.01117 2.0213,2.02131 3.03046,3.03046 0.25354,1.26371 0.50607,2.52638 0.75761,3.78807 -0.92499,0.50609 -1.85095,1.01115 -2.77792,1.51523 0.92699,2.77897 1.85295,5.55684 2.77792,8.33376 1.60044,5.89367 3.19982,11.78611 4.79822,17.67767 0.39543,8.10149 0.78984,16.20165 1.18325,24.30098 0.29863,1.9058 0.59624,3.81052 0.89286,5.71429 -3.3324,6.54875 -6.66567,13.09623 -10,19.64285 -9.70157,4.88205 -19.40376,9.76291 -29.10714,14.64286 -1.9038,1.07245 -3.80853,2.14386 -5.714288,3.21429 -4.2848,3.92965 -8.570429,7.85814 -12.857143,11.78571 -1.78475,2.6201 -3.570429,5.23909 -5.357143,7.85714 0.12005,10e-4 0.239095,10e-4 0.357143,0 3.5725,4.2868 7.143857,8.57243 10.714285,12.85715 0.35815,4.0487 0.715286,8.09623 1.071429,12.14285 -1.6657,1.1915 -3.332333,2.38195 -5,3.57143 -2.38,-0.7133 -4.760905,-1.42757 -7.142857,-2.14286 C 69.643636,652.61984 58.572429,642.38195 47.5,632.14286 c -0.4752,-2.02285 -0.951381,-4.04662 -1.428571,-6.07143 4.2868,-8.5706 8.572428,-17.14186 12.857143,-25.71429 -0.11805,-0.11805 -0.237096,-0.23709 -0.357143,-0.35714 11.78695,-8.0944 23.572428,-16.18948 35.357143,-24.28571 4.88205,-1.54665 9.762908,-3.09424 14.642858,-4.64286 -0.2371,0.001 -0.47519,0.001 -0.71429,0 -6.54675,-12.6183 -13.094235,-25.2371 -19.642854,-37.85714 -1.1895,1.4296 -2.379953,2.85814 -3.571429,4.28571 -6.30865,-2.26095 -12.618047,-4.52281 -18.928571,-6.78571 0.12005,0.12005 0.239095,0.23909 0.357143,0.35714 -16.9041,10.7155 -33.808524,21.42957 -50.714286,32.14286 -3.92765,0.83435 -7.856143,1.66766 -11.7857144,2.5 -1.30855,-0.4752 -2.61804765,-0.95138 -3.92857146,-1.42857 0.001,-13.21355 0.001,-26.42758 0,-39.64286 1.66769996,0.9534 3.33433336,1.90576 5.00000006,2.85714 10.0011998,-10.35635 20.0009998,-20.71328 29.9999998,-31.07143 -0.83235,-0.83235 -1.665666,-1.66566 -2.5,-2.5 6.4297,-5.35625 12.858143,-10.71328 19.285715,-16.07143 5.59635,-8.8087 11.191476,-17.61804 16.785714,-26.42857 2.26295,-4.2848 4.524809,-8.57043 6.785714,-12.85714 0.001,-2.97525 0.001,-5.95138 0,-8.92857 -1.78475,-3.0943 -3.570428,-6.18948 -5.357143,-9.28572 -0.83235,-3.39192 -1.665666,-6.78471 -2.5,-10.17857 -1.840221,-1.86986 -3.681368,-3.74065 -5.523552,-5.61248 z" />
    <path
       style="fill:#e8ad67;stroke:none;stroke-width:1px;stroke-linecap:butt;stroke-linejoin:miter;stroke-opacity:1;fill-opacity:1"
       d="m 159.09938,605.25033 c -1.38862,-2.35644 -4.16653,-7.07048 -5.85027,-10.29035 -1.68374,-3.21987 -2.27298,-4.94551 -1.47357,-8.52353 0.79942,-3.57803 2.98804,-9.00749 3.72526,-11.99569 0.73722,-2.98821 0.0217,-3.53536 0.12631,-5.76622 0.10459,-2.23086 1.03055,-6.14512 2.63003,-9.42846 1.59948,-3.28335 3.87227,-5.93493 6.52428,-7.78704 2.65201,-1.8521 5.6824,-2.90432 10.52273,-4.86152 4.84033,-1.9572 11.49037,-4.81925 15.44648,-7.32335 3.95611,-2.5041 5.21878,-4.65063 7.47116,-5.8609 2.25238,-1.21028 5.49322,-1.48385 7.13426,-1.64166 1.64105,-0.1578 1.68315,-0.1999 4.46102,-5.37684 2.77787,-5.17695 8.2915,-15.48871 12.45842,-22.98076 4.16692,-7.49205 6.98688,-12.16391 7.966,-15.00458 0.97911,-2.84068 0.11629,-3.85081 -0.32609,-4.79786 -0.44238,-0.94705 -0.46341,-1.83092 0.39952,-2.91531 0.86293,-1.0844 2.60962,-2.36811 5.156,-4.68301 2.54637,-2.31491 5.89243,-5.66097 7.32361,-8.38572 1.43118,-2.72474 0.94716,-4.82918 1.27066,-7.04638 0.3235,-2.21719 1.45495,-4.54626 2.75975,-7.17691 1.30479,-2.63064 2.78285,-5.56269 3.70079,-7.32342 0.91793,-1.76073 1.27569,-2.34998 1.98128,-2.65528 0.70559,-0.30529 1.75781,-0.32633 2.35703,-0.75734 0.59923,-0.43101 0.74654,-1.27279 1.4833,-2.14663 0.73676,-0.87385 2.06256,-1.77876 3.37834,-2.10477 1.31578,-0.326 2.62053,-0.0735 4.28248,-1.1784 1.66194,-1.10494 3.68221,-3.56714 4.75549,-5.3661 1.07329,-1.79896 1.19955,-2.93535 0.8843,-4.08217 -0.31525,-1.14682 -1.07285,-2.30426 -1.7361,-2.65212 -0.66324,-0.34786 -1.23144,0.11512 -1.91555,0.9992 -0.6841,0.88408 -1.48379,2.18883 -2.72535,3.63027 -1.24155,1.44143 -2.92511,3.01977 -4.16658,4.00879 -1.24147,0.98903 -2.04116,1.38887 -3.53497,1.25236 -1.49381,-0.13652 -3.68243,-0.80994 -7.17599,-1.30464 -3.49356,-0.49471 -8.29169,-0.81038 -11.5221,-0.9998 -3.23041,-0.18942 -4.89292,-0.25255 -6.83956,-1.16761 -1.94664,-0.91505 -4.17735,-2.68278 -6.19776,-4.62935 -2.02042,-1.94656 -3.83024,-4.07205 -5.55583,-5.75576 -1.72559,-1.68372 -3.36706,-2.92534 -4.30417,-3.3992 -0.9371,-0.47387 -1.16859,-0.17924 -0.77865,0.3683 0.38994,0.54754 1.40007,1.34723 2.11555,1.9576 0.71548,0.61037 1.13637,1.03126 1.13576,1.70443 -6.1e-4,0.67317 -0.4215,1.59912 -0.87328,1.90442 -0.45179,0.3053 -0.93581,-0.0104 -1.23108,0.16856 -0.29527,0.17891 -0.4005,0.85234 -0.94743,1.45162 -0.54692,0.59927 -1.53602,1.12538 -2.53527,1.30445 -0.99925,0.17907 -2.00938,0.0107 -3.50847,-0.80986 -1.49908,-0.82057 -3.48701,-2.29395 -4.94241,-3.58113 -1.45541,-1.28718 -2.37802,-2.38835 -2.63151,-4.24863 -0.25349,-1.86027 0.16317,-4.47926 0.86255,-6.94969 0.69938,-2.47043 1.6815,-4.79181 3.13998,-6.81591 1.45849,-2.0241 3.39298,-3.75026 5.37257,-4.73242 1.97959,-0.98217 4.00336,-1.22026 6.32495,-1.13083 2.32158,0.0894 4.94058,0.50609 7.4555,0.95255 2.51491,0.44646 4.92557,0.92264 8.16957,1.10108 3.244,0.17844 7.3213,0.0594 9.64283,0.0595 2.32153,1.4e-4 2.88699,0.11918 3.36312,0.35764 0.47614,0.23846 0.86303,0.59559 1.94874,-1.14578 1.08571,-1.74137 2.87139,-5.58058 4.27021,-8.899 1.39882,-3.31841 2.4107,-6.11598 3.49702,-9.12196 1.08632,-3.00599 2.24701,-6.22021 3.64587,-8.98827 1.39886,-2.76806 3.03573,-5.08944 5.4021,-7.03906 2.36637,-1.94962 5.46154,-3.52697 7.20274,-4.37518 1.74119,-0.84822 2.12809,-0.96726 3.39283,-1.66667 1.26474,-0.69941 3.40755,-1.97915 5.72923,-2.88688 2.32168,-0.90774 4.82163,-1.44344 6.83011,-2.93135 2.00849,-1.4879 3.52631,-3.92832 5.52082,-5.47618 1.9945,-1.54785 4.46469,-2.2026 5.16428,-2.96101 0.6996,-0.7584 -0.3718,-1.62148 -0.99728,-2.72257 -0.62548,-1.10109 -0.80405,-2.44035 -1.10158,-3.83913 -0.29753,-1.39879 -0.71418,-2.85709 -1.08628,-4.47915 -0.37209,-1.62206 -0.69946,-3.40775 -0.93764,-5.93759 -0.23818,-2.52985 -0.38698,-5.8036 0.13374,-8.76522 0.52072,-2.96163 1.71117,-5.61038 2.93145,-7.85755 1.22028,-2.24716 2.47025,-4.09236 4.18184,-5.59555 1.71158,-1.5032 3.88416,-2.66389 5.9678,-3.31859 2.08363,-0.6547 4.07763,-0.80351 6.01229,-0.71409 1.93465,0.0894 3.80961,0.4168 5.63999,1.2058 1.83037,0.78901 3.61605,2.03898 5.34217,3.55697 1.72611,1.51799 3.39275,3.30368 4.61285,4.88115 1.2201,1.57747 1.99389,2.94649 2.30602,4.82139 0.31214,1.87489 0.16333,4.25579 0.0592,6.11594 -0.10416,1.86014 -0.16368,3.1994 0.0602,3.95807 0.22384,0.75866 0.72979,0.93723 0.95239,2.27682 0.2226,1.33959 0.16308,3.83954 0.22268,5.81878 0.0596,1.97925 0.23817,3.43755 0.015,4.38931 -0.22319,0.95177 -0.84818,1.39819 -1.13099,2.23213 -0.2828,0.83394 -0.22328,2.05415 0.81898,3.00621 1.04226,0.95207 3.06603,1.63658 4.82194,2.58922 1.75592,0.95263 3.24398,2.17285 4.00239,3.289 0.7584,1.11615 0.78816,2.12803 0.74347,3.30358 -0.0447,1.17554 -0.16374,2.5148 0.20893,3.33301 0.37267,0.81822 1.23575,1.11583 2.3816,1.59209 1.14586,0.47627 2.5744,1.13102 5.01208,2.30705 2.43768,1.17604 5.88434,2.87323 8.37578,4.42704 2.49144,1.55382 4.02768,2.96379 5.20596,4.56334 1.17828,1.59955 1.99901,3.38833 2.48281,5.18762 0.48379,1.79928 0.6311,3.6091 0.59945,5.52411 -0.0317,1.91501 -0.24211,3.93528 -1.32782,6.50467 -1.08571,2.56939 -3.04652,5.68835 -3.95242,8.15602 -0.90589,2.46767 -0.75708,4.28311 -0.95067,6.26212 -0.19359,1.97901 -0.7293,4.12182 -1.2799,6.48794 -0.55059,2.36612 -1.11606,4.95535 -1.97909,6.85976 -0.86304,1.90441 -2.02373,3.12463 -2.79761,4.59822 -0.77389,1.47359 -1.16078,3.19974 -1.68164,4.92585 -0.52086,1.72611 -1.17561,3.45227 -1.68153,5.47625 -0.50592,2.02397 -0.86305,4.34535 -1.3988,6.88996 -0.53575,2.54461 -1.25002,5.31241 -2.06848,7.5295 -0.81847,2.2171 -1.74107,3.88374 -2.8719,5.29724 -1.13084,1.41349 -2.47009,2.57418 -4.16641,3.71997 -1.69631,1.14578 -3.74985,2.27671 -5.41677,3.79479 -1.66693,1.51809 -2.94667,3.42282 -3.80978,5.29808 -0.86311,1.87526 -1.30953,3.72047 -1.16293,4.80631 0.1466,1.08585 0.88481,1.41248 1.31655,1.96543 0.43174,0.55296 0.558,1.3316 0.6421,3.09934 0.0841,1.76774 0.12619,4.52456 -0.23163,6.35501 -0.35782,1.83045 -1.11542,2.73536 -2.00988,3.98762 -0.89445,1.25226 -1.92563,2.85163 -2.9879,3.72481 -1.06227,0.87318 -2.15658,1.02049 -2.26174,1.57877 -0.10516,0.55828 0.7787,1.52632 1.84157,2.45219 1.06287,0.92586 2.30449,1.80972 3.01952,2.96736 0.71503,1.15763 0.90443,2.58865 1.41052,4.17964 0.50609,1.59099 1.32841,3.34176 1.4118,5.03529 0.0834,1.69353 -0.57135,3.3304 -0.63069,5.97955 -0.0593,2.64914 0.47638,6.30978 1.17579,10.98246 0.69942,4.67269 1.5625,10.3571 2.00885,15.43148 0.44634,5.07439 0.47611,9.53859 -0.10436,13.7051 -0.58046,4.16652 -1.77092,8.03549 -3.37798,10.96674 -1.60706,2.93125 -3.63084,4.92526 -6.04165,14.40501 -2.41081,9.47974 -5.20837,26.44368 -6.04148,37.09867 -0.8331,10.65499 0.29784,15.00015 1.96482,18.51203 1.66698,3.51188 3.86932,6.19041 5.86327,9.07739 1.99396,2.88698 3.77964,5.98216 5.56544,8.77977 1.78579,2.79762 3.57147,5.29757 4.55328,7.32138 0.9818,2.02381 1.16037,3.5714 0.7138,5.08881 -0.44657,1.51742 -1.51798,3.00549 -3.0058,4.19578 -1.48783,1.19029 -3.39256,2.08313 -6.48747,1.93457 -3.0949,-0.14855 -7.38054,-1.33901 -10.8627,-2.32115 -3.48217,-0.98214 -6.16069,-1.75594 -7.44114,-2.26186 -1.28046,-0.50593 -1.16141,-0.74402 -1.78612,-2.82699 -0.6247,-2.08298 -1.99372,-6.01147 -3.48149,-8.06558 -1.48777,-2.05411 -3.09488,-2.23268 -4.91045,-3.42272 -1.81557,-1.19004 -3.83934,-3.39238 -5.00049,-6.48764 -1.16116,-3.09526 -1.45877,-7.08328 -1.2208,-10.41685 0.23797,-3.33356 1.01176,-6.01208 1.90462,-8.63122 0.89285,-2.61914 1.90474,-5.17861 2.64882,-7.73803 0.74408,-2.55941 1.22026,-5.11889 1.51795,-8.63075 0.29768,-3.51186 0.41672,-7.97605 0.68457,-13.48209 0.26785,-5.50604 0.6845,-12.05353 1.19042,-16.8453 0.50591,-4.79178 1.10113,-7.82743 0.50645,-10.23805 -0.59468,-2.41062 -2.38036,-4.1963 -3.49151,-7.01812 -1.11115,-2.82181 -1.54685,-6.67967 -1.65958,-9.74519 -0.11273,-3.06551 0.0977,-5.33831 0.5396,-7.52714 0.44189,-2.18882 1.11531,-4.29326 0.25309,-6.37657 -0.86223,-2.08331 -3.2613,-4.14567 -5.28191,-7.21811 -2.02061,-3.07244 -3.66208,-7.15507 -5.11424,-11.19572 -1.45216,-4.04065 -2.71483,-8.03909 -5.19789,-9.87063 -2.48307,-1.83154 -6.18689,-1.49483 -8.75492,-4e-4 -2.56803,1.49443 -3.99905,4.14603 -5.13479,5.26152 -1.13573,1.11549 -1.97751,0.69461 -3.78807,2.5885 -1.81056,1.8939 -4.58843,6.10279 -7.07172,9.6804 -2.4833,3.57762 -4.67192,6.52384 -7.47094,10.79606 -2.79903,4.27222 -6.20823,9.87003 -10.16461,14.85755 -3.95638,4.98752 -8.45989,9.36477 -12.26878,12.16365 -3.80889,2.79888 -6.92346,4.01945 -10.2696,5.24007 -3.34613,1.22062 -6.92369,2.4412 -8.71279,3.0942 -1.78911,0.653 -1.78911,0.73715 -2.60936,0.0216 -0.82024,-0.71556 -2.46171,-2.23076 -6.60773,-2.39965 -4.14602,-0.1689 -10.79606,1.00959 -14.11912,1.63131 -3.32306,0.62172 -3.3183,0.68535 -3.52433,3.27668 -0.20603,2.59134 -0.62269,7.71028 -1.12867,12.53173 -0.50597,4.82144 -1.1012,9.34516 -2.20242,12.76748 -1.10122,3.42232 -2.70833,5.7437 -4.58307,7.41017 -1.87473,1.66647 -4.01755,2.67836 -5.92995,3.08322 -1.9124,0.40487 -3.59494,0.20236 -4.43677,0.10104 -0.84184,-0.10132 -0.84192,-0.10136 -2.23053,-2.45779 z"
       id="path1538"
       inkscape:path-effect="#path-effect1540"
       inkscape:original-d="m 160.48799,607.60676 c -2.77692,-4.71305 -5.55484,-9.42709 -8.33376,-14.14214 -0.58827,-1.72471 -1.17751,-3.45035 -1.76777,-5.17703 2.18971,-5.42868 4.37833,-10.85814 6.56599,-16.28871 -0.71454,-0.54618 -1.43005,-1.09333 -2.14657,-1.6415 0.92699,-3.91342 1.85294,-7.82768 2.77792,-11.74302 2.27389,-2.65071 4.54668,-5.3023 6.81853,-7.95495 3.03152,-1.05127 6.06191,-2.10349 9.09137,-3.15673 6.6513,-2.86116 13.30134,-5.7232 19.95051,-8.5863 1.26372,-2.14561 2.52638,-4.29214 3.78807,-6.43972 3.24198,-0.27259 6.48282,-0.54616 9.72272,-0.82075 0.0431,-0.0411 0.0852,-0.0832 0.12627,-0.12627 5.51486,-10.31118 11.0285,-20.62294 16.54125,-30.93592 2.82107,-4.67105 5.64102,-9.34291 8.46003,-14.01586 -0.86186,-1.00918 -1.72468,-2.01931 -2.58852,-3.03046 -0.02,-0.8829 -0.0411,-1.76677 -0.0631,-2.65165 1.74775,-1.28276 3.49444,-2.56647 5.24016,-3.85121 3.3472,-3.3452 6.69326,-6.69126 10.03839,-10.03839 -0.48304,-2.10353 -0.96706,-4.20797 -1.45209,-6.31345 1.1325,-2.32816 2.26395,-4.65723 3.39443,-6.98734 1.47911,-2.93116 2.95717,-5.8632 4.43425,-8.7963 0.35877,-0.58826 0.71653,-1.17751 1.07329,-1.76776 1.05326,-0.0201 2.10548,-0.0411 3.15673,-0.0631 0.14831,-0.84081 0.29562,-1.68259 0.44194,-2.52538 1.32685,-0.90395 2.65265,-1.80886 3.97747,-2.71479 1.30581,0.25355 2.61056,0.50608 3.91434,0.75762 2.02135,-2.4613 4.04162,-4.92349 6.06092,-7.38674 0.12727,-1.13545 0.25354,-2.27184 0.37881,-3.40927 -0.75663,-1.15649 -1.51423,-2.31393 -2.27285,-3.4724 -0.56722,0.464 -1.13542,0.92698 -1.70463,1.38896 -0.79872,1.30581 -1.59841,2.61056 -2.39911,3.91435 -1.68262,1.57939 -3.36618,3.15772 -5.05076,4.73509 -0.79872,0.40086 -1.59841,0.8007 -2.39912,1.19955 -2.1877,-0.67245 -4.37632,-1.34587 -6.56599,-2.0203 -4.79732,-0.31468 -9.59545,-0.63035 -14.39467,-0.94702 -1.66158,-0.0621 -3.32409,-0.12527 -4.98763,-0.18941 -2.2298,-1.7668 -4.46051,-3.53453 -6.69226,-5.3033 -1.80889,-2.12457 -3.61871,-4.25005 -5.42957,-6.37658 -1.64053,-1.24067 -3.282,-2.4823 -4.92449,-3.72494 -0.2305,0.29563 -0.46199,0.59025 -0.69448,0.88388 1.01117,0.80072 2.0213,1.60041 3.03045,2.39911 0.42191,0.42191 0.8428,0.8428 1.2627,1.26269 -0.41991,0.927 -0.8408,1.85295 -1.2627,2.77792 -0.48304,-0.31467 -0.96706,-0.63034 -1.45209,-0.94701 -0.10423,0.67444 -0.20945,1.34787 -0.31567,2.0203 -0.98813,0.52713 -1.97722,1.05324 -2.96733,1.57836 -1.00917,-0.16736 -2.0193,-0.33571 -3.03045,-0.50507 -1.98701,-1.47243 -3.97493,-2.94581 -5.96389,-4.42021 -0.92164,-1.10021 -1.84424,-2.20138 -2.76786,-3.30357 0.41768,-2.6181 0.83434,-5.23709 1.25,-7.85714 0.98317,-2.32048 1.96529,-4.64186 2.94643,-6.96429 1.93556,-1.72522 3.87005,-3.45138 5.80357,-5.17857 2.02485,-0.2371 4.04862,-0.47519 6.07143,-0.71428 2.6201,0.41767 5.2391,0.83433 7.85714,1.25 2.41177,0.4772 4.82243,0.95338 7.23215,1.42857 4.07846,-0.11805 8.15576,-0.2371 12.23214,-0.35715 0.56649,0.12005 1.13195,0.2391 1.69643,0.35715 0.38791,0.35815 0.77481,0.71528 1.16071,1.07143 1.78675,-3.83837 3.57243,-7.67758 5.35715,-11.51786 1.01292,-2.79668 2.02481,-5.59424 3.03571,-8.39286 1.16174,-3.21335 2.32243,-6.42757 3.48214,-9.64286 1.63794,-2.32047 3.27481,-4.64185 4.91072,-6.96428 3.0963,-1.57641 6.19147,-3.15376 9.28571,-4.73214 0.38791,-0.11805 0.77481,-0.2371 1.16072,-0.35715 2.1439,-1.27879 4.28671,-2.55852 6.42857,-3.83928 2.50105,-0.53473 5.001,-1.07043 7.5,-1.60715 1.51889,-2.43952 3.03671,-4.87995 4.55357,-7.32142 2.47129,-0.65378 4.94148,-1.30853 7.41071,-1.96429 -1.07045,-0.86211 -2.14185,-1.72519 -3.21428,-2.58929 -0.17758,-1.33831 -0.35614,-2.67757 -0.53572,-4.01785 -0.41567,-1.45737 -0.83233,-2.91567 -1.25,-4.375 -0.32638,-1.78475 -0.65376,-3.57043 -0.98214,-5.35715 -0.14781,-3.27287 -0.29662,-6.54662 -0.44643,-9.82142 1.1915,-2.64787 2.38195,-5.29662 3.57143,-7.94643 1.25103,-1.84428 2.501,-3.68948 3.75,-5.53572 2.17366,-1.15974 4.34624,-2.32043 6.51786,-3.48214 1.99509,-0.14781 3.98909,-0.29662 5.98214,-0.44643 1.87604,0.32839 3.751,0.65576 5.625,0.98214 1.78675,1.25103 3.57243,2.501 5.35714,3.75 1.6677,1.78675 3.33434,3.57243 5,5.35715 0.77483,1.37007 1.54862,2.73909 2.32143,4.10714 -0.14781,2.382 -0.29662,4.7629 -0.44643,7.14286 -0.0585,1.34031 -0.11804,2.67957 -0.17857,4.01785 0.50696,0.17958 1.01291,0.35815 1.51786,0.53572 -0.0585,2.50105 -0.11805,5.001 -0.17857,7.5 0.17957,1.45936 0.35814,2.91766 0.53571,4.375 -0.62401,0.44744 -1.249,0.89386 -1.875,1.33928 0.0605,1.22127 0.12005,2.44148 0.17857,3.66072 2.02485,0.68554 4.04862,1.37005 6.07143,2.05357 1.48913,1.22126 2.97719,2.44148 4.46429,3.66071 0.0308,1.01293 0.0605,2.02481 0.0893,3.03572 -0.11805,1.34031 -0.23709,2.67957 -0.35714,4.01786 0.86411,0.29862 1.72719,0.59623 2.58929,0.89285 1.4296,0.65578 2.85814,1.31053 4.28571,1.96429 3.4478,1.69826 6.89446,3.39546 10.34019,5.09169 1.53731,1.41103 3.07355,2.82101 4.60883,4.23001 0.82176,1.78985 1.64249,3.57863 2.46224,5.36644 0.14832,1.81089 0.29563,3.62071 0.44194,5.42957 -0.20945,2.02134 -0.41989,4.04161 -0.63134,6.06091 -1.9599,3.1201 -3.92072,6.23906 -5.88257,9.35709 0.14981,1.81651 0.29862,3.63195 0.44643,5.44643 -0.53473,2.1439 -1.07043,4.28672 -1.60715,6.42857 -0.56449,2.59034 -1.12995,5.17957 -1.69643,7.76786 -1.15973,1.22126 -2.32042,2.44148 -3.48214,3.66071 -0.38591,1.72723 -0.77281,3.45338 -1.16071,5.17858 -0.65378,1.72722 -1.30853,3.45338 -1.96429,5.17857 -0.35615,2.32247 -0.71328,4.64385 -1.07143,6.96428 -0.7133,2.76892 -1.42757,5.53672 -2.14285,8.30357 -0.92164,1.6677 -1.84424,3.33434 -2.76786,5 -1.33831,1.16174 -2.67757,2.32243 -4.01786,3.48215 -2.05261,1.13197 -4.10614,2.2629 -6.16071,3.39285 -1.27879,1.9058 -2.55853,3.81053 -3.83929,5.71429 -0.44544,1.84627 -0.89186,3.69148 -1.33928,5.53571 0.73924,0.32765 1.47745,0.65428 2.21468,0.97991 0.12727,0.77968 0.25354,1.55832 0.37881,2.33598 0.0431,2.75793 0.0852,5.51475 0.12627,8.27062 -0.75663,0.90595 -1.51423,1.81086 -2.27284,2.71479 -1.03022,1.60044 -2.0614,3.19981 -3.0936,4.79822 -1.09335,0.14832 -2.18766,0.29563 -3.28299,0.44194 0.8849,0.96909 1.76877,1.93713 2.65165,2.90419 1.24267,0.8849 2.48429,1.76877 3.72494,2.65165 0.1904,1.43208 0.3798,2.8631 0.56821,4.29315 0.82335,1.75184 1.64567,3.50261 2.46701,5.25241 -0.65378,1.63794 -1.30853,3.27481 -1.96429,4.91072 0.53673,3.66178 1.07243,7.32242 1.60715,10.98214 0.86411,5.68564 1.72719,11.37005 2.58928,17.05357 0.0308,4.46537 0.0605,8.92957 0.0893,13.39286 -1.1895,3.87012 -2.37996,7.73909 -3.57143,11.60714 -2.02285,1.99509 -4.04662,3.9891 -6.07143,5.98214 -2.79668,16.96563 -5.59424,33.92957 -8.39286,50.89286 1.13198,4.34632 2.26291,8.69148 3.39286,13.03571 2.20342,2.67963 4.40576,5.35815 6.60714,8.03572 1.78675,3.0963 3.57243,6.19147 5.35714,9.28571 1.78675,2.50105 3.57243,5.001 5.35715,7.5 0.17957,1.54865 0.35814,3.09624 0.53571,4.64286 -1.07045,1.48912 -2.14186,2.97719 -3.21428,4.46429 -1.9038,0.89387 -3.80853,1.78671 -5.71429,2.67857 -4.2848,-1.1895 -8.57043,-2.37996 -12.85714,-3.57143 -2.67763,-0.77283 -5.35615,-1.54662 -8.03572,-2.32143 0.12005,-0.2371 0.2391,-0.47519 0.35715,-0.71429 -1.36808,-3.92765 -2.7371,-7.85614 -4.10715,-11.78571 -1.60617,-0.17758 -3.21328,-0.35614 -4.82143,-0.53571 -2.02285,-2.20143 -4.04661,-4.40377 -6.07142,-6.60715 -0.29663,-3.98717 -0.59424,-7.97519 -0.89286,-11.96428 0.77482,-2.67763 1.54862,-5.35615 2.32143,-8.03572 1.01292,-2.55857 2.02481,-5.11804 3.03571,-7.67857 0.4772,-2.55857 0.95338,-5.11805 1.42857,-7.67857 0.12005,-4.46338 0.2391,-8.92757 0.35715,-13.39286 0.41767,-6.54675 0.83433,-13.09424 1.25,-19.64285 0.59625,-3.03478 1.19147,-6.07043 1.78571,-9.10715 -1.78475,-1.78475 -3.57043,-3.57043 -5.35714,-5.35714 -0.43472,-3.85702 -0.87042,-7.71488 -1.30712,-11.57383 0.21145,-2.27188 0.42189,-4.54468 0.63134,-6.81853 0.67445,-2.10352 1.34787,-4.20796 2.02031,-6.31345 -2.39816,-2.06143 -4.79723,-4.12379 -7.19734,-6.18718 -1.64053,-4.08178 -3.282,-8.1644 -4.92449,-12.2481 -1.26172,-3.9976 -2.52438,-7.99604 -3.78808,-11.99556 -3.70296,0.33772 -7.40678,0.67443 -11.11167,1.01015 -1.43008,2.6527 -2.8611,5.3043 -4.29315,7.95495 -0.84081,-0.41991 -1.68259,-0.84079 -2.52538,-1.26269 -2.77698,4.21005 -5.55484,8.41894 -8.33376,12.62691 -2.18771,2.94733 -4.37633,5.89355 -6.56599,8.83883 -3.40834,5.59904 -6.81753,11.19686 -10.2278,16.79379 -4.50268,4.37841 -9.00619,8.75565 -13.51079,13.13198 -3.1137,1.22162 -6.22827,2.4422 -9.34391,3.6618 -3.57669,1.22163 -7.15425,2.4422 -10.73287,3.66181 0.001,0.0852 0.001,0.16935 0,0.25253 -1.64053,-1.51426 -3.282,-3.02945 -4.92449,-4.54568 -6.64931,1.17953 -13.29935,2.35802 -19.95052,3.53553 0.006,0.0647 0.0105,0.12835 0.0143,0.19103 -0.41568,5.12015 -0.83233,10.23909 -1.25,15.35714 -0.59425,4.5249 -1.18948,9.04862 -1.78572,13.57143 -1.60617,2.32247 -3.21328,4.64385 -4.82142,6.96428 -2.1419,1.01293 -4.28472,2.02481 -6.42858,3.03572 -1.68161,-0.20152 -3.36415,-0.40402 -5.04772,-0.60753 z" />
    <path
       style="fill:#1297da;stroke:none;stroke-width:1px;stroke-linecap:butt;stroke-linejoin:miter;stroke-opacity:1;fill-opacity:1"
       d="m 257.73049,1036.439 c -1.53919,-1.795 -3.56303,-4.6522 -5.05141,-8.2831 -1.48838,-3.631 -2.44075,-8.0357 -3.51207,-11.7262 -1.07133,-3.6905 -2.26176,-6.6666 -2.97626,-10 -0.71449,-3.3334 -0.95258,-7.02388 -1.72631,-11.66673 -0.77372,-4.64286 -2.08321,-10.23799 -2.79763,-16.78576 -0.71441,-6.54777 -0.83346,-14.04762 -0.53584,-18.15528 0.29762,-4.10766 1.01189,-4.82193 6.30956,-11.31009 5.29766,-6.48815 15.17842,-18.74982 20.00039,-24.99938 4.82198,-6.24956 4.58389,-6.48765 3.75064,-6.84509 -0.83325,-0.35745 -2.26179,-0.83364 -2.91725,-1.19078 -0.65546,-0.35715 -0.53641,-0.59524 4.82084,-9.64309 5.35726,-9.04784 15.95229,-26.90463 24.5833,-44.64278 8.631,-17.73815 15.29754,-35.35684 22.0238,-52.49988 6.72625,-17.14304 13.51183,-33.80938 25.05961,-60.23834 11.54778,-26.42895 27.85698,-62.61871 38.57132,-88.98784 10.71434,-26.36912 15.83329,-42.91641 21.42859,-56.66666 5.5953,-13.75026 11.66661,-24.70242 16.42857,-32.73824 4.76196,-8.03583 8.21427,-13.15477 10.20835,-18.36283 1.99409,-5.20805 2.52979,-10.50556 4.91076,-16.19049 2.38097,-5.68492 6.60708,-11.75624 9.04756,-16.54764 2.44048,-4.79141 3.09522,-8.30325 5.89291,-13.36316 2.79768,-5.0599 7.73806,-11.66691 11.19066,-15.5659 3.45261,-3.89899 5.41685,-5.08944 8.15526,-5.92274 2.73841,-0.83331 6.25025,-1.3095 9.19668,-1.75594 2.94642,-0.44645 5.32733,-0.8631 16.05556,-1.06908 10.72822,-0.20598 29.80276,-0.20142 39.38179,-1.04047 9.57902,-0.83905 9.6632,-2.5226 12.86216,-5.93244 3.19896,-3.40984 9.51229,-8.54468 14.43737,-10.43843 4.92507,-1.89374 8.46054,-0.5469 10.73268,-0.88366 2.27215,-0.33677 3.28229,-2.35704 5.3033,-3.07265 2.02101,-0.7156 5.0514,-0.12636 6.77701,0.16815 1.72561,0.29452 2.1465,0.29452 2.18812,-2.48293 0.0416,-2.77744 -0.2951,-8.33316 -2.1048,-15.65679 -1.80971,-7.32362 -5.09264,-16.41481 -7.95449,-22.22331 -2.86184,-5.8085 -5.303,-8.33383 -7.44981,-11.65886 -2.14681,-3.32504 -3.99872,-7.44975 -4.79873,-11.28008 -0.8,-3.83034 -0.54747,-7.3658 0.21008,-10.52279 0.75756,-3.15699 2.02022,-5.93486 2.60959,-11.65886 0.58936,-5.72401 0.50519,-14.39431 0.88393,-21.21299 0.37874,-6.81868 1.22052,-11.78516 2.35694,-17.13066 1.13641,-5.3455 2.56743,-11.06958 4.46152,-15.48931 1.89409,-4.41972 4.25106,-7.5343 8.46029,-10.94376 4.20923,-3.40947 10.27002,-7.11329 17.00463,-10.0596 6.73461,-2.94631 14.14225,-5.13493 21.63443,-6.48174 7.49218,-1.34681 15.06817,-1.85188 21.08717,-1.51496 6.01899,0.33692 10.48041,1.51541 15.23661,3.24122 4.7562,1.72582 9.80685,3.99862 14.47879,6.94511 4.67194,2.9465 8.965,6.56614 11.48995,10.48064 2.52495,3.9145 3.28255,8.12338 3.78755,13.8476 0.50499,5.72422 0.75753,12.9635 0.67331,21.92868 -0.0842,8.96517 -0.50511,19.65574 -1.05234,26.68465 -0.54723,7.02892 -1.22066,10.39603 -1.21997,12.20573 6.9e-4,1.8097 0.67411,2.06223 0.96812,3.66193 0.29401,1.59969 0.20983,4.54591 -0.21111,8.96533 -0.42095,4.41943 -1.17855,10.31186 -2.06248,14.94165 -0.88394,4.62979 -1.89407,7.9969 -2.23057,10.48047 -0.33649,2.48357 2.2e-4,4.08294 -0.33618,4.92412 -0.33639,0.84118 -1.34652,0.92535 -1.9782,0.37879 -0.63168,-0.54656 -0.88421,-1.72504 -1.55789,-1.09402 -0.67367,0.63102 -1.76798,3.07217 -2.98858,6.98669 -1.2206,3.91451 -2.56745,9.30189 -5.97678,18.30909 -3.40933,9.00721 -8.88088,21.63387 -10.2272,29.79962 -1.34632,8.16576 1.43154,11.86958 2.77798,15.11044 1.34643,3.24086 1.26226,6.01872 2.44115,9.51231 1.17889,3.49359 3.62005,7.70248 5.76679,10.73287 2.14675,3.03038 3.99866,4.88229 14.52137,11.19568 10.52271,6.31339 29.71523,17.08814 39.35368,22.51789 9.63846,5.42975 9.72261,5.51391 9.93259,8.92326 0.20998,3.40936 0.54669,10.14358 1.51519,14.47885 0.9685,4.33528 2.56788,6.27136 3.66184,9.72278 1.09395,3.45141 1.68319,8.41789 2.37621,12.80091 0.69302,4.38302 1.48965,8.18226 1.769,10.14077 0.27935,1.9585 0.0413,2.07755 14.92242,-8.3393 14.88115,-10.41684 44.88055,-31.36881 71.36888,-49.9404 26.48832,-18.57159 49.46405,-34.76174 63.09505,-44.34511 13.631,-9.58336 17.91663,-12.55949 20.05938,-13.95773 2.14275,-1.39823 2.14275,-1.21966 2.61914,0.38761 0.47639,1.60727 1.42875,4.64293 1.54754,8.18443 0.11878,3.54151 -0.59549,7.58905 -1.22052,10.7438 -0.62502,3.15474 -1.16072,5.4166 -2.61904,8.00561 -1.45831,2.58901 -3.83922,5.50561 -6.30943,8.18415 -2.47021,2.67853 -5.02967,5.11895 -7.29165,7.52975 -2.26198,2.41081 -4.22622,4.79171 -6.0416,6.60708 -1.81537,1.81538 -3.482,3.06536 -6.33901,4.52367 -2.85702,1.4583 -6.90456,3.12494 -13.95823,6.07141 -7.05368,2.94647 -17.113,7.17257 -24.04766,10.41666 -6.93466,3.24408 -10.74411,5.50594 -16.27996,9.31554 -5.53585,3.80961 -12.79761,9.16664 -17.67877,14.76224 -4.88117,5.5956 -7.38112,11.42882 -9.04774,17.79813 -1.66662,6.36931 -2.49994,13.27393 -4.70241,21.42862 -2.20247,8.1547 -5.77383,17.55927 -10.41674,29.28559 -4.64292,11.72631 -10.35709,25.77365 -14.28566,37.55957 -3.92858,11.78593 -6.07139,21.30955 -8.2738,30.05959 -2.20242,8.75004 -4.46427,16.72607 -7.14287,27.26195 -2.67859,10.53587 -5.77377,23.63085 -10.24269,38.31217 -4.46892,14.68132 -10.31126,30.94823 -13.23238,39.12416 -2.92113,8.17594 -2.92113,8.2601 -5.4039,7.79672 -2.48276,-0.46339 -7.44924,-1.47352 -11.74273,-5.93462 -4.29348,-4.4611 -7.91313,-12.37381 -11.40666,-20.87601 -3.49353,-8.50221 -6.86063,-17.59339 -10.69088,-28.99984 -3.83024,-11.40645 -8.1233,-25.12742 -10.85921,-34.80812 -2.7359,-9.6807 -3.91439,-15.32061 -4.71384,-18.09919 -0.79944,-2.77857 -1.22033,-2.69439 -6.81885,7.23922 -5.59852,9.93362 -16.37326,29.71538 -22.68673,42.7634 -6.31347,13.04801 -8.16538,19.36134 -9.17545,27.19028 -1.01007,7.82894 -1.17843,17.17266 -1.13632,28.45285 0.0421,11.28019 0.29465,24.49609 0.29463,36.74428 -3e-5,12.2482 -0.25256,23.52801 -0.64888,33.89646 -0.39632,10.36845 -0.93637,19.82497 -1.32544,30.32727 -0.38906,10.50231 -0.62715,22.0497 0.26583,34.01418 0.89298,11.96448 2.91675,24.34519 3.21421,36.19043 0.29745,11.8453 -1.13108,23.1545 -2.9166,29.404 -1.78551,6.2495 -3.92831,7.4399 -26.84508,7.4996 -22.91676,0.06 -66.60637,-1.0118 -88.57112,-2.8566 -21.96475,-1.8447 -22.20284,-4.4637 -23.27442,-4.226 -1.07158,0.2378 -2.97628,3.3329 -3.96962,4.7273 -0.99334,1.3944 -1.07573,1.0869 -23.45678,0.878 -22.38106,-0.2089 -67.05969,-0.3182 -89.24593,-0.4141 -22.18625,-0.096 -21.87871,-0.1783 -21.04581,-2.2315 0.83291,-2.0532 2.19212,-6.0779 1.20562,-9.6675 -0.9865,-3.5896 -4.31976,-6.7443 -4.17151,-14.7505 0.14825,-8.0062 3.77913,-20.86316 7.58869,-33.33356 3.80956,-12.47039 7.79757,-24.55348 10.95237,-34.88091 3.15479,-10.32743 5.47618,-18.89868 8.1548,-31.99403 2.67863,-13.09536 5.71428,-30.71405 8.48218,-49.76184 2.76789,-19.0478 5.26784,-39.52358 6.28036,-49.94027 1.01251,-10.41668 0.53633,-10.77381 -4.46442,-1.72623 -5.00076,9.04757 -14.52438,27.49958 -23.27446,44.28544 -8.75007,16.78586 -16.7261,31.9046 -23.03568,46.66677 -6.30957,14.76217 -10.95234,29.16665 -13.51127,36.36873 -2.55893,7.20207 -3.03511,7.20207 -5.416,6.24994 -2.38089,-0.95213 -6.66652,-2.85685 -7.79788,-0.29692 -1.13137,2.55992 0.8924,9.58359 1.42785,15.00005 0.53544,5.41647 -0.41692,9.22592 -1.0121,13.09512 -0.59518,3.8692 -0.83327,7.79769 -1.24998,11.72625 -0.4167,3.92856 -1.01193,7.85705 -1.54764,11.90474 -0.53571,4.04772 -1.01189,8.21432 -1.97,11.36052 -0.95812,3.1462 -2.39804,5.2726 -3.9171,6.1675 -1.51906,0.8949 -3.11844,0.5582 -4.5498,-0.9566 -1.43135,-1.5148 -2.69403,-4.2085 -3.32565,-7.6179 -0.63162,-3.4094 -0.63162,-7.53408 -0.25288,-11.40649 0.37873,-3.87241 1.13634,-7.49205 0.96827,-10.73276 -0.16806,-3.24072 -1.26237,-6.10276 -2.35646,-8.12315 -1.09409,-2.0204 -2.1884,-3.19889 -3.74562,-4.12519 -1.55722,-0.9263 -3.57749,-1.59972 -6.35586,-1.01075 -2.77837,0.58898 -6.31383,2.44089 -9.3024,4.58759 -2.98858,2.14669 -5.42974,4.58785 -7.74474,7.1975 -2.31501,2.60965 -4.50363,5.38752 -6.31355,9.1759 -1.80991,3.78837 -3.24094,8.5865 -4.25105,13.72165 -1.01011,5.1351 -1.59936,10.6067 -1.85183,15.5733 -0.25248,4.9667 -0.1683,9.4281 -0.6735,12.6687 -0.50521,3.2406 -1.59949,5.2609 -3.15621,6.2288 -1.55672,0.9679 -3.57699,0.8837 -5.11422,0.4754 -1.53724,-0.4083 -2.59142,-1.1414 -4.1306,-2.9364 z"
       id="path1542"
       inkscape:path-effect="#path-effect1544"
       inkscape:original-d="m 258.21429,1037.5 c -2.02281,-2.8561 -4.04662,-5.7133 -6.07143,-8.5714 -0.9514,-4.4039 -1.90376,-8.8086 -2.85715,-13.2143 -1.1895,-2.9753 -2.37995,-5.9514 -3.57142,-8.9286 -0.2371,-3.6895 -0.47519,-7.37994 -0.71429,-11.07141 -1.30855,-5.59435 -2.61805,-11.18948 -3.92857,-16.78572 -0.11805,-7.49915 -0.2371,-14.999 -0.35714,-22.5 0.7153,-0.7133 1.42957,-1.42757 2.14285,-2.14285 9.88215,-12.26115 19.76291,-24.52281 29.64286,-36.78572 -0.2371,-0.2371 -0.47519,-0.47519 -0.71429,-0.71428 -1.4276,-0.4752 -2.85614,-0.95139 -4.28571,-1.42858 0.12005,-0.2371 0.2391,-0.47519 0.35714,-0.71428 10.59645,-17.8565 21.19148,-35.71329 31.78572,-53.57143 6.6678,-17.6184 13.33433,-35.2371 20,-52.85714 6.78685,-16.666 13.57243,-33.33234 20.35714,-50 16.31085,-36.1902 32.62005,-72.37996 48.92857,-108.57143 5.12015,-16.54695 10.2391,-33.09424 15.35714,-49.64286 6.07255,-10.9516 12.14386,-21.90376 18.21429,-32.85714 3.45345,-5.11815 6.90576,-10.2371 10.35714,-15.35714 0.53673,-5.29673 1.07243,-10.59424 1.60715,-15.89286 4.22727,-6.07055 8.45338,-12.14186 12.67857,-18.21429 0.65577,-3.51097 1.31052,-7.02281 1.96428,-10.53571 4.94158,-6.60628 9.88196,-13.21329 14.82143,-19.82143 1.96533,-1.1895 3.92957,-2.37995 5.89286,-3.57143 3.51297,-0.4752 7.02481,-0.95138 10.53571,-1.42857 2.382,-0.41568 4.76291,-0.83233 7.14286,-1.25 19.0763,0.006 38.15084,0.0101 57.22476,0.0137 0.0852,-1.68262 0.16936,-3.36617 0.25254,-5.05076 6.31458,-5.13405 12.62791,-10.26889 18.94036,-15.40483 3.5366,1.3479 7.07207,2.69474 10.6066,4.04061 1.01117,-2.01934 2.02131,-4.03961 3.03046,-6.06091 3.03152,0.59026 6.06191,1.17951 9.09137,1.76776 0.42191,10e-4 0.8428,10e-4 1.26269,0 -0.33572,-5.55495 -0.67243,-11.11067 -1.01015,-16.66751 -3.28206,-9.09056 -6.56499,-18.18175 -9.84899,-27.27412 -2.44025,-2.52443 -4.8814,-5.04977 -7.3236,-7.57615 -1.85099,-4.12387 -3.7029,-8.24858 -5.55584,-12.37437 0.25354,-3.5346 0.50607,-7.07006 0.75761,-10.6066 1.26372,-2.77697 2.52638,-5.55484 3.78807,-8.33376 -0.0832,-8.66965 -0.16736,-17.33995 -0.25253,-26.01142 0.84281,-4.96569 1.68458,-9.93217 2.52538,-14.89975 1.43207,-5.72332 2.8631,-11.4474 4.29315,-17.1726 2.35806,-3.1137 4.71504,-6.22827 7.07106,-9.34391 6.06204,-3.70296 12.12283,-7.40678 18.18275,-11.11168 7.40893,-2.1877 14.81657,-4.37632 22.22335,-6.56599 7.5773,-0.50408 15.15329,-1.00915 22.72844,-1.51523 4.46259,1.17954 8.92401,2.35803 13.38452,3.53554 5.05186,2.27389 10.10252,4.54668 15.15229,6.81853 4.29423,3.62078 8.58729,7.24042 12.87944,10.85914 0.75863,4.21005 1.51623,8.41893 2.27284,12.6269 0.25355,7.24058 0.50608,14.47986 0.75762,21.71828 -0.41991,10.692 -0.84079,21.38257 -1.26269,32.07235 -0.67245,3.36824 -1.34587,6.73535 -2.02031,10.10152 0.67445,0.25355 1.34787,0.50608 2.02031,0.75762 -0.0832,2.94733 -0.16736,5.89355 -0.25254,8.83883 -0.75663,5.89368 -1.51423,11.78611 -2.27284,17.67767 -1.00918,3.36824 -2.01931,6.73535 -3.03046,10.10153 0.33772,1.60044 0.67443,3.19981 1.01015,4.79822 -1.00917,0.0852 -2.0193,0.16936 -3.03046,0.25254 -0.25154,-1.17754 -0.50407,-2.35602 -0.75761,-3.53553 -1.09335,2.44225 -2.18766,4.8834 -3.283,7.3236 -1.34589,5.38859 -2.69274,10.77596 -4.04061,16.16244 -5.47077,12.62816 -10.94232,25.25482 -16.41497,37.88072 2.77897,3.70497 5.55683,7.40879 8.33375,11.11168 -0.0832,2.77898 -0.16736,5.55684 -0.25253,8.33376 2.44225,4.21005 4.8834,8.41894 7.3236,12.62691 1.85298,1.85298 3.70489,3.70489 5.55584,5.55583 19.19428,10.77618 38.3868,21.55093 57.5787,32.32489 0.0852,0.0852 0.16935,0.16936 0.25253,0.25253 0.33773,6.73549 0.67444,13.46971 1.01016,20.20306 1.60044,1.93716 3.19981,3.87325 4.79822,5.80837 0.59027,4.96769 1.17951,9.93417 1.76777,14.89975 0.79766,3.8004 1.5943,7.59964 2.38994,11.39796 -0.2371,0.12005 -0.47519,0.2391 -0.71428,0.35715 30.0016,-20.9518 60.001,-41.90377 90,-62.85715 22.97765,-16.1898 45.95338,-32.37995 68.92857,-48.57143 4.2868,-2.97525 8.57243,-5.95138 12.85714,-8.92857 10e-4,0.17958 10e-4,0.35815 0,0.53572 0.9534,3.03677 1.90577,6.07243 2.85715,9.10714 -0.7133,4.0487 -1.42758,8.09624 -2.14286,12.14286 -0.53473,2.26295 -1.07043,4.52481 -1.60714,6.78571 -2.38,2.91773 -4.76091,5.83433 -7.14286,8.75 -2.55858,2.44153 -5.11805,4.88195 -7.67857,7.32143 -1.96333,2.382 -3.92757,4.7629 -5.89286,7.14286 -1.6657,1.25102 -3.33233,2.501 -5,3.75 -4.0467,1.6677 -8.09424,3.33433 -12.14286,5 -10.05872,4.22727 -20.11804,8.45338 -30.17857,12.67857 -3.8086,2.26295 -7.61805,4.52481 -11.42857,6.78571 -7.26105,5.35825 -14.52281,10.71529 -21.78571,16.07143 -2.49905,5.83445 -4.999,11.66767 -7.5,17.5 -0.83235,6.9059 -1.66567,13.81052 -2.5,20.71429 -3.5705,9.40595 -7.14186,18.81052 -10.71429,28.21428 -5.7134,14.0489 -11.42757,28.09624 -17.14286,42.14286 -2.1419,9.525 -4.28471,19.04862 -6.42857,28.57143 -2.26095,7.97735 -4.52281,15.95338 -6.78571,23.92857 -3.0943,13.0965 -6.18948,26.19148 -9.28572,39.28571 -5.84157,16.26856 -11.68391,32.53547 -17.52736,48.80171 10e-4,0.0852 10e-4,0.16936 0,0.25253 -4.96569,-1.00917 -9.93217,-2.0193 -14.89975,-3.03045 -3.61879,-7.91202 -7.23843,-15.82473 -10.85914,-23.73859 -3.36625,-9.09055 -6.73335,-18.18174 -10.10153,-27.27412 -4.29223,-13.72051 -8.5853,-27.44147 -12.87944,-41.16371 -1.17754,-5.63913 -2.35603,-11.27904 -3.53554,-16.92006 -0.4199,0.0852 -0.84079,0.16936 -1.26269,0.25254 -10.77417,19.78355 -21.54892,39.56531 -32.32488,59.34646 -1.85098,6.31458 -3.70289,12.62791 -5.55584,18.94036 -0.16736,9.3451 -0.33572,18.68882 -0.50508,28.03174 0.25355,13.21742 0.50608,26.43332 0.75762,39.64848 -0.25154,11.28127 -0.50408,22.56108 -0.75762,33.84011 -0.53907,9.45791 -1.07912,18.91443 -1.62018,28.37015 -0.2371,11.54885 -0.47519,23.09624 -0.71428,34.64285 2.02485,12.3822 4.04862,24.76291 6.07143,37.14288 -1.4276,11.3108 -2.85615,22.62 -4.28572,33.9286 -2.1419,1.1915 -4.28471,2.3819 -6.42857,3.5714 -43.69035,-1.0704 -87.37995,-2.1419 -131.07143,-3.2143 -0.2371,-2.6181 -0.47519,-5.2371 -0.71428,-7.8571 -1.9038,3.0963 -3.80853,6.1914 -5.71429,9.2857 -0.11805,-0.2966 -0.16376,-0.6139 -0.24714,-0.9223 -44.67942,-0.1083 -89.35805,-0.2175 -134.03857,-0.3277 0.30845,-0.081 0.61589,-0.1638 0.92233,-0.2472 1.36025,-4.0238 2.71944,-8.0485 4.07767,-12.0742 -3.3324,-3.1539 -6.66567,-6.3086 -10,-9.4643 3.63202,-12.8564 7.2629,-25.71333 10.89285,-38.57148 3.98918,-12.08257 7.97719,-24.16566 11.96429,-36.25 2.32247,-8.5706 4.64386,-17.14185 6.96429,-25.71428 3.03677,-17.6184 6.07242,-35.2371 9.10714,-52.85714 2.50105,-20.4756 5.001,-40.95139 7.5,-61.42858 -0.4752,-0.35615 -0.95138,-0.71328 -1.42857,-1.07142 -9.523,18.45375 -19.04662,36.90576 -28.57143,55.35714 -7.97535,15.12035 -15.95138,30.23909 -23.92857,45.35714 -4.64195,14.40605 -9.28472,28.81053 -13.92858,43.21429 -0.4752,10e-4 -0.95138,10e-4 -1.42857,0 C 333.57234,943.81049 329.28671,941.90576 325,940 c 2.02485,7.02495 4.04862,14.04862 6.07143,21.07143 -0.9514,3.8106 -1.90376,7.62005 -2.85714,11.42857 -0.2371,3.92965 -0.47519,7.85814 -0.71429,11.78572 -0.59425,3.92965 -1.18948,7.85814 -1.78571,11.78571 -0.4752,4.16777 -0.95138,8.33437 -1.42858,12.49997 -1.43899,2.1275 -2.87893,4.2539 -4.31989,6.3794 -1.59844,-0.3358 -3.19782,-0.6725 -4.79823,-1.0102 -1.26171,-2.6928 -2.52438,-5.3865 -3.78807,-8.0812 10e-4,-4.1239 10e-4,-8.24858 0,-12.37437 0.75863,-3.61879 1.51623,-7.23843 2.27285,-10.85914 -1.09336,-2.86116 -2.18767,-5.7232 -3.283,-8.5863 -1.09335,-1.17753 -2.18766,-2.35602 -3.283,-3.53553 -2.01934,-0.67245 -4.03961,-1.34587 -6.06091,-2.02031 -3.53461,1.85299 -7.07007,3.7049 -10.6066,5.55584 -2.44025,2.44225 -4.88141,4.88341 -7.32361,7.32361 -2.18771,2.77897 -4.37633,5.55684 -6.56599,8.33376 -1.43008,4.79932 -2.8611,9.59745 -4.29315,14.39464 -0.58827,5.4728 -1.17751,10.9444 -1.76777,16.415 0.0852,4.4626 0.16936,8.924 0.25254,13.3845 -1.09335,2.0214 -2.18766,4.0416 -3.28299,6.0609 -2.01935,-0.083 -4.03961,-0.1673 -6.06092,-0.2525 -1.05325,-0.7322 -2.10746,-1.4653 -3.16268,-2.1995 z" />
    <path
       style="fill:#00a3e8;fill-opacity:1;stroke:none;stroke-width:1.00501px;stroke-linecap:butt;stroke-linejoin:miter;stroke-opacity:1"
       d="m 687.55305,1040.0783 c 8.80117,-37.2484 17.60132,-74.49773 26.40047,-111.74811 3.23205,-17.17194 6.46296,-34.34419 9.69293,-51.51778 3.7422,-13.80469 7.48326,-27.60984 11.22337,-41.41625 2.89195,-9.25892 5.78276,-18.51847 8.67263,-27.7792 2.89194,-8.92219 5.78275,-17.84503 8.67262,-26.76904 3.7422,-13.97306 7.48326,-27.94656 11.22338,-41.92133 2.84341,-12.73669 5.6857,-25.47387 8.52703,-38.2123 7.57656,-20.35655 15.15181,-40.71329 22.72619,-61.07143 3.96916,-13.21355 7.93714,-26.42757 11.9042,-39.64286 4.20965,-6.78485 8.41813,-13.57043 12.62567,-20.35714 4.45014,-2.38 8.8991,-4.76091 13.34713,-7.14286 12.49858,-6.31126 24.99565,-12.62327 37.49196,-18.9364 6.63314,-2.35607 13.26501,-4.71305 19.896,-7.07107 6.63314,-7.07021 13.26501,-14.14114 19.89601,-21.21321 2.38177,-4.71314 4.76244,-9.42709 7.14214,-14.14213 0.34113,-4.71314 0.68123,-9.42709 1.02032,-14.14214 -1.69954,-4.37641 -3.40002,-8.75365 -5.10155,-13.13198 -0.16904,-5.04986 -0.33908,-10.10053 -0.51014,-15.15229 -1.52949,-3.87133 -3.05992,-7.7435 -4.59139,-11.61675 -1.01932,1.17953 -2.0396,2.35802 -3.06093,3.53553 -2.71986,-1.3459 -5.44063,-2.69274 -8.16246,-4.04061 -2.2097,-3.70297 -4.42032,-7.40678 -6.632,-11.11168 -2.03964,-5.04986 -4.08022,-10.10052 -6.12184,-15.15229 -0.67921,-2.52443 -1.3594,-5.04976 -2.04062,-7.57614 0.68123,-2.35607 1.36142,-4.71304 2.04062,-7.07107 -0.84927,-2.01934 -1.69951,-4.03961 -2.55077,-6.06091 -1.35943,-5.04987 -2.71982,-10.10053 -4.08124,-15.15229 0.2561,-2.52443 0.51116,-5.04976 0.76523,-7.57614 1.36145,-4.79733 2.72183,-9.59545 4.08123,-14.39468 4.67752,-6.06004 9.35383,-12.12083 14.02924,-18.18274 5.35773,-3.45043 10.71424,-6.90171 16.06985,-10.35407 9.09893,-4.46059 18.1965,-8.92201 27.29323,-13.38452 5.8679,-0.33572 11.73455,-0.67243 17.60031,-1.01015 4.84757,0.59027 9.69394,1.17951 14.5394,1.76777 4.16734,1.51625 8.33352,3.03145 12.49876,4.54568 3.14702,2.94734 6.29291,5.89356 9.43786,8.83884 4.08232,5.64113 8.16341,11.28103 12.24361,16.92005 2.9771,4.21005 5.9529,8.41894 8.9278,12.62691 1.6165,6.2304 3.232,12.45955 4.8464,18.68782 0.1711,1.01117 0.3411,2.02131 0.5102,3.03046 -0.8492,2.61061 -1.6995,5.22012 -2.5508,7.82868 -0.9343,3.1157 -1.8696,6.23027 -2.8058,9.34391 1.1063,1.26372 2.2116,2.52638 3.316,3.78807 -0.8492,4.29424 -1.6995,8.5873 -2.5508,12.87945 -2.3798,9.68182 -4.7605,19.36226 -7.1422,29.04188 -1.2744,0.75863 -2.5497,1.51623 -3.8262,2.27285 -0.5941,2.52643 -1.1893,5.05176 -1.7854,7.57614 -2.2948,4.04169 -4.59042,8.08222 -6.88712,12.12183 10e-4,-0.16736 10e-4,-0.33572 0,-0.50507 3.65718,2.61061 7.31322,5.22012 10.96832,7.82868 1.7015,-0.16736 3.4021,-0.33572 5.1016,-0.50508 2.2117,0.92699 4.4223,1.85295 6.6319,2.77792 2.7219,1.93717 5.4427,3.87325 8.1625,5.80838 4.4386,3.93384 8.876,7.86652 13.3124,11.79828 0.325,135.38782 0.649,270.76922 0.9719,406.15233 -0.1691,-0.16736 -0.3391,-0.33571 -0.5102,-0.50507 -7.5664,6.39876 -15.1335,12.79626 -22.7018,19.1929 -3.4851,4.79932 -6.9711,9.59745 -10.4581,14.39467 0.171,3.28406 0.3411,6.56699 0.5101,9.84899 2.0417,2.94733 4.0823,5.89355 6.1219,8.83883 4.8475,-0.0832 9.6939,-0.16736 14.5393,-0.25254 3.9123,6.56713 7.8234,13.13299 11.7336,19.69798 -0.068,18.20009 -0.1368,36.39849 -0.2067,54.59619 -115.99242,-114.16451 -16.3733,-20.251 -16.3733,-20.251 l 16.3733,20.251 z"
       id="path1546" />
  </g>
</svg>
